SplineFontDB: 3.0
FontName: SixCaps
FullName: Six Caps
FamilyName: Six Caps
Weight: Book
Copyright: Copyright (c) 2010 by vernon adams. All rights reserved.
Version: 001.000
ItalicAngle: 0
UnderlinePosition: -232
UnderlineWidth: 41
Ascent: 1638
Descent: 410
sfntRevision: 0x00010000
LayerCount: 2
Layer: 0 0 "Back"  1
Layer: 1 0 "Fore"  0
XUID: [1021 823 301787212 10789985]
FSType: 0
OS2Version: 2
OS2_WeightWidthSlopeOnly: 0
OS2_UseTypoMetrics: 1
CreationTime: 1299530496
ModificationTime: 1300705836
PfmFamily: 17
TTFWeight: 400
TTFWidth: 5
LineGap: 0
VLineGap: 0
Panose: 2 0 5 8 2 0 0 2 0 4
OS2TypoAscent: 864
OS2TypoAOffset: 1
OS2TypoDescent: 263
OS2TypoDOffset: 1
OS2TypoLinegap: 0
OS2WinAscent: -18
OS2WinAOffset: 1
OS2WinDescent: -74
OS2WinDOffset: 1
HheadAscent: -18
HheadAOffset: 1
HheadDescent: 74
HheadDOffset: 1
OS2SubXSize: 1434
OS2SubYSize: 1331
OS2SubXOff: 0
OS2SubYOff: 287
OS2SupXSize: 1434
OS2SupYSize: 1331
OS2SupXOff: 0
OS2SupYOff: 977
OS2StrikeYSize: 102
OS2StrikeYPos: 512
OS2Vendor: 'FFOR'
OS2CodePages: 20000001.00000000
OS2UnicodeRanges: a00002af.40002048.00000000.00000000
Lookup: 258 0 0 "'kern' Horizontal Kerning in Latin lookup 0"  {"'kern' Horizontal Kerning in Latin lookup 0 subtable"  } ['kern' ('latn' <'dflt' > ) ]
MarkAttachClasses: 1
DEI: 91125
LangName: 1033 "" "" "Regular" "vernonadams: Six Caps: 2010" "" "Version 001.000" "" "Six Caps is a trademark of vernon adams." "vernon adams" "vernon adams" "Copyright (c) 251 by vernon adams. All rights reserved." "newtypography.co.uk" "newtypography.co.uk" "" "" "" "" "" "Six Caps" 
GaspTable: 1 65535 3
Encoding: UnicodeBmp
UnicodeInterp: none
NameList: Adobe Glyph List
DisplaySize: -48
AntiAlias: 1
FitToEm: 1
WinInfo: 35 35 12
BeginPrivate: 8
BlueValues 47 [-32 0 1536 1550 1536 1560 1728 1743 1760 1760]
BlueFuzz 1 1
BlueScale 8 0.039625
BlueShift 1 7
StdHW 4 [21]
StdVW 5 [128]
StemSnapH 11 [21 96 115]
StemSnapV 5 [128]
EndPrivate
BeginChars: 65590 438

StartChar: exclam
Encoding: 33 33 8
Width: 259
GlyphClass: 2
Flags: W
HStem: 0 160<64 192> 1708 20G<32 224>
VStem: 32 192<1398.27 1728> 64 128<0 160> 96 64<256 585.728>
LayerCount: 2
Fore
SplineSet
224 1728 m 1xe0
 160 256 l 1
 96 256 l 1xc8
 32 1728 l 1
 224 1728 l 1xe0
192 160 m 1xd0
 192 0 l 1
 64 0 l 1
 64 160 l 1
 192 160 l 1xd0
EndSplineSet
EndChar

StartChar: quotedbl
Encoding: 34 34 9
Width: 448
GlyphClass: 2
Flags: W
HStem: 1376 352<96 160 288 352>
VStem: 96 64<1376 1533.7> 288 64<1376 1533.7>
LayerCount: 2
Fore
SplineSet
384 1728 m 1
 352 1376 l 1
 288 1376 l 1
 256 1728 l 1
 384 1728 l 1
192 1728 m 1
 160 1376 l 1
 96 1376 l 1
 64 1728 l 1
 192 1728 l 1
EndSplineSet
EndChar

StartChar: numbersign
Encoding: 35 35 10
Width: 512
GlyphClass: 2
Flags: W
HStem: 0 21G<32 161.118 256 385.118> 608 96<0 66 199 290 423 480> 992 96<32 87 221 311 445 512> 1708 20G<126.906 256 350.906 480>
VStem: 32 128<0 128> 128 128<1600 1728> 256 128<0 128> 352 128<1600 1728>
DStem2: 32 0 160 0 0.05547 0.99846<7.10016 608.95 712.18 993.524 1096.81 1730.66> 256 0 384 0 0.05547 0.99846<7.10016 608.95 712.18 993.524 1096.81 1730.66>
LayerCount: 2
Fore
SplineSet
480 608 m 1xf5
 418 608 l 1
 384 0 l 1
 256 0 l 1
 290 608 l 1
 194 608 l 1
 160 0 l 1
 32 0 l 1
 66 608 l 1
 0 608 l 1
 0 704 l 1
 71 704 l 1
 87 992 l 1
 32 992 l 1
 32 1088 l 1xfa
 93 1088 l 1
 128 1728 l 1
 256 1728 l 1
 221 1088 l 1
 317 1088 l 1
 352 1728 l 1
 480 1728 l 1
 445 1088 l 1
 512 1088 l 1
 512 992 l 1
 439 992 l 1
 423 704 l 1
 480 704 l 1
 480 608 l 1xf5
199 704 m 1
 295 704 l 1
 311 992 l 1
 215 992 l 1
 199 704 l 1
EndSplineSet
EndChar

StartChar: dollar
Encoding: 36 36 11
Width: 461
GlyphClass: 2
Flags: W
VStem: 52 135<118.861 737 1084.59 1652.62> 183 105<-240 3.83167 1757.85 2001> 272 136<118.861 770.16 1108 1653.22>
DStem2: 297.5 950.5 121.5 988.5 0.466696 -0.884418<-305.549 262.375>
LayerCount: 2
Fore
SplineSet
183 -13 m 1x40
 165 -8.33333333333 147.833333333 -1.5 131.5 7.5 c 0
 115.166666667 16.5 101 27.3333333333 89 40 c 1
 77.6666666667 53.3333333333 68.6666666667 69.1666666667 62 87.5 c 0
 55.3333333333 105.833333333 52 126.666666667 52 150 c 2
 52 737 l 1
 187 737 l 1
 187 150 l 2
 187 136.666666667 191.166666667 126.166666667 199.5 118.5 c 0
 207.833333333 110.833333333 218.666666667 107 232 107 c 0
 243.333333333 107 252.833333333 110.833333333 260.5 118.5 c 0
 268.166666667 126.166666667 272 136.666666667 272 150 c 2
 272 421 l 2
 272 491.666666667 268.833333333 552.333333333 262.5 603 c 0
 256.166666667 653.666666667 247.833333333 698 237.5 736 c 0
 227.166666667 774 215.5 807 202.5 835 c 0
 189.5 863 176 889.333333333 162 914 c 0
 148 938.666666667 134.5 963.5 121.5 988.5 c 0
 108.5 1013.5 96.8333333333 1041.66666667 86.5 1073 c 0
 76.1666666667 1104.33333333 67.8333333333 1140.66666667 61.5 1182 c 0
 55.1666666667 1223.33333333 52 1272.66666667 52 1330 c 2
 52 1625 l 2xa0
 52 1665.66666667 64.3333333333 1698.16666667 89 1722.5 c 0
 113.666666667 1746.83333333 145 1764.33333333 183 1775 c 1
 183 2001 l 1
 288 2001 l 1
 288 1772 l 1x40
 324 1761.33333333 353.333333333 1743.66666667 376 1719 c 1
 386 1707 393.833333333 1693.33333333 399.5 1678 c 0
 405.166666667 1662.66666667 408 1646 408 1628 c 2
 408 1108 l 1
 272 1108 l 1
 272 1626 l 2
 272 1637.33333333 268.166666667 1646.66666667 260.5 1654 c 0
 252.833333333 1661.33333333 243.333333333 1665 232 1665 c 0
 219.333333333 1665 208.666666667 1661 200 1653 c 0
 191.333333333 1645 187 1635.66666667 187 1625 c 2
 187 1376 l 2
 187 1319.33333333 190.166666667 1269.83333333 196.5 1227.5 c 0
 202.833333333 1185.16666667 211.166666667 1147.5 221.5 1114.5 c 0
 231.833333333 1081.5 243.666666667 1052 257 1026 c 0
 270.333333333 1000 283.833333333 974.833333333 297.5 950.5 c 0
 311.166666667 926.166666667 324.666666667 901.5 338 876.5 c 0
 351.333333333 851.5 363.166666667 823.5 373.5 792.5 c 0
 383.833333333 761.5 392.166666667 726.5 398.5 687.5 c 0
 404.833333333 648.5 408 602.666666667 408 550 c 2
 408 154 l 2xa0
 408 106 398 68.8333333333 378 42.5 c 0
 358 16.1666666667 328 -2.33333333333 288 -13 c 1
 288 -240 l 1
 183 -240 l 1
 183 -13 l 1x40
EndSplineSet
EndChar

StartChar: percent
Encoding: 37 37 12
Width: 1084
GlyphClass: 2
Flags: W
HStem: 0 21G<378 514.147> 212 98<820.399 897.67> 693 99<186.304 258.02> 968 95<826.845 891.998> 1450 95<186.304 258.02> 1741 20G<564.853 701>
VStem: 48 138<792.883 1449.99> 264 138<801.282 1439.69> 378 134<0 134> 567 134<1627 1761> 683 137<310.076 958.202> 898 138<310.813 958.202>
DStem2: 378 0 512 0 0.106713 0.99429<14.2995 1771.11>
LayerCount: 2
Fore
SplineSet
1036 362 m 2xfe30
 1036 341.333333333 1031.33333333 322 1022 304 c 0
 1012.66666667 286 1000 270.166666667 984 256.5 c 0
 968 242.833333333 949.333333333 232 928 224 c 0
 906.666666667 216 884.333333333 212 861 212 c 0
 836.333333333 212 813.166666667 216 791.5 224 c 0
 769.833333333 232 751 243 735 257 c 0
 719 271 706.333333333 287.5 697 306.5 c 0
 687.666666667 325.5 683 345.666666667 683 367 c 2
 683 909 l 2
 683 930.333333333 687.666666667 950.333333333 697 969 c 0
 706.333333333 987.666666667 719 1004 735 1018 c 0
 751 1032 769.833333333 1043 791.5 1051 c 0
 813.166666667 1059 836.333333333 1063 861 1063 c 0
 884.333333333 1063 906.666666667 1059.16666667 928 1051.5 c 0
 949.333333333 1043.83333333 968 1033.33333333 984 1020 c 0
 1000 1006.66666667 1012.66666667 990.833333333 1022 972.5 c 0
 1031.33333333 954.166666667 1036 934 1036 912 c 2
 1036 362 l 2xfe30
898 933 m 2
 898 943.666666667 894.333333333 952.166666667 887 958.5 c 0
 879.666666667 964.833333333 871 968 861 968 c 0
 850.333333333 968 840.833333333 964.833333333 832.5 958.5 c 0
 824.166666667 952.166666667 820 943.666666667 820 933 c 2
 820 342 l 2
 820 336.666666667 823.333333333 330 830 322 c 0
 836.666666667 314 847 310 861 310 c 0
 871 310 879.666666667 313.166666667 887 319.5 c 0
 894.333333333 325.833333333 898 333.333333333 898 342 c 2
 898 933 l 2
402 844 m 2xff10
 402 823.333333333 397.166666667 803.833333333 387.5 785.5 c 0
 377.833333333 767.166666667 365 751.166666667 349 737.5 c 0
 333 723.833333333 314.333333333 713 293 705 c 0
 271.666666667 697 249.333333333 693 226 693 c 0
 202 693 179.166666667 697 157.5 705 c 0
 135.833333333 713 117 724 101 738 c 0
 85 752 72.1666666667 768.5 62.5 787.5 c 0
 52.8333333333 806.5 48 827 48 849 c 2
 48 1391 l 2
 48 1411.66666667 52.8333333333 1431.33333333 62.5 1450 c 0
 72.1666666667 1468.66666667 85 1485 101 1499 c 0
 117 1513 135.833333333 1524.16666667 157.5 1532.5 c 0
 179.166666667 1540.83333333 202 1545 226 1545 c 0
 249.333333333 1545 271.666666667 1541.16666667 293 1533.5 c 0
 314.333333333 1525.83333333 333 1515.33333333 349 1502 c 0
 365 1488.66666667 377.833333333 1472.66666667 387.5 1454 c 0
 397.166666667 1435.33333333 402 1415 402 1393 c 2
 402 844 l 2xff10
264 1415 m 2
 264 1425 260.333333333 1433.33333333 253 1440 c 0
 245.666666667 1446.66666667 236.666666667 1450 226 1450 c 0
 216 1450 206.833333333 1446.66666667 198.5 1440 c 0
 190.166666667 1433.33333333 186 1425 186 1415 c 2
 186 824 l 2
 186 818 189.333333333 811.166666667 196 803.5 c 0
 202.666666667 795.833333333 212.666666667 792 226 792 c 0
 236.666666667 792 245.666666667 795 253 801 c 0
 260.333333333 807 264 814.666666667 264 824 c 2
 264 1415 l 2
701 1761 m 1xfed0
 512 0 l 1
 378 0 l 1
 567 1761 l 1
 701 1761 l 1xfed0
EndSplineSet
EndChar

StartChar: ampersand
Encoding: 38 38 13
Width: 491
GlyphClass: 2
Flags: W
HStem: -21 109<186.156 272.764> 636 113<415 502> 856.5 117.5<190.128 282> 1674 110<186.156 272.764>
VStem: 52 134<88.0417 855.133 977.304 1673.45> 280 222<638 749> 280 135<100.376 636 1077 1662.66>
LayerCount: 2
Fore
SplineSet
415 1077 m 1xfa
 280 1077 l 1
 280 1638 l 2
 280 1647.33333333 275.666666667 1655.66666667 267 1663 c 0
 258.333333333 1670.33333333 246.333333333 1674 231 1674 c 0
 219 1674 208.5 1670.33333333 199.5 1663 c 0
 190.5 1655.66666667 186 1647.33333333 186 1638 c 2
 186 1062 l 2
 186 1040 188.166666667 1023 192.5 1011 c 0
 196.833333333 999 203 990.333333333 211 985 c 0
 219 979.666666667 229 976.5 241 975.5 c 0
 253 974.5 266.666666667 974 282 974 c 1
 282 857 l 1
 266.666666667 857 253 856.833333333 241 856.5 c 0
 229 856.166666667 219 854.166666667 211 850.5 c 0
 203 846.833333333 196.833333333 840.833333333 192.5 832.5 c 0
 188.166666667 824.166666667 186 812.333333333 186 797 c 2
 186 127 l 2
 186 117 190.5 108 199.5 100 c 0
 208.5 92 219 88 231 88 c 0
 246.333333333 88 258.333333333 92 267 100 c 0
 275.666666667 108 280 117 280 127 c 2xfa
 280 749 l 1
 503 749 l 1
 502 638 l 1xfc
 415 636 l 1
 415 124 l 2
 415 104.666666667 410.166666667 86.1666666667 400.5 68.5 c 0
 390.833333333 50.8333333333 377.666666667 35.3333333333 361 22 c 0
 344.333333333 8.66666666667 324.833333333 -1.83333333333 302.5 -9.5 c 0
 280.166666667 -17.1666666667 256.333333333 -21 231 -21 c 0
 207 -21 184.166666667 -17.1666666667 162.5 -9.5 c 0
 140.833333333 -1.83333333333 121.833333333 8.83333333333 105.5 22.5 c 0
 89.1666666667 36.1666666667 76.1666666667 52 66.5 70 c 0
 56.8333333333 88 52 107 52 127 c 2
 52 801 l 2
 52 827 57.1666666667 848.333333333 67.5 865 c 0
 77.8333333333 881.666666667 89.6666666667 894.333333333 103 903 c 0
 119 913.666666667 136.666666667 921.333333333 156 926 c 1
 135.333333333 930 117.666666667 938 103 950 c 1
 89.6666666667 959.333333333 77.8333333333 972.833333333 67.5 990.5 c 0
 57.1666666667 1008.16666667 52 1032 52 1062 c 2
 52 1638 l 2
 52 1658 56.8333333333 1677 66.5 1695 c 0
 76.1666666667 1713 89.1666666667 1728.5 105.5 1741.5 c 0
 121.833333333 1754.5 140.833333333 1764.83333333 162.5 1772.5 c 0
 184.166666667 1780.16666667 207 1784 231 1784 c 0
 256.333333333 1784 280.166666667 1780.33333333 302.5 1773 c 0
 324.833333333 1765.66666667 344.333333333 1755.5 361 1742.5 c 0
 377.666666667 1729.5 390.833333333 1714 400.5 1696 c 0
 410.166666667 1678 415 1658.66666667 415 1638 c 2
 415 1077 l 1xfa
EndSplineSet
EndChar

StartChar: quotesingle
Encoding: 39 39 14
Width: 273
GlyphClass: 2
Flags: W
HStem: 1402 359<88 174>
VStem: 88 86<1402 1524.54>
LayerCount: 2
Fore
SplineSet
216 1761 m 1
 174 1402 l 1
 88 1402 l 1
 57 1761 l 1
 216 1761 l 1
EndSplineSet
EndChar

StartChar: parenleft
Encoding: 40 40 15
Width: 352
GlyphClass: 2
Flags: W
HStem: 0 96<246.119 320> 1632 96<240.947 320>
VStem: 32 128<274.96 1481.22>
LayerCount: 2
Fore
SplineSet
32 896 m 256
 32 954.666666667 32.5 1016 33.5 1080 c 0
 34.5 1144 37.6666666667 1206.83333333 43 1268.5 c 0
 48.3333333333 1330.16666667 56.6666666667 1388.66666667 68 1444 c 0
 79.3333333333 1499.33333333 95.6666666667 1548.16666667 117 1590.5 c 0
 138.333333333 1632.83333333 165.5 1666.33333333 198.5 1691 c 0
 231.5 1715.66666667 272 1728 320 1728 c 1
 320 1632 l 1
 293.333333333 1632 270.833333333 1622 252.5 1602 c 0
 234.166666667 1582 219.166666667 1554.5 207.5 1519.5 c 0
 195.833333333 1484.5 186.666666667 1443.33333333 180 1396 c 0
 173.333333333 1348.66666667 168.5 1297.66666667 165.5 1243 c 0
 162.5 1188.33333333 160.833333333 1131.5 160.5 1072.5 c 0
 160.166666667 1013.5 160 954.666666667 160 896 c 256
 160 837.333333333 160.166666667 776.833333333 160.5 714.5 c 0
 160.833333333 652.166666667 162.5 591.333333333 165.5 532 c 0
 168.5 472.666666667 173.333333333 416.666666667 180 364 c 0
 186.666666667 311.333333333 195.833333333 265.166666667 207.5 225.5 c 0
 219.166666667 185.833333333 234.166666667 154.333333333 252.5 131 c 0
 270.833333333 107.666666667 293.333333333 96 320 96 c 1
 320 0 l 1
 272 0 231.5 14 198.5 42 c 0
 165.5 70 138.333333333 107.333333333 117 154 c 0
 95.6666666667 200.666666667 79.3333333333 254.666666667 68 316 c 0
 56.6666666667 377.333333333 48.3333333333 441.166666667 43 507.5 c 0
 37.6666666667 573.833333333 34.5 640.5 33.5 707.5 c 0
 32.5 774.5 32 837.333333333 32 896 c 256
EndSplineSet
EndChar

StartChar: asterisk
Encoding: 42 42 17
Width: 608
GlyphClass: 2
Flags: W
HStem: 1376 96<32 224 384 576>
VStem: 32 544<1376 1472>
DStem2: 206 1688 122 1639 0.513439 -0.858126<0 194.138 361.472 555.947> 122 1210 207 1161 0.513439 0.858126<1.59418 193.502 360.837 557.028>
LayerCount: 2
Fore
SplineSet
408 1161 m 1
 305 1326 l 1
 207 1161 l 1
 122 1210 l 1
 224 1376 l 1
 32 1376 l 1
 32 1472 l 1
 225 1472 l 1
 122 1639 l 1
 206 1688 l 1
 305 1521 l 1
 408 1688 l 1
 492 1639 l 1
 383 1472 l 1
 576 1472 l 1
 576 1376 l 1
 384 1376 l 1
 492 1210 l 1
 408 1161 l 1
EndSplineSet
EndChar

StartChar: plus
Encoding: 43 43 18
Width: 640
GlyphClass: 2
Flags: W
HStem: 768 128<32 256 384 608>
VStem: 256 128<512 768 896 1152>
LayerCount: 2
Fore
SplineSet
32 896 m 1
 256 896 l 1
 256 1152 l 1
 384 1152 l 1
 384 896 l 1
 608 896 l 1
 608 768 l 1
 384 768 l 1
 384 512 l 1
 256 512 l 1
 256 768 l 1
 32 768 l 1
 32 896 l 1
EndSplineSet
EndChar

StartChar: comma
Encoding: 44 44 19
Width: 192
GlyphClass: 2
Flags: W
HStem: -160 352<32 128>
VStem: 32 128<34.304 192> 32 96<-160 -2.304>
LayerCount: 2
Fore
SplineSet
160 192 m 1xc0
 128 -160 l 1
 32 -160 l 1xa0
 32 192 l 1
 160 192 l 1xc0
EndSplineSet
EndChar

StartChar: hyphen
Encoding: 45 45 20
Width: 544
GlyphClass: 2
Flags: W
HStem: 704 128<32 512>
VStem: 32 480<704 832>
LayerCount: 2
Fore
SplineSet
512 704 m 1
 32 704 l 1
 32 832 l 1
 512 832 l 1
 512 704 l 1
EndSplineSet
EndChar

StartChar: period
Encoding: 46 46 21
Width: 224
GlyphClass: 2
Flags: W
HStem: 0 160<32 192>
VStem: 32 160<0 160>
LayerCount: 2
Fore
SplineSet
192 160 m 1
 192 0 l 1
 32 0 l 1
 32 160 l 1
 192 160 l 1
EndSplineSet
EndChar

StartChar: slash
Encoding: 47 47 22
Width: 352
GlyphClass: 2
Flags: W
HStem: 0 21G<32 161.852> 1708 20G<190.148 320>
VStem: 32 128<0 128> 192 128<1600 1728>
DStem2: 32 0 160 0 0.0921982 0.995741<11.8014 1735.39>
LayerCount: 2
Fore
SplineSet
320 1728 m 1
 160 0 l 1
 32 0 l 1
 192 1728 l 1
 320 1728 l 1
EndSplineSet
EndChar

StartChar: zero
Encoding: 48 48 23
Width: 416
GlyphClass: 2
Flags: W
HStem: -32 120<169.402 246.598> 1640 120<169.402 246.598>
VStem: 32 128<106.567 1621.43> 256 128<106.567 1621.43>
LayerCount: 2
Fore
SplineSet
384 160 m 2
 384 128 379 100 369 76 c 0
 359 52 345.666666667 32 329 16 c 0
 312.333333333 0 293.5 -12 272.5 -20 c 0
 251.5 -28 230 -32 208 -32 c 256
 186 -32 164.5 -28 143.5 -20 c 0
 122.5 -12 103.666666667 0 87 16 c 0
 70.3333333333 32 57 52 47 76 c 0
 37 100 32 128 32 160 c 2
 32 1568 l 2
 32 1600 37 1628 47 1652 c 0
 57 1676 70.3333333333 1696 87 1712 c 0
 103.666666667 1728 122.5 1740 143.5 1748 c 0
 164.5 1756 186 1760 208 1760 c 256
 230 1760 251.5 1756 272.5 1748 c 0
 293.5 1740 312.333333333 1728 329 1712 c 0
 345.666666667 1696 359 1676 369 1652 c 0
 379 1628 384 1600 384 1568 c 2
 384 160 l 2
256 1568 m 2
 256 1592 251 1610 241 1622 c 0
 231 1634 220 1640 208 1640 c 256
 196 1640 185 1634 175 1622 c 0
 165 1610 160 1592 160 1568 c 2
 160 160 l 2
 160 136 165 118 175 106 c 0
 185 94 196 88 208 88 c 256
 220 88 231 94 241 106 c 0
 251 118 256 136 256 160 c 2
 256 1568 l 2
EndSplineSet
EndChar

StartChar: one
Encoding: 49 49 24
Width: 384
GlyphClass: 2
Flags: W
HStem: 0 96<32 128 256 352> 1632 96<32 128>
VStem: 32 224<1632 1728> 128 128<96 1632>
LayerCount: 2
Fore
SplineSet
32 96 m 1xe0
 128 96 l 1
 128 1632 l 1xd0
 32 1632 l 1
 32 1728 l 1
 256 1728 l 1xe0
 256 96 l 1xd0
 352 96 l 1
 352 0 l 1
 32 0 l 1
 32 96 l 1xe0
EndSplineSet
EndChar

StartChar: two
Encoding: 50 50 25
Width: 416
GlyphClass: 2
Flags: W
HStem: 0 96<160 384> 1664 96<166.285 249.715>
VStem: 32 128<1280 1663.54> 256 128<1258.33 1663.54>
DStem2: 32 0 160 96 0.145324 0.989384<113.582 1493.02 1518.82 1601.58>
LayerCount: 2
Fore
SplineSet
32 1568 m 2
 32 1610.66666667 40.6666666667 1646.16666667 58 1674.5 c 0
 75.3333333333 1702.83333333 97 1724.16666667 123 1738.5 c 0
 149 1752.83333333 177.333333333 1760 208 1760 c 0
 238.666666667 1760 267 1752.83333333 293 1738.5 c 0
 319 1724.16666667 340.666666667 1702.83333333 358 1674.5 c 0
 375.333333333 1646.16666667 384 1610.66666667 384 1568 c 0
 384 1548 383.833333333 1532.33333333 383.5 1521 c 0
 383.166666667 1509.66666667 382 1497.33333333 380 1484 c 0
 378 1470.66666667 375 1453.33333333 371 1432 c 0
 367 1410.66666667 361.333333333 1380.16666667 354 1340.5 c 0
 346.666666667 1300.83333333 337.5 1249.33333333 326.5 1186 c 0
 315.5 1122.66666667 302.333333333 1041.83333333 287 943.5 c 0
 271.666666667 845.166666667 253.5 726.666666667 232.5 588 c 0
 211.5 449.333333333 187.333333333 285.333333333 160 96 c 1
 384 96 l 1
 384 0 l 1
 32 0 l 1
 60.6666666667 200.666666667 86 375.333333333 108 524 c 0
 130 672.666666667 149 800.666666667 165 908 c 0
 181 1015.33333333 194.333333333 1104.5 205 1175.5 c 0
 215.666666667 1246.5 224.333333333 1304.33333333 231 1349 c 0
 237.666666667 1393.66666667 242.666666667 1428 246 1452 c 0
 249.333333333 1476 251.833333333 1494.66666667 253.5 1508 c 0
 255.166666667 1521.33333333 256 1531.66666667 256 1539 c 0
 256 1550 256 1550 256 1568 c 0
 256 1600 251 1624 241 1640 c 0
 231 1656 220 1664 208 1664 c 0
 196 1664 185 1656 175 1640 c 0
 165 1624 160 1600 160 1568 c 2
 160 1280 l 1
 32 1280 l 1
 32 1568 l 2
EndSplineSet
EndChar

StartChar: three
Encoding: 51 51 26
Width: 448
GlyphClass: 2
Flags: W
HStem: -32 96<166.245 249.755> 832 128<128 254.792> 1664 96<166.245 249.755>
VStem: 32 128<65.043 608 1152 1662.96> 256 128<65.043 830.876 961.124 1662.96>
LayerCount: 2
Fore
SplineSet
32 1568 m 2
 32 1600 37 1628 47 1652 c 0
 57 1676 70.3333333333 1696 87 1712 c 0
 103.666666667 1728 122.5 1740 143.5 1748 c 0
 164.5 1756 186 1760 208 1760 c 256
 230 1760 251.5 1756 272.5 1748 c 0
 293.5 1740 312.333333333 1728 329 1712 c 0
 345.666666667 1696 359 1676 369 1652 c 0
 379 1628 384 1600 384 1568 c 2
 384 1024 l 2
 384 1016 383.5 1006.33333333 382.5 995 c 0
 381.5 983.666666667 378 972 372 960 c 0
 366 948 356.5 936.333333333 343.5 925 c 0
 330.5 913.666666667 312 904 288 896 c 1
 312 888 330.5 878.333333333 343.5 867 c 0
 356.5 855.666666667 366 844 372 832 c 0
 378 820 381.5 808.333333333 382.5 797 c 0
 383.5 785.666666667 384 776 384 768 c 2
 384 160 l 2
 384 128 379 100 369 76 c 0
 359 52 345.666666667 32 329 16 c 0
 312.333333333 0 293.5 -12 272.5 -20 c 0
 251.5 -28 230 -32 208 -32 c 256
 186 -32 164.5 -28 143.5 -20 c 0
 122.5 -12 103.666666667 0 87 16 c 0
 70.3333333333 32 57 52 47 76 c 0
 37 100 32 128 32 160 c 2
 32 608 l 1
 160 608 l 1
 160 160 l 2
 160 128 165 104 175 88 c 0
 185 72 196 64 208 64 c 256
 220 64 231 72 241 88 c 0
 251 104 256 128 256 160 c 2
 256 768 l 2
 256 784 254.166666667 796.333333333 250.5 805 c 0
 246.833333333 813.666666667 242 820 236 824 c 0
 230 828 223.166666667 830.333333333 215.5 831 c 0
 207.833333333 831.666666667 200 832 192 832 c 2
 128 832 l 1
 128 960 l 1
 192 960 l 2
 200 960 207.833333333 960.333333333 215.5 961 c 0
 223.166666667 961.666666667 230 964 236 968 c 0
 242 972 246.833333333 978.5 250.5 987.5 c 0
 254.166666667 996.5 256 1009 256 1025 c 2
 256 1568 l 2
 256 1600 251 1624 241 1640 c 0
 231 1656 220 1664 208 1664 c 256
 196 1664 185 1656 175 1640 c 0
 165 1624 160 1600 160 1568 c 2
 160 1152 l 1
 32 1152 l 1
 32 1568 l 2
EndSplineSet
EndChar

StartChar: four
Encoding: 52 52 27
Width: 448
GlyphClass: 2
Flags: W
HStem: 0 21G<256 384> 352 118<160 256> 1708 20G<95.0698 224>
VStem: 32 352<352 660.224> 96 128<1446.21 1728> 256 128<0 352 470 1120>
LayerCount: 2
Fore
SplineSet
384 1120 m 1xec
 384 0 l 1
 256 0 l 1
 256 352 l 1xec
 32 352 l 1xf0
 96 1728 l 1
 224 1728 l 1
 160 470 l 1
 256 470 l 1
 256 1120 l 1
 384 1120 l 1xec
EndSplineSet
EndChar

StartChar: five
Encoding: 53 53 28
Width: 451
GlyphClass: 2
Flags: W
HStem: -32 96<198.245 281.755> 936 117<205.794 304.333> 1632 96<192 416>
VStem: 64 128<65.043 736 864 917.433 992 1632> 288 128<65.043 917.433>
LayerCount: 2
Fore
SplineSet
288 864 m 2
 288 888 283 906 273 918 c 0
 263 930 252 936 240 936 c 256
 228 936 217 930 207 918 c 0
 197 906 192 888 192 864 c 1
 64 864 l 1
 64 1728 l 1
 416 1728 l 1
 416 1632 l 1
 192 1632 l 1
 192 992 l 1
 204.666666667 1011.33333333 220.5 1026.33333333 239.5 1037 c 0
 258.5 1047.66666667 277.666666667 1053 297 1053 c 0
 311.666666667 1053 326.166666667 1049.5 340.5 1042.5 c 0
 354.833333333 1035.5 367.666666667 1024.33333333 379 1009 c 0
 390.333333333 993.666666667 399.333333333 974.166666667 406 950.5 c 0
 412.666666667 926.833333333 416 898 416 864 c 2
 416 160 l 2
 416 128 411 100 401 76 c 0
 391 52 377.666666667 32 361 16 c 0
 344.333333333 0 325.5 -12 304.5 -20 c 0
 283.5 -28 262 -32 240 -32 c 256
 218 -32 196.5 -28 175.5 -20 c 0
 154.5 -12 135.666666667 0 119 16 c 0
 102.333333333 32 89 52 79 76 c 0
 69 100 64 128 64 160 c 2
 64 736 l 1
 192 736 l 1
 192 160 l 2
 192 128 197 104 207 88 c 0
 217 72 228 64 240 64 c 256
 252 64 263 72 273 88 c 0
 283 104 288 128 288 160 c 2
 288 864 l 2
EndSplineSet
EndChar

StartChar: six
Encoding: 54 54 29
Width: 480
GlyphClass: 2
Flags: W
HStem: -32 120<201.402 278.598> 896 126<192.641 316> 1664 96<198.245 281.755>
VStem: 64 128<106.567 893.5 992 1662.96> 288 128<106.567 881.557 1216 1662.96>
LayerCount: 2
Fore
SplineSet
192 992 m 1
 211.333333333 1001.33333333 230 1008.66666667 248 1014 c 0
 266 1019.33333333 282.666666667 1022 298 1022 c 0
 334 1022 362.666666667 1007.16666667 384 977.5 c 0
 405.333333333 947.833333333 416 899.333333333 416 832 c 2
 416 160 l 2
 416 128 411 100 401 76 c 0
 391 52 377.666666667 32 361 16 c 0
 344.333333333 0 325.5 -12 304.5 -20 c 0
 283.5 -28 262 -32 240 -32 c 256
 218 -32 196.5 -28 175.5 -20 c 0
 154.5 -12 135.666666667 0 119 16 c 0
 102.333333333 32 89 52 79 76 c 0
 69 100 64 128 64 160 c 2
 64 1568 l 2
 64 1600 69 1628 79 1652 c 0
 89 1676 102.333333333 1696 119 1712 c 0
 135.666666667 1728 154.5 1740 175.5 1748 c 0
 196.5 1756 218 1760 240 1760 c 256
 262 1760 283.5 1756 304.5 1748 c 0
 325.5 1740 344.333333333 1728 361 1712 c 0
 377.666666667 1696 391 1676 401 1652 c 0
 411 1628 416 1600 416 1568 c 2
 416 1216 l 1
 288 1216 l 1
 288 1568 l 2
 288 1600 283 1624 273 1640 c 0
 263 1656 252 1664 240 1664 c 256
 228 1664 217 1656 207 1640 c 0
 197 1624 192 1600 192 1568 c 2
 192 992 l 1
288 832 m 2
 288 856 284.5 872.666666667 277.5 882 c 0
 270.5 891.333333333 262 896 252 896 c 256
 242 896 231.5 892.666666667 220.5 886 c 0
 209.5 879.333333333 200 872 192 864 c 1
 192 160 l 2
 192 136 197 118 207 106 c 0
 217 94 228 88 240 88 c 256
 252 88 263 94 273 106 c 0
 283 118 288 136 288 160 c 2
 288 832 l 2
EndSplineSet
EndChar

StartChar: seven
Encoding: 55 55 30
Width: 352
GlyphClass: 2
Flags: W
HStem: 0 21G<64 193.481> 1632 96<32 192>
VStem: 64 128<0 128>
DStem2: 64 0 192 0 0.0738717 0.997268<9.45558 1637>
LayerCount: 2
Fore
SplineSet
64 0 m 1
 192 1632 l 1
 32 1632 l 1
 32 1728 l 1
 320 1728 l 1
 192 0 l 1
 64 0 l 1
EndSplineSet
EndChar

StartChar: eight
Encoding: 56 56 31
Width: 437
GlyphClass: 2
Flags: W
HStem: -32 120<169.402 246.598> 1640 120<169.402 246.598>
VStem: 32 128<106.567 791.805 1050.32 1621.43> 256 128<106.567 791.805 1050.32 1621.43>
LayerCount: 2
Fore
SplineSet
208 -32 m 256
 186 -32 164.5 -28 143.5 -20 c 0
 122.5 -12 103.666666667 0 87 16 c 0
 70.3333333333 32 57 52 47 76 c 0
 37 100 32 128 32 160 c 2
 32 416 l 2
 32 504.666666667 37 581 47 645 c 0
 57 709 68 762 80 804 c 0
 94 853.333333333 110 894.666666667 128 928 c 1
 110 960.666666667 94 998 80 1040 c 0
 68 1076 57 1119.5 47 1170.5 c 0
 37 1221.5 32 1279.33333333 32 1344 c 2
 32 1568 l 2
 32 1600 37 1628 47 1652 c 0
 57 1676 70.3333333333 1696 87 1712 c 0
 103.666666667 1728 122.5 1740 143.5 1748 c 0
 164.5 1756 186 1760 208 1760 c 256
 230 1760 251.5 1756 272.5 1748 c 0
 293.5 1740 312.333333333 1728 329 1712 c 0
 345.666666667 1696 359 1676 369 1652 c 0
 379 1628 384 1600 384 1568 c 2
 384 1344 l 2
 384 1279.33333333 379 1221.5 369 1170.5 c 0
 359 1119.5 348 1076 336 1040 c 0
 322 998 306 960.666666667 288 928 c 1
 306 894.666666667 322 853.333333333 336 804 c 0
 348 762 359 709 369 645 c 0
 379 581 384 504.666666667 384 416 c 2
 384 160 l 2
 384 128 379 100 369 76 c 0
 359 52 345.666666667 32 329 16 c 0
 312.333333333 0 293.5 -12 272.5 -20 c 0
 251.5 -28 230 -32 208 -32 c 256
208 1640 m 256
 196 1640 185 1634 175 1622 c 0
 165 1610 160 1592 160 1568 c 2
 160 1312 l 2
 160 1280 162.5 1246.83333333 167.5 1212.5 c 0
 172.5 1178.16666667 178 1147 184 1119 c 0
 191.333333333 1086.33333333 199.666666667 1054.33333333 209 1023 c 1
 217 1054.33333333 224.666666667 1086.33333333 232 1119 c 0
 238 1147 243.5 1178.16666667 248.5 1212.5 c 0
 253.5 1246.83333333 256 1280 256 1312 c 2
 256 1568 l 2
 256 1592 251 1610 241 1622 c 0
 231 1634 220 1640 208 1640 c 256
209 832 m 1
 199.666666667 789.333333333 191.333333333 746 184 702 c 0
 178 664 172.5 622.5 167.5 577.5 c 0
 162.5 532.5 160 489.333333333 160 448 c 2
 160 160 l 2
 160 136 165 118 175 106 c 0
 185 94 196 88 208 88 c 256
 220 88 231 94 241 106 c 0
 251 118 256 136 256 160 c 2
 256 448 l 2
 256 489.333333333 253.5 532.5 248.5 577.5 c 0
 243.5 622.5 238 664 232 702 c 0
 224.666666667 746 217 789.333333333 209 832 c 1
EndSplineSet
EndChar

StartChar: nine
Encoding: 57 57 32
Width: 480
GlyphClass: 2
Flags: W
HStem: -32 96<198.245 281.755> 706 126<164 287.359> 1640 120<201.402 278.598>
VStem: 64 128<65.043 512 846.443 1621.43> 288 128<65.043 736 834.5 1621.43>
LayerCount: 2
Fore
SplineSet
288 736 m 1
 268.666666667 726.666666667 250 719.333333333 232 714 c 0
 214 708.666666667 197.333333333 706 182 706 c 0
 146 706 117.333333333 720.833333333 96 750.5 c 0
 74.6666666667 780.166666667 64 828.666666667 64 896 c 2
 64 1568 l 2
 64 1600 69 1628 79 1652 c 0
 89 1676 102.333333333 1696 119 1712 c 0
 135.666666667 1728 154.5 1740 175.5 1748 c 0
 196.5 1756 218 1760 240 1760 c 256
 262 1760 283.5 1756 304.5 1748 c 0
 325.5 1740 344.333333333 1728 361 1712 c 0
 377.666666667 1696 391 1676 401 1652 c 0
 411 1628 416 1600 416 1568 c 2
 416 160 l 2
 416 128 411 100 401 76 c 0
 391 52 377.666666667 32 361 16 c 0
 344.333333333 0 325.5 -12 304.5 -20 c 0
 283.5 -28 262 -32 240 -32 c 256
 218 -32 196.5 -28 175.5 -20 c 0
 154.5 -12 135.666666667 0 119 16 c 0
 102.333333333 32 89 52 79 76 c 0
 69 100 64 128 64 160 c 2
 64 512 l 1
 192 512 l 1
 192 160 l 2
 192 128 197 104 207 88 c 0
 217 72 228 64 240 64 c 256
 252 64 263 72 273 88 c 0
 283 104 288 128 288 160 c 2
 288 736 l 1
192 896 m 2
 192 872 195.5 855.333333333 202.5 846 c 0
 209.5 836.666666667 218 832 228 832 c 256
 238 832 248.5 835.333333333 259.5 842 c 0
 270.5 848.666666667 280 856 288 864 c 1
 288 1568 l 2
 288 1592 283 1610 273 1622 c 0
 263 1634 252 1640 240 1640 c 256
 228 1640 217 1634 207 1622 c 0
 197 1610 192 1592 192 1568 c 2
 192 896 l 2
EndSplineSet
EndChar

StartChar: colon
Encoding: 58 58 33
Width: 224
GlyphClass: 2
Flags: W
HStem: 288 160<32 192> 960 160<32 192>
VStem: 32 160<288 448 960 1120>
LayerCount: 2
Fore
SplineSet
192 1120 m 1
 192 960 l 1
 32 960 l 1
 32 1120 l 1
 192 1120 l 1
192 448 m 1
 192 288 l 1
 32 288 l 1
 32 448 l 1
 192 448 l 1
EndSplineSet
EndChar

StartChar: semicolon
Encoding: 59 59 34
Width: 224
GlyphClass: 2
Flags: W
HStem: 960 160<32 192>
VStem: 32 160<401.152 480 960 1120> 32 96<128 206.848>
LayerCount: 2
Fore
SplineSet
192 1120 m 1xc0
 192 960 l 1
 32 960 l 1
 32 1120 l 1
 192 1120 l 1xc0
192 480 m 1
 128 128 l 1
 32 128 l 1xa0
 32 480 l 1
 192 480 l 1
EndSplineSet
EndChar

StartChar: equal
Encoding: 61 61 36
Width: 576
GlyphClass: 2
Flags: W
HStem: 512 128<32 544> 736 128<32 544>
VStem: 32 512<512 640 736 864>
LayerCount: 2
Fore
SplineSet
544 512 m 1
 32 512 l 1
 32 640 l 1
 544 640 l 1
 544 512 l 1
544 736 m 1
 32 736 l 1
 32 864 l 1
 544 864 l 1
 544 736 l 1
EndSplineSet
EndChar

StartChar: greater
Encoding: 62 62 37
Width: 371
GlyphClass: 2
Flags: W
HStem: 0 21G<31 37.4612> 1741 20G<31 37.3955>
VStem: 31 283
LayerCount: 2
Fore
SplineSet
314 876 m 1
 31 0 l 1
 31 391 l 1
 178 876 l 1
 31 1393 l 1
 31 1761 l 1
 314 876 l 1
EndSplineSet
EndChar

StartChar: question
Encoding: 63 63 38
Width: 433
GlyphClass: 2
Flags: W
HStem: 0 128<128 256> 1655 105<170.401 245.598>
VStem: 32 128<1120 1632.82> 128 128<0 128 256 876.887> 256 128<1005.66 1632.82>
DStem2: 161 849 276 763 0.256574 0.966525<-296.026 535.629>
LayerCount: 2
Fore
SplineSet
256 256 m 1xd0
 128 256 l 1
 128 544 l 2xd0
 128 615.333333333 131.166666667 675 137.5 723 c 0
 143.833333333 771 151.666666667 813 161 849 c 0
 170.333333333 885 180.666666667 918.166666667 192 948.5 c 0
 203.333333333 978.833333333 213.666666667 1011.66666667 223 1047 c 0
 232.333333333 1082.33333333 240.166666667 1123.33333333 246.5 1170 c 0
 252.833333333 1216.66666667 256 1274.66666667 256 1344 c 2
 256 1568 l 2
 256 1597.33333333 251 1619.16666667 241 1633.5 c 0
 231 1647.83333333 219.666666667 1655 207 1655 c 0
 195.666666667 1655 185 1647.83333333 175 1633.5 c 0
 165 1619.16666667 160 1597.33333333 160 1568 c 2
 160 1120 l 1
 32 1120 l 1
 32 1568 l 2
 32 1600 37 1628 47 1652 c 0
 57 1676 70.3333333333 1696 87 1712 c 0
 103.666666667 1728 122.5 1740 143.5 1748 c 0
 164.5 1756 186 1760 208 1760 c 256
 230 1760 251.5 1756 272.5 1748 c 0
 293.5 1740 312.333333333 1728 329 1712 c 0
 345.666666667 1696 359 1676 369 1652 c 0
 379 1628 384 1600 384 1568 c 2
 384 1344 l 2xe8
 384 1288 382.166666667 1240 378.5 1200 c 0
 374.833333333 1160 370 1124.83333333 364 1094.5 c 0
 358 1064.16666667 351.166666667 1036.83333333 343.5 1012.5 c 0
 335.833333333 988.166666667 328 963.833333333 320 939.5 c 0
 312 915.166666667 304.166666667 889.166666667 296.5 861.5 c 0
 288.833333333 833.833333333 282 801 276 763 c 0
 270 725 265.166666667 680.666666667 261.5 630 c 0
 257.833333333 579.333333333 256 518.666666667 256 448 c 2
 256 256 l 1xd0
256 128 m 1
 256 0 l 1
 128 0 l 1
 128 128 l 1
 256 128 l 1
EndSplineSet
EndChar

StartChar: at
Encoding: 64 64 39
Width: 928
GlyphClass: 2
Flags: W
HStem: -158 95<366.453 704> 1448 102.5<431.469 496.531> 1640 120<305.79 622.21>
VStem: 64 128<95.2028 1527.96> 288 128<193.509 1429.43> 512 128<192.211 1429.43> 736 128<193.509 1527.96>
LayerCount: 2
Fore
SplineSet
640 288 m 2
 640 256 645 232 655 216 c 0
 665 200 676 192 688 192 c 0
 700 192 711 200 721 216 c 0
 731 232 736 256 736 288 c 2
 736 1376 l 2
 736 1420 728.166666667 1458.5 712.5 1491.5 c 0
 696.833333333 1524.5 676.333333333 1552 651 1574 c 0
 625.666666667 1596 596.666666667 1612.5 564 1623.5 c 0
 531.333333333 1634.5 498 1640 464 1640 c 0
 430 1640 396.666666667 1634.5 364 1623.5 c 0
 331.333333333 1612.5 302.333333333 1596 277 1574 c 0
 251.666666667 1552 231.166666667 1524.5 215.5 1491.5 c 0
 199.833333333 1458.5 192 1420 192 1376 c 2
 192 288 l 2
 192 228 200.166666667 177.5 216.5 136.5 c 0
 232.833333333 95.5 255 62 283 36 c 0
 311 10 343.333333333 -9.83333333333 380 -23.5 c 0
 416.666666667 -37.1666666667 455.166666667 -47 495.5 -53 c 0
 535.833333333 -59 576.666666667 -62.3333333333 618 -63 c 0
 659.333333333 -63.6666666667 698.666666667 -64 736 -64 c 1
 704 -160 l 1
 656 -160 606.833333333 -159.333333333 556.5 -158 c 0
 506.166666667 -156.666666667 457.333333333 -151.833333333 410 -143.5 c 0
 362.666666667 -135.166666667 318 -122 276 -104 c 0
 234 -86 197.333333333 -60.5 166 -27.5 c 0
 134.666666667 5.5 109.833333333 47.6666666667 91.5 99 c 0
 73.1666666667 150.333333333 64 213.333333333 64 288 c 2
 64 1376 l 2
 64 1440 75.5 1496 98.5 1544 c 0
 121.5 1592 151.666666667 1632 189 1664 c 0
 226.333333333 1696 269 1720 317 1736 c 0
 365 1752 414 1760 464 1760 c 0
 514 1760 563 1752 611 1736 c 0
 659 1720 701.666666667 1696 739 1664 c 0
 776.333333333 1632 806.5 1592 829.5 1544 c 0
 852.5 1496 864 1440 864 1376 c 2
 864 288 l 2
 864 245.333333333 857.666666667 209.666666667 845 181 c 0
 832.333333333 152.333333333 816.166666667 130 796.5 114 c 0
 776.833333333 98 755.333333333 88 732 84 c 0
 708.666666667 80 686.333333333 81.6666666667 665 89 c 0
 643.666666667 96.3333333333 624.833333333 108.666666667 608.5 126 c 0
 592.166666667 143.333333333 581.333333333 165.333333333 576 192 c 1
 570.666666667 165.333333333 559.833333333 143.333333333 543.5 126 c 0
 527.166666667 108.666666667 508.333333333 96.3333333333 487 89 c 0
 465.666666667 81.6666666667 443.333333333 80 420 84 c 0
 396.666666667 88 375.166666667 98 355.5 114 c 0
 335.833333333 130 319.666666667 152.333333333 307 181 c 0
 294.333333333 209.666666667 288 245.333333333 288 288 c 2
 288 1376 l 2
 288 1413.33333333 296.666666667 1444.83333333 314 1470.5 c 0
 331.333333333 1496.16666667 353 1515.66666667 379 1529 c 0
 405 1542.33333333 433.333333333 1549.5 464 1550.5 c 0
 494.666666667 1551.5 523 1545.83333333 549 1533.5 c 0
 575 1521.16666667 596.666666667 1501.83333333 614 1475.5 c 0
 631.333333333 1449.16666667 640 1416 640 1376 c 2
 640 288 l 2
512 1376 m 2
 512 1400 507 1418 497 1430 c 0
 487 1442 476 1448 464 1448 c 0
 452 1448 441 1442 431 1430 c 0
 421 1418 416 1400 416 1376 c 2
 416 288 l 2
 416 256 421 232 431 216 c 0
 441 200 452 192 464 192 c 0
 476 192 487 200 497 216 c 0
 507 232 512 256 512 288 c 2
 512 1376 l 2
EndSplineSet
EndChar

StartChar: A
Encoding: 65 65 40
Width: 448
GlyphClass: 2
Flags: W
HStem: 0 21G<32 160.817 287.231 416> 416 96<177 272> 1664 64<128 320>
VStem: 32 128<0 258.048> 288 128<0 258.048>
LayerCount: 2
Fore
SplineSet
416 0 m 1
 288 0 l 1
 272 416 l 1
 177 416 l 1
 160 0 l 1
 32 0 l 1
 128 1728 l 1
 320 1728 l 1
 416 0 l 1
256 896 m 1
 224 1664 l 1
 192 896 l 1
 177 512 l 1
 272 512 l 1
 256 896 l 1
EndSplineSet
EndChar

StartChar: B
Encoding: 66 66 41
Width: 512
GlyphClass: 2
Flags: W
HStem: 0 96<192 317.771> 864 96<192 306.296> 1632 96<192 318.199>
VStem: 64 128<96 864 960 1632> 320 128<99.8163 858.327 965.673 1628.18>
LayerCount: 2
Fore
SplineSet
448 160 m 2
 448 120 440.666666667 89.1666666667 426 67.5 c 0
 411.333333333 45.8333333333 392 30 368 20 c 0
 344 10 316.666666667 4.16666666667 286 2.5 c 0
 255.333333333 0.833333333333 224 0 192 0 c 2
 64 0 l 1
 64 1728 l 1
 192 1728 l 2
 232 1728 267.833333333 1727.16666667 299.5 1725.5 c 0
 331.166666667 1723.83333333 358 1718 380 1708 c 0
 402 1698 418.833333333 1682.16666667 430.5 1660.5 c 0
 442.166666667 1638.83333333 448 1608 448 1568 c 2
 448 1024 l 2
 448 992 440 967.333333333 424 950 c 0
 408 932.666666667 384 919.666666667 352 911 c 1
 384 903.666666667 408 891.333333333 424 874 c 0
 440 856.666666667 448 832 448 800 c 2
 448 160 l 2
192 960 m 1
 288 960 l 2
 296 960 302.166666667 961.833333333 306.5 965.5 c 0
 310.833333333 969.166666667 314 974 316 980 c 0
 318 986 319.166666667 992.833333333 319.5 1000.5 c 0
 319.833333333 1008.16666667 320 1016 320 1024 c 2
 320 1568 l 2
 320 1584 317.833333333 1596.33333333 313.5 1605 c 0
 309.166666667 1613.66666667 302 1620 292 1624 c 0
 282 1628 268.833333333 1630.33333333 252.5 1631 c 0
 236.166666667 1631.66666667 216 1632 192 1632 c 1
 192 960 l 1
320 800 m 2
 320 808 319.833333333 815.833333333 319.5 823.5 c 0
 319.166666667 831.166666667 318 838 316 844 c 0
 314 850 310.833333333 854.833333333 306.5 858.5 c 0
 302.166666667 862.166666667 296 864 288 864 c 2
 192 864 l 1
 192 96 l 1
 216 96 236.166666667 96.3333333333 252.5 97 c 0
 268.833333333 97.6666666667 282 100 292 104 c 0
 302 108 309.166666667 114.333333333 313.5 123 c 0
 317.833333333 131.666666667 320 144 320 160 c 2
 320 800 l 2
EndSplineSet
EndChar

StartChar: C
Encoding: 67 67 42
Width: 512
GlyphClass: 2
Flags: W
HStem: -32 96<197.202 314.798> 1647 96<195.916 315.567>
VStem: 64 128<66.3657 1644.33> 320 128<66.3657 832 1024 1643.99>
LayerCount: 2
Fore
SplineSet
448 1024 m 1
 320 1024 l 1
 320 1568 l 2
 320 1584 318.166666667 1597.16666667 314.5 1607.5 c 0
 310.833333333 1617.83333333 306 1625.83333333 300 1631.5 c 0
 294 1637.16666667 287.166666667 1641.16666667 279.5 1643.5 c 0
 271.833333333 1645.83333333 264 1647 256 1647 c 256
 248 1647 240.166666667 1645.83333333 232.5 1643.5 c 0
 224.833333333 1641.16666667 218 1637.16666667 212 1631.5 c 0
 206 1625.83333333 201.166666667 1617.83333333 197.5 1607.5 c 0
 193.833333333 1597.16666667 192 1584 192 1568 c 2
 192 160 l 2
 192 152 192.333333333 142.5 193 131.5 c 0
 193.666666667 120.5 196 110 200 100 c 0
 204 90 210.333333333 81.5 219 74.5 c 0
 227.666666667 67.5 240 64 256 64 c 256
 272 64 284.333333333 67.5 293 74.5 c 0
 301.666666667 81.5 308 90 312 100 c 0
 316 110 318.333333333 120.5 319 131.5 c 0
 319.666666667 142.5 320 152 320 160 c 2
 320 832 l 1
 448 832 l 1
 448 160 l 2
 448 152 447 137.5 445 116.5 c 0
 443 95.5 436 74 424 52 c 0
 412 30 393 10.5 367 -6.5 c 0
 341 -23.5 304 -32 256 -32 c 256
 208 -32 171 -23.5 145 -6.5 c 0
 119 10.5 100 30 88 52 c 0
 76 74 69 95.5 67 116.5 c 0
 65 137.5 64 152 64 160 c 2
 64 1568 l 2
 64 1598.66666667 69.6666666667 1625.16666667 81 1647.5 c 0
 92.3333333333 1669.83333333 107.166666667 1688 125.5 1702 c 0
 143.833333333 1716 164.333333333 1726.33333333 187 1733 c 0
 209.666666667 1739.66666667 232.666666667 1743 256 1743 c 0
 280.666666667 1743 304.5 1739.33333333 327.5 1732 c 0
 350.5 1724.66666667 371 1713.66666667 389 1699 c 0
 407 1684.33333333 421.333333333 1666 432 1644 c 0
 442.666666667 1622 448 1596.66666667 448 1568 c 2
 448 1024 l 1
EndSplineSet
EndChar

StartChar: D
Encoding: 68 68 43
Width: 512
GlyphClass: 2
Flags: W
HStem: 0 96<192 317.771> 1632 96<192 317.771>
VStem: 64 128<96 1632> 320 128<99.8163 1628.18>
LayerCount: 2
Fore
SplineSet
320 1568 m 2
 320 1584 317.833333333 1596.33333333 313.5 1605 c 0
 309.166666667 1613.66666667 302 1620 292 1624 c 0
 282 1628 268.833333333 1630.33333333 252.5 1631 c 0
 236.166666667 1631.66666667 216 1632 192 1632 c 1
 192 96 l 1
 216 96 236.166666667 96.3333333333 252.5 97 c 0
 268.833333333 97.6666666667 282 100 292 104 c 0
 302 108 309.166666667 114.333333333 313.5 123 c 0
 317.833333333 131.666666667 320 144 320 160 c 2
 320 1568 l 2
448 160 m 2
 448 120 440.666666667 89.1666666667 426 67.5 c 0
 411.333333333 45.8333333333 392 30 368 20 c 0
 344 10 316.666666667 4.16666666667 286 2.5 c 0
 255.333333333 0.833333333333 224 0 192 0 c 2
 64 0 l 1
 64 1728 l 1
 192 1728 l 2
 224 1728 255.333333333 1727.16666667 286 1725.5 c 0
 316.666666667 1723.83333333 344 1718 368 1708 c 0
 392 1698 411.333333333 1682.16666667 426 1660.5 c 0
 440.666666667 1638.83333333 448 1608 448 1568 c 2
 448 160 l 2
EndSplineSet
EndChar

StartChar: E
Encoding: 69 69 44
Width: 384
GlyphClass: 2
Flags: W
HStem: 0 96<192 352> 864 96<192 320> 1632 96<192 352>
VStem: 64 288<0 96 1632 1728> 64 128<96 864 960 1632>
LayerCount: 2
Fore
SplineSet
352 1632 m 1xf0
 192 1632 l 1
 192 960 l 1
 320 960 l 1
 320 864 l 1
 192 864 l 1
 192 96 l 1xe8
 352 96 l 1
 352 0 l 1
 64 0 l 1
 64 1728 l 1
 352 1728 l 1
 352 1632 l 1xf0
EndSplineSet
EndChar

StartChar: F
Encoding: 70 70 45
Width: 384
GlyphClass: 2
Flags: W
HStem: 0 21G<64 192> 896 96<192 320> 1632 96<192 352>
VStem: 64 128<0 896 992 1632>
LayerCount: 2
Fore
SplineSet
352 1632 m 1
 192 1632 l 1
 192 992 l 1
 320 992 l 1
 320 896 l 1
 192 896 l 1
 192 0 l 1
 64 0 l 1
 64 1728 l 1
 352 1728 l 1
 352 1632 l 1
EndSplineSet
EndChar

StartChar: G
Encoding: 71 71 46
Width: 512
GlyphClass: 2
Flags: W
HStem: -32 96<197.202 314.798> 800 96<288 320> 1647 96<194.392 317.608>
VStem: 64 128<66.3657 1645.36> 288 160<800 896> 320 128<66.3657 800 1024 1645.36>
LayerCount: 2
Fore
SplineSet
448 1024 m 1xf4
 320 1024 l 1
 320 1568 l 2
 320 1576 319.666666667 1584.66666667 319 1594 c 0
 318.333333333 1603.33333333 316 1611.83333333 312 1619.5 c 0
 308 1627.16666667 301.666666667 1633.66666667 293 1639 c 0
 284.333333333 1644.33333333 272 1647 256 1647 c 256
 240 1647 227.666666667 1644.33333333 219 1639 c 0
 210.333333333 1633.66666667 204 1627.16666667 200 1619.5 c 0
 196 1611.83333333 193.666666667 1603.33333333 193 1594 c 0
 192.333333333 1584.66666667 192 1576 192 1568 c 2
 192 160 l 2
 192 152 192.333333333 142.5 193 131.5 c 0
 193.666666667 120.5 196 110 200 100 c 0
 204 90 210.333333333 81.5 219 74.5 c 0
 227.666666667 67.5 240 64 256 64 c 256
 272 64 284.333333333 67.5 293 74.5 c 0
 301.666666667 81.5 308 90 312 100 c 0
 316 110 318.333333333 120.5 319 131.5 c 0
 319.666666667 142.5 320 152 320 160 c 2
 320 800 l 1xf4
 288 800 l 1
 288 896 l 1
 448 896 l 1xf8
 448 160 l 2
 448 152 447 137.5 445 116.5 c 0
 443 95.5 436 74 424 52 c 0
 412 30 393 10.5 367 -6.5 c 0
 341 -23.5 304 -32 256 -32 c 256
 208 -32 171 -23.5 145 -6.5 c 0
 119 10.5 100 30 88 52 c 0
 76 74 69 95.5 67 116.5 c 0
 65 137.5 64 152 64 160 c 2
 64 1568 l 2
 64 1573.33333333 64.3333333333 1581.33333333 65 1592 c 0
 65.6666666667 1602.66666667 67.6666666667 1614.5 71 1627.5 c 0
 74.3333333333 1640.5 80 1653.83333333 88 1667.5 c 0
 96 1681.16666667 107 1693.66666667 121 1705 c 0
 135 1716.33333333 153 1725.5 175 1732.5 c 0
 197 1739.5 224 1743 256 1743 c 256
 288 1743 315 1739.5 337 1732.5 c 0
 359 1725.5 377 1716.33333333 391 1705 c 0
 405 1693.66666667 416 1681.16666667 424 1667.5 c 0
 432 1653.83333333 437.666666667 1640.5 441 1627.5 c 0
 444.333333333 1614.5 446.333333333 1602.66666667 447 1592 c 0
 447.666666667 1581.33333333 448 1573.33333333 448 1568 c 2
 448 1024 l 1xf4
EndSplineSet
EndChar

StartChar: H
Encoding: 72 72 47
Width: 512
GlyphClass: 2
Flags: W
HStem: 0 21G<64 192 320 448> 832 96<192 320> 1708 20G<64 192 320 448>
VStem: 64 128<0 832 928 1728> 320 128<0 832 928 1728>
LayerCount: 2
Fore
SplineSet
192 928 m 1
 320 928 l 1
 320 1728 l 1
 448 1728 l 1
 448 0 l 1
 320 0 l 1
 320 832 l 1
 192 832 l 1
 192 0 l 1
 64 0 l 1
 64 1728 l 1
 192 1728 l 1
 192 928 l 1
EndSplineSet
EndChar

StartChar: I
Encoding: 73 73 48
Width: 256
GlyphClass: 2
Flags: W
HStem: 0 21G<64 192> 1708 20G<64 192>
VStem: 64 128<0 1728>
LayerCount: 2
Fore
SplineSet
192 1728 m 1
 192 0 l 1
 64 0 l 1
 64 1728 l 1
 192 1728 l 1
EndSplineSet
EndChar

StartChar: J
Encoding: 74 74 49
Width: 512
GlyphClass: 2
Flags: W
HStem: -32 96<197.305 314.695> 1708 20G<320 448>
VStem: 64 128<66.6367 832> 320 128<66.6367 1728>
LayerCount: 2
Fore
SplineSet
448 160 m 1
 446 124 438 92 424 64 c 0
 418 52 410.333333333 40.1666666667 401 28.5 c 0
 391.666666667 16.8333333333 380.333333333 6.5 367 -2.5 c 0
 353.666666667 -11.5 337.833333333 -18.6666666667 319.5 -24 c 0
 301.166666667 -29.3333333333 280 -32 256 -32 c 256
 232 -32 210.833333333 -29.3333333333 192.5 -24 c 0
 174.166666667 -18.6666666667 158.333333333 -11.5 145 -2.5 c 0
 131.666666667 6.5 120.333333333 16.8333333333 111 28.5 c 0
 101.666666667 40.1666666667 94 52 88 64 c 0
 74 92 66 124 64 160 c 1
 64 832 l 1
 192 832 l 1
 192 160 l 2
 192 152 192.333333333 142.5 193 131.5 c 0
 193.666666667 120.5 196 110 200 100 c 0
 204 90 210.333333333 81.5 219 74.5 c 0
 227.666666667 67.5 240 64 256 64 c 256
 272 64 284.333333333 67.5 293 74.5 c 0
 301.666666667 81.5 308 90 312 100 c 0
 316 110 318.333333333 120.5 319 131.5 c 0
 319.666666667 142.5 320 152 320 160 c 2
 320 1728 l 1
 448 1728 l 1
 448 160 l 1
EndSplineSet
EndChar

StartChar: K
Encoding: 75 75 50
Width: 480
GlyphClass: 2
Flags: W
HStem: 0 21G<64 192 317.037 448> 1708 20G<64 192 316.8 448>
VStem: 64 128<0 864 928 1728> 320 128<0 128 1600 1728>
DStem2: 192 928 320 992 0.157991 0.987441<0 810.175> 306 896 192 864 0.156529 -0.987673<13.7613 887.147>
LayerCount: 2
Fore
SplineSet
448 0 m 1
 320 0 l 1
 192 864 l 1
 192 0 l 1
 64 0 l 1
 64 1728 l 1
 192 1728 l 1
 192 928 l 1
 320 1728 l 1
 448 1728 l 1
 320 992 l 1
 306 896 l 1
 320 800 l 1
 448 0 l 1
EndSplineSet
EndChar

StartChar: L
Encoding: 76 76 51
Width: 384
GlyphClass: 2
Flags: W
HStem: 0 96<192 320> 1708 20G<64 192>
VStem: 64 128<96 1728>
LayerCount: 2
Fore
SplineSet
192 1728 m 1
 192 96 l 1
 320 96 l 1
 320 0 l 1
 64 0 l 1
 64 1728 l 1
 192 1728 l 1
EndSplineSet
EndChar

StartChar: M
Encoding: 77 77 52
Width: 640
GlyphClass: 2
Flags: W
HStem: 0 21G<64 192 448 576> 96 448<64 576> 1708 20G<95.6296 225.622 414.378 544.37>
VStem: 64 128<0 774.144> 96 96<953.856 1184> 448 128<0 774.144> 448 96<953.856 1184>
DStem2: 224 1728 192 1184 0.0808159 -0.996729<539.634 1187.89> 320 544 352 96 0.0808159 0.996729<0 648.251>
LayerCount: 2
Fore
SplineSet
416 1728 m 1xe8
 544 1728 l 1xea
 576 0 l 1
 448 0 l 1xe4
 448 1184 l 1
 352 96 l 1
 288 96 l 1
 192 1184 l 1xea
 192 0 l 1
 64 0 l 1xf0
 96 1728 l 1
 224 1728 l 1
 320 544 l 1
 416 1728 l 1xe8
EndSplineSet
EndChar

StartChar: N
Encoding: 78 78 53
Width: 512
GlyphClass: 2
Flags: W
HStem: 0 21G<64 160 317.5 448> 1708 20G<64 194.5 352 448>
VStem: 64 96<0 1280> 320 128<0 114.688> 352 96<448 1728>
DStem2: 192 1728 160 1280 0.124035 -0.992278<440.571 1289.96>
LayerCount: 2
Fore
SplineSet
448 0 m 1xf0
 320 0 l 1xf0
 160 1280 l 1
 160 0 l 1
 64 0 l 1
 64 1728 l 1
 192 1728 l 1
 352 448 l 1
 352 1728 l 1
 448 1728 l 1xe8
 448 0 l 1xf0
EndSplineSet
EndChar

StartChar: O
Encoding: 79 79 54
Width: 512
GlyphClass: 2
Flags: W
HStem: -32 96<197.202 314.798> 1647 96<194.392 317.608>
VStem: 64 128<66.3657 1645.36> 320 128<66.3657 1645.36>
LayerCount: 2
Fore
SplineSet
448 160 m 2
 448 152 447 137.5 445 116.5 c 0
 443 95.5 436 74 424 52 c 0
 412 30 393 10.5 367 -6.5 c 0
 341 -23.5 304 -32 256 -32 c 256
 208 -32 171 -23.5 145 -6.5 c 0
 119 10.5 100 30 88 52 c 0
 76 74 69 95.5 67 116.5 c 0
 65 137.5 64 152 64 160 c 2
 64 1568 l 2
 64 1573.33333333 64.3333333333 1581.33333333 65 1592 c 0
 65.6666666667 1602.66666667 67.6666666667 1614.5 71 1627.5 c 0
 74.3333333333 1640.5 80 1653.83333333 88 1667.5 c 0
 96 1681.16666667 107 1693.66666667 121 1705 c 0
 135 1716.33333333 153 1725.5 175 1732.5 c 0
 197 1739.5 224 1743 256 1743 c 256
 288 1743 315 1739.5 337 1732.5 c 0
 359 1725.5 377 1716.33333333 391 1705 c 0
 405 1693.66666667 416 1681.16666667 424 1667.5 c 0
 432 1653.83333333 437.666666667 1640.5 441 1627.5 c 0
 444.333333333 1614.5 446.333333333 1602.66666667 447 1592 c 0
 447.666666667 1581.33333333 448 1573.33333333 448 1568 c 2
 448 160 l 2
192 160 m 2
 192 152 192.333333333 142.5 193 131.5 c 0
 193.666666667 120.5 196 110 200 100 c 0
 204 90 210.333333333 81.5 219 74.5 c 0
 227.666666667 67.5 240 64 256 64 c 256
 272 64 284.333333333 67.5 293 74.5 c 0
 301.666666667 81.5 308 90 312 100 c 0
 316 110 318.333333333 120.5 319 131.5 c 0
 319.666666667 142.5 320 152 320 160 c 2
 320 1568 l 2
 320 1576 319.666666667 1584.66666667 319 1594 c 0
 318.333333333 1603.33333333 316 1611.83333333 312 1619.5 c 0
 308 1627.16666667 301.666666667 1633.66666667 293 1639 c 0
 284.333333333 1644.33333333 272 1647 256 1647 c 256
 240 1647 227.666666667 1644.33333333 219 1639 c 0
 210.333333333 1633.66666667 204 1627.16666667 200 1619.5 c 0
 196 1611.83333333 193.666666667 1603.33333333 193 1594 c 0
 192.333333333 1584.66666667 192 1576 192 1568 c 2
 192 160 l 2
EndSplineSet
EndChar

StartChar: P
Encoding: 80 80 55
Width: 480
GlyphClass: 2
Flags: W
HStem: 0 21G<64 192> 832 96<192 308.655> 1632 96<192 317.06>
VStem: 64 128<0 832 928 1632> 320 128<955.409 1628.64>
LayerCount: 2
Fore
SplineSet
448 992 m 2
 448 952 440.666666667 921.166666667 426 899.5 c 0
 411.333333333 877.833333333 392 862 368 852 c 0
 344 842 316.666666667 836.166666667 286 834.5 c 0
 255.333333333 832.833333333 224 832 192 832 c 1
 192 0 l 1
 64 0 l 1
 64 1728 l 1
 192 1728 l 2
 256 1728 305.333333333 1722.66666667 340 1712 c 0
 374.666666667 1701.33333333 400 1688 416 1672 c 0
 432 1656 441.333333333 1638.66666667 444 1620 c 0
 446.666666667 1601.33333333 448 1584 448 1568 c 2
 448 992 l 2
320 1568 m 2
 320 1584 317.833333333 1596.33333333 313.5 1605 c 0
 309.166666667 1613.66666667 302 1620 292 1624 c 0
 282 1628 268.833333333 1630.33333333 252.5 1631 c 0
 236.166666667 1631.66666667 216 1632 192 1632 c 1
 192 928 l 1
 208 928 223.666666667 928.333333333 239 929 c 0
 254.333333333 929.666666667 268 932 280 936 c 0
 292 940 301.666666667 946.333333333 309 955 c 0
 316.333333333 963.666666667 320 976 320 992 c 2
 320 1568 l 2
EndSplineSet
EndChar

StartChar: Q
Encoding: 81 81 56
Width: 512
GlyphClass: 2
Flags: W
HStem: -256 224<224 328.22> 0 64<201.826 310.174> 1647 96<194.392 317.608>
VStem: 64 128<66.3657 160 1592 1645.36> 224 128<-256 -128> 320 128<66.3657 160 1592 1645.36>
LayerCount: 2
Fore
SplineSet
192 0 m 1xf8
 320 0 l 1xf4
 352 -256 l 1
 224 -256 l 1
 192 0 l 1xf8
448 1568 m 2
 448 1573.33333333 447.666666667 1581.33333333 447 1592 c 0
 446.333333333 1602.66666667 444.333333333 1614.5 441 1627.5 c 0
 437.666666667 1640.5 432 1653.83333333 424 1667.5 c 0
 416 1681.16666667 405 1693.66666667 391 1705 c 0
 377 1716.33333333 359 1725.5 337 1732.5 c 0
 315 1739.5 288 1743 256 1743 c 256
 224 1743 197 1739.5 175 1732.5 c 0
 153 1725.5 135 1716.33333333 121 1705 c 0
 107 1693.66666667 96 1681.16666667 88 1667.5 c 0
 80 1653.83333333 74.3333333333 1640.5 71 1627.5 c 0
 67.6666666667 1614.5 65.6666666667 1602.66666667 65 1592 c 0
 64.3333333333 1581.33333333 64 1573.33333333 64 1568 c 2
 64 160 l 2
 64 152 65 137.5 67 116.5 c 0
 69 95.5 76 74 88 52 c 0
 100 30 119 10.5 145 -6.5 c 0
 171 -23.5 208 -32 256 -32 c 256
 304 -32 341 -23.5 367 -6.5 c 0
 393 10.5 412 30 424 52 c 0
 436 74 443 95.5 445 116.5 c 0
 447 137.5 448 152 448 160 c 2
 448 1568 l 2
192 1568 m 2
 192 1576 192.333333333 1584.66666667 193 1594 c 0
 193.666666667 1603.33333333 196 1611.83333333 200 1619.5 c 0
 204 1627.16666667 210.333333333 1633.66666667 219 1639 c 0
 227.666666667 1644.33333333 240 1647 256 1647 c 256
 272 1647 284.333333333 1644.33333333 293 1639 c 0
 301.666666667 1633.66666667 308 1627.16666667 312 1619.5 c 0
 316 1611.83333333 318.333333333 1603.33333333 319 1594 c 0
 319.666666667 1584.66666667 320 1576 320 1568 c 2
 320 160 l 2
 320 152 319.666666667 142.5 319 131.5 c 0
 318.333333333 120.5 316 110 312 100 c 0
 308 90 301.666666667 81.5 293 74.5 c 0
 284.333333333 67.5 272 64 256 64 c 256
 240 64 227.666666667 67.5 219 74.5 c 0
 210.333333333 81.5 204 90 200 100 c 0
 196 110 193.666666667 120.5 193 131.5 c 0
 192.333333333 142.5 192 152 192 160 c 2
 192 1568 l 2
EndSplineSet
EndChar

StartChar: R
Encoding: 82 82 57
Width: 512
GlyphClass: 2
Flags: W
HStem: 0 21G<64 192 320 448> 864 64<192 308.655> 1632 96<192 317.771>
VStem: 64 128<0 864 928 1632> 320 128<0 836.591 955.409 1628.18>
LayerCount: 2
Fore
SplineSet
448 1024 m 2
 448 976 440 942.666666667 424 924 c 0
 408 905.333333333 384 896 352 896 c 1
 368 896 382 892.333333333 394 885 c 0
 406 877.666666667 416 868 424 856 c 0
 432 844 438 830.333333333 442 815 c 0
 446 799.666666667 448 784 448 768 c 2
 448 0 l 1
 320 0 l 1
 320 800 l 2
 320 816 316.333333333 828.333333333 309 837 c 0
 301.666666667 845.666666667 292 852 280 856 c 0
 268 860 254.333333333 862.333333333 239 863 c 0
 223.666666667 863.666666667 208 864 192 864 c 1
 192 0 l 1
 64 0 l 1
 64 1728 l 1
 192 1728 l 2
 224 1728 255.333333333 1727.16666667 286 1725.5 c 0
 316.666666667 1723.83333333 344 1718 368 1708 c 0
 392 1698 411.333333333 1682.16666667 426 1660.5 c 0
 440.666666667 1638.83333333 448 1608 448 1568 c 2
 448 1024 l 2
320 1568 m 2
 320 1584 317.833333333 1596.33333333 313.5 1605 c 0
 309.166666667 1613.66666667 302 1620 292 1624 c 0
 282 1628 268.833333333 1630.33333333 252.5 1631 c 0
 236.166666667 1631.66666667 216 1632 192 1632 c 1
 192 928 l 1
 208 928 223.666666667 928.333333333 239 929 c 0
 254.333333333 929.666666667 268 932 280 936 c 0
 292 940 301.666666667 946.333333333 309 955 c 0
 316.333333333 963.666666667 320 976 320 992 c 2
 320 1568 l 2
EndSplineSet
EndChar

StartChar: S
Encoding: 83 83 58
Width: 448
GlyphClass: 2
Flags: W
HStem: -32 96<165.202 282.798> 1647 96<164.51 283.49>
VStem: 32 128<66.3657 736 1101.79 1643.91> 288 128<66.3657 749.232 1120 1643.91>
DStem2: 288 949 113 987 0.523476 -0.852041<-295.988 247.476>
LayerCount: 2
Fore
SplineSet
288 421 m 2
 288 491.666666667 284.333333333 552.333333333 277 603 c 0
 269.666666667 653.666666667 260 697.833333333 248 735.5 c 0
 236 773.166666667 222.333333333 806 207 834 c 0
 191.666666667 862 176 888.333333333 160 913 c 0
 144 937.666666667 128.333333333 962.333333333 113 987 c 0
 97.6666666667 1011.66666667 84 1039.66666667 72 1071 c 0
 60 1102.33333333 50.3333333333 1138.5 43 1179.5 c 0
 35.6666666667 1220.5 32 1269.66666667 32 1327 c 2
 32 1568 l 2
 32 1584 34.5 1602.16666667 39.5 1622.5 c 0
 44.5 1642.83333333 54 1661.83333333 68 1679.5 c 0
 82 1697.16666667 101.5 1712.16666667 126.5 1724.5 c 0
 151.5 1736.83333333 184 1743 224 1743 c 256
 264 1743 296.5 1736.83333333 321.5 1724.5 c 0
 346.5 1712.16666667 366 1697.16666667 380 1679.5 c 0
 394 1661.83333333 403.5 1642.83333333 408.5 1622.5 c 0
 413.5 1602.16666667 416 1584 416 1568 c 2
 416 1120 l 1
 288 1120 l 1
 288 1568 l 2
 288 1584 286.166666667 1597.16666667 282.5 1607.5 c 0
 278.833333333 1617.83333333 274 1625.83333333 268 1631.5 c 0
 262 1637.16666667 255.166666667 1641.16666667 247.5 1643.5 c 0
 239.833333333 1645.83333333 232 1647 224 1647 c 256
 216 1647 208.166666667 1645.83333333 200.5 1643.5 c 0
 192.833333333 1641.16666667 186 1637.16666667 180 1631.5 c 0
 174 1625.83333333 169.166666667 1617.83333333 165.5 1607.5 c 0
 161.833333333 1597.16666667 160 1584 160 1568 c 2
 160 1373 l 2
 160 1297.66666667 166.333333333 1234.66666667 179 1184 c 0
 191.666666667 1133.33333333 207.5 1089.16666667 226.5 1051.5 c 0
 245.5 1013.83333333 266 979.666666667 288 949 c 0
 310 918.333333333 330.5 885.166666667 349.5 849.5 c 0
 368.5 813.833333333 384.333333333 772.5 397 725.5 c 0
 409.666666667 678.5 416 620 416 550 c 2
 416 160 l 2
 416 152 415 137.5 413 116.5 c 0
 411 95.5 404 74 392 52 c 0
 380 30 361 10.5 335 -6.5 c 0
 309 -23.5 272 -32 224 -32 c 256
 176 -32 139 -23.5 113 -6.5 c 0
 87 10.5 68 30 56 52 c 0
 44 74 37 95.5 35 116.5 c 0
 33 137.5 32 152 32 160 c 2
 32 736 l 1
 160 736 l 1
 160 160 l 2
 160 152 160.333333333 142.5 161 131.5 c 0
 161.666666667 120.5 164 110 168 100 c 0
 172 90 178.333333333 81.5 187 74.5 c 0
 195.666666667 67.5 208 64 224 64 c 256
 240 64 252.333333333 67.5 261 74.5 c 0
 269.666666667 81.5 276 90 280 100 c 0
 284 110 286.333333333 120.5 287 131.5 c 0
 287.666666667 142.5 288 152 288 160 c 2
 288 421 l 2
EndSplineSet
EndChar

StartChar: T
Encoding: 84 84 59
Width: 448
GlyphClass: 2
Flags: W
HStem: 0 21G<160 288> 1632 96<32 160 288 416>
VStem: 160 128<0 1632>
LayerCount: 2
Fore
SplineSet
416 1728 m 1
 416 1632 l 1
 288 1632 l 1
 288 0 l 1
 160 0 l 1
 160 1632 l 1
 32 1632 l 1
 32 1728 l 1
 416 1728 l 1
EndSplineSet
EndChar

StartChar: U
Encoding: 85 85 60
Width: 512
GlyphClass: 2
Flags: W
HStem: -32 96<197.202 314.798> 1708 20G<64 192 320 448>
VStem: 64 128<66.3657 1728> 320 128<66.3657 1728>
LayerCount: 2
Fore
SplineSet
192 160 m 2
 192 152 192.333333333 142.5 193 131.5 c 0
 193.666666667 120.5 196 110 200 100 c 0
 204 90 210.333333333 81.5 219 74.5 c 0
 227.666666667 67.5 240 64 256 64 c 256
 272 64 284.333333333 67.5 293 74.5 c 0
 301.666666667 81.5 308 90 312 100 c 0
 316 110 318.333333333 120.5 319 131.5 c 0
 319.666666667 142.5 320 152 320 160 c 2
 320 1728 l 1
 448 1728 l 1
 448 160 l 2
 448 152 447 137.5 445 116.5 c 0
 443 95.5 436 74 424 52 c 0
 412 30 393 10.5 367 -6.5 c 0
 341 -23.5 304 -32 256 -32 c 256
 208 -32 171 -23.5 145 -6.5 c 0
 119 10.5 100 30 88 52 c 0
 76 74 69 95.5 67 116.5 c 0
 65 137.5 64 152 64 160 c 2
 64 1728 l 1
 192 1728 l 1
 192 160 l 2
EndSplineSet
EndChar

StartChar: V
Encoding: 86 86 61
Width: 448
GlyphClass: 2
Flags: W
HStem: 0 544<-112 560> 1708 20G<32 161.213 286.787 416>
VStem: 32 128<1600 1728> 288 128<1600 1728>
DStem2: 160 1728 32 1728 0.0738717 -0.997268<0 544.951> 255 1184 416 1728 0.0738717 0.997268<-640.541 544.951>
LayerCount: 2
Fore
SplineSet
193 1184 m 1
 224 544 l 1
 255 1184 l 1
 288 1728 l 1
 416 1728 l 1
 288 0 l 1
 160 0 l 1
 32 1728 l 1
 160 1728 l 1
 193 1184 l 1
EndSplineSet
EndChar

StartChar: W
Encoding: 87 87 62
Width: 704
GlyphClass: 2
Flags: W
HStem: 0 21G<126.889 257.29 446.71 577.111> 1472 256<160 544>
VStem: 32 128<1469.95 1728> 128 128<0 222.208> 448 128<0 222.208> 544 128<1469.95 1728>
DStem2: 192 512 320 992 0.0650791 0.99788<0 968.378> 416 1728 352 1472 0.0650791 -0.99788<251.292 1219.67>
LayerCount: 2
Fore
SplineSet
352 1472 m 1xc8
 320 992 l 1
 256 0 l 1
 128 0 l 1xd8
 32 1728 l 1
 160 1728 l 1
 192 512 l 1
 288 1728 l 1
 416 1728 l 1
 512 512 l 1
 544 1728 l 1
 672 1728 l 1xe4
 576 0 l 1
 448 0 l 1
 384 992 l 1
 352 1472 l 1xc8
EndSplineSet
EndChar

StartChar: X
Encoding: 88 88 63
Width: 416
GlyphClass: 2
Flags: W
HStem: 0 21G<32 161.429 254.571 384> 1708 20G<32 161.429 254.571 384>
VStem: 32 128<0 128 1600 1728> 256 128<0 128 1600 1728>
DStem2: 32 0 288 864 0.110432 0.993884<768.657 987.646> 128 864 192 448 0.110432 0.993884<-406.388 -150.187> 209 1024 288 864 0.110432 0.993884<0 641.144>
LayerCount: 2
Fore
SplineSet
192 1280 m 1
 209 1024 l 1
 224 1280 l 1
 256 1728 l 1
 384 1728 l 1
 288 864 l 1
 384 0 l 1
 256 0 l 1
 224 448 l 1
 208 704 l 1
 192 448 l 1
 160 0 l 1
 32 0 l 1
 128 864 l 1
 32 1728 l 1
 160 1728 l 1
 192 1280 l 1
EndSplineSet
EndChar

StartChar: Y
Encoding: 89 89 64
Width: 448
GlyphClass: 2
Flags: W
HStem: 0 21G<160 288> 1708 20G<32 161.429 286.571 416>
VStem: 32 128<1600 1728> 160 128<0 733.44> 288 128<1600 1728>
DStem2: 224 832 288 608 0.113547 0.993533<0 761.885>
LayerCount: 2
Fore
SplineSet
192 1280 m 1xe0
 224 832 l 1
 256 1280 l 1
 288 1728 l 1
 416 1728 l 1xe8
 288 608 l 1
 288 0 l 1
 160 0 l 1
 160 608 l 1xd0
 32 1728 l 1
 160 1728 l 1
 192 1280 l 1xe0
EndSplineSet
EndChar

StartChar: Z
Encoding: 90 90 65
Width: 352
GlyphClass: 2
Flags: W
HStem: 0 96<160 320> 1632 96<32 192>
VStem: 32 288<0 96 1632 1728>
DStem2: 32 0 160 96 0.0975714 0.995229<108.031 1639.82>
LayerCount: 2
Fore
SplineSet
320 1728 m 1
 160 96 l 1
 320 96 l 1
 320 0 l 1
 32 0 l 1
 192 1632 l 1
 32 1632 l 1
 32 1728 l 1
 320 1728 l 1
EndSplineSet
EndChar

StartChar: backslash
Encoding: 92 92 67
Width: 324
GlyphClass: 2
Flags: W
HStem: 0 21G<187.853 324> 1741 20G<1 137.147>
VStem: 1 134<1627 1761> 190 134<0 134>
DStem2: 135 1761 1 1761 0.106713 -0.99429<0 1756.81>
LayerCount: 2
Fore
SplineSet
135 1761 m 1
 324 0 l 1
 190 0 l 1
 1 1761 l 1
 135 1761 l 1
EndSplineSet
EndChar

StartChar: bracketright
Encoding: 93 93 68
Width: 392
GlyphClass: 2
Flags: W
HStem: -96 96<32 160> 1760 96<32 160>
VStem: 32 256<-96 0 1760 1856> 160 128<0 1760>
LayerCount: 2
Fore
SplineSet
288 1856 m 1xe0
 288 -96 l 1
 32 -96 l 1
 32 0 l 1xe0
 160 0 l 1
 160 1760 l 1xd0
 32 1760 l 1
 32 1856 l 1
 288 1856 l 1xe0
EndSplineSet
EndChar

StartChar: asciicircum
Encoding: 94 94 69
Width: 320
GlyphClass: 2
Flags: W
HStem: 1024 96<96 224>
VStem: 32 256
LayerCount: 2
Fore
SplineSet
224 1120 m 1
 288 768 l 1
 192 768 l 1
 160 1024 l 1
 128 768 l 1
 32 768 l 1
 96 1120 l 1
 224 1120 l 1
EndSplineSet
EndChar

StartChar: underscore
Encoding: 95 95 70
Width: 544
GlyphClass: 2
Flags: W
HStem: -96 96<0 544>
VStem: 0 544<-96 0>
LayerCount: 2
Fore
SplineSet
544 -96 m 1
 0 -96 l 1
 0 0 l 1
 544 0 l 1
 544 -96 l 1
EndSplineSet
EndChar

StartChar: grave
Encoding: 96 96 71
Width: 326
GlyphClass: 2
Flags: W
HStem: 96 416
VStem: 0 288
LayerCount: 2
Fore
SplineSet
160 512 m 1
 288 96 l 1
 192 96 l 1
 0 512 l 1
 160 512 l 1
EndSplineSet
EndChar

StartChar: a
Encoding: 97 97 72
Width: 448
GlyphClass: 2
Flags: W
HStem: 0 21G<32 161.145 286.795 416> 332 104<186 261> 1216 320<0 448>
VStem: 32 128<0 128> 288 128<0 128>
DStem2: 32 0 160 0 0.0830455 0.996546<10.6298 343.061> 416 0 268 332 0.0830455 -0.996546<-343.144 -10.6298>
LayerCount: 2
Fore
SplineSet
416 0 m 1
 288 0 l 1
 268 332 l 1
 179 332 l 1
 160 0 l 1
 32 0 l 1
 160 1536 l 1
 288 1536 l 1
 416 0 l 1
261 436 m 1
 224 1216 l 1
 186 436 l 1
 261 436 l 1
EndSplineSet
EndChar

StartChar: b
Encoding: 98 98 73
Width: 512
GlyphClass: 2
Flags: W
HStem: 0 96<192 308.139> 736 96<192 306.296> 1440 96<192 318.199>
VStem: 64 128<96 736 832 1440> 320 128<122.409 730.327 837.673 1436.18>
LayerCount: 2
Fore
SplineSet
192 832 m 1
 288 832 l 2
 296 832 302.166666667 833.833333333 306.5 837.5 c 0
 310.833333333 841.166666667 314 846 316 852 c 0
 318 858 319.166666667 864.833333333 319.5 872.5 c 0
 319.833333333 880.166666667 320 888 320 896 c 2
 320 1376 l 2
 320 1392 317.833333333 1404.33333333 313.5 1413 c 0
 309.166666667 1421.66666667 302 1428 292 1432 c 0
 282 1436 268.833333333 1438.33333333 252.5 1439 c 0
 236.166666667 1439.66666667 216 1440 192 1440 c 1
 192 832 l 1
320 672 m 2
 320 680 319.833333333 687.833333333 319.5 695.5 c 0
 319.166666667 703.166666667 318 710 316 716 c 0
 314 722 310.833333333 726.833333333 306.5 730.5 c 0
 302.166666667 734.166666667 296 736 288 736 c 2
 192 736 l 1
 192 96 l 1
 206.666666667 96 221.666666667 96.3333333333 237 97 c 0
 252.333333333 97.6666666667 266.166666667 99.8333333333 278.5 103.5 c 0
 290.833333333 107.166666667 300.833333333 113.333333333 308.5 122 c 0
 316.166666667 130.666666667 320 143.333333333 320 160 c 2
 320 672 l 2
448 896 m 2
 448 864 439.666666667 839.333333333 423 822 c 0
 406.333333333 804.666666667 379.666666667 791.666666667 343 783 c 1
 379.666666667 775.666666667 406.333333333 763.333333333 423 746 c 0
 439.666666667 728.666666667 448 704 448 672 c 2
 448 160 l 2
 448 120 440.666666667 89.1666666667 426 67.5 c 0
 411.333333333 45.8333333333 392 30 368 20 c 0
 344 10 316.666666667 4.16666666667 286 2.5 c 0
 255.333333333 0.833333333333 224 0 192 0 c 2
 64 0 l 1
 64 1536 l 1
 192 1536 l 2
 232 1536 267.833333333 1535.16666667 299.5 1533.5 c 0
 331.166666667 1531.83333333 358 1526 380 1516 c 0
 402 1506 418.833333333 1490.16666667 430.5 1468.5 c 0
 442.166666667 1446.83333333 448 1416 448 1376 c 2
 448 896 l 2
EndSplineSet
EndChar

StartChar: c
Encoding: 99 99 74
Width: 512
GlyphClass: 2
Flags: W
HStem: -19 99<195.552 309.9> 1455 100<195.072 302.468>
VStem: 64 128<85.3239 1449.01> 320 128<95.4734 704 896 1440.04>
LayerCount: 2
Fore
SplineSet
448 896 m 1
 320 896 l 1
 320 1392 l 2
 320 1414.66666667 314.333333333 1430.83333333 303 1440.5 c 0
 291.666666667 1450.16666667 278.666666667 1455 264 1455 c 0
 255.333333333 1455 246.833333333 1453.5 238.5 1450.5 c 0
 230.166666667 1447.5 222.5 1443.16666667 215.5 1437.5 c 0
 208.5 1431.83333333 202.833333333 1425.16666667 198.5 1417.5 c 0
 194.166666667 1409.83333333 192 1401.33333333 192 1392 c 2
 192 144 l 2
 192 134.666666667 194.166666667 126 198.5 118 c 0
 202.833333333 110 208.5 103.166666667 215.5 97.5 c 0
 222.5 91.8333333333 230.166666667 87.5 238.5 84.5 c 0
 246.833333333 81.5 255.333333333 80 264 80 c 0
 278.666666667 80 291.666666667 85 303 95 c 0
 314.333333333 105 320 121.333333333 320 144 c 2
 320 704 l 1
 448 704 l 1
 448 144 l 2
 448 117.333333333 442.333333333 93.8333333333 431 73.5 c 0
 419.666666667 53.1666666667 405 36.1666666667 387 22.5 c 0
 369 8.83333333333 348.333333333 -1.5 325 -8.5 c 0
 301.666666667 -15.5 278 -19 254 -19 c 256
 230 -19 206.666666667 -15.6666666667 184 -9 c 0
 161.333333333 -2.33333333333 141 7.83333333333 123 21.5 c 0
 105 35.1666666667 90.6666666667 52.1666666667 80 72.5 c 0
 69.3333333333 92.8333333333 64 116.666666667 64 144 c 2
 64 1392 l 2
 64 1418.66666667 69.5 1442.33333333 80.5 1463 c 0
 91.5 1483.66666667 106 1500.66666667 124 1514 c 0
 142 1527.33333333 162.666666667 1537.5 186 1544.5 c 0
 209.333333333 1551.5 233 1555 257 1555 c 256
 281 1555 304.333333333 1551.66666667 327 1545 c 0
 349.666666667 1538.33333333 370 1528.16666667 388 1514.5 c 0
 406 1500.83333333 420.5 1483.83333333 431.5 1463.5 c 0
 442.5 1443.16666667 448 1419.33333333 448 1392 c 2
 448 896 l 1
EndSplineSet
EndChar

StartChar: d
Encoding: 100 100 75
Width: 512
GlyphClass: 2
Flags: W
HStem: 1 95<192 319.358> 1440 94<192 301.45>
VStem: 64 128<96 1440> 320 128<102.191 1433.84>
LayerCount: 2
Fore
SplineSet
320 1410 m 2
 320 1422.66666667 314 1430.66666667 302 1434 c 1
 290.666666667 1438 254 1440 192 1440 c 1
 192 96 l 1
 254 96 290.666666667 98 302 102 c 0
 314 106 320 114.333333333 320 127 c 2
 320 1410 l 2
448 135 m 2
 448 101 440.833333333 74.8333333333 426.5 56.5 c 0
 412.166666667 38.1666666667 391 24.6666666667 363 16 c 0
 349.666666667 12 333.333333333 8.83333333333 314 6.5 c 0
 294.666666667 4.16666666667 268 2.33333333333 234 1 c 0
 200 0.333333333333 169.833333333 0 143.5 0 c 0
 104 0 104 0 64 0 c 1
 64 1536 l 1
 91.3333333333 1536 118.833333333 1535.83333333 146.5 1535.5 c 0
 174.166666667 1535.16666667 202.333333333 1534.66666667 231 1534 c 0
 289.666666667 1532.66666667 333 1528.33333333 361 1521 c 0
 389.666666667 1513 411.333333333 1500.16666667 426 1482.5 c 0
 440.666666667 1464.83333333 448 1439.66666667 448 1407 c 2
 448 135 l 2
EndSplineSet
EndChar

StartChar: e
Encoding: 101 101 76
Width: 352
GlyphClass: 2
Flags: W
HStem: 0 96<192 320> 768 96<192 320> 1440 96<192 320>
VStem: 64 256<0 96 768 864 1440 1536> 64 128<96 768 864 1440>
LayerCount: 2
Fore
SplineSet
320 1440 m 1xf0
 192 1440 l 1
 192 864 l 1xe8
 320 864 l 1
 320 768 l 1xf0
 192 768 l 1
 192 96 l 1xe8
 320 96 l 1
 320 0 l 1
 64 0 l 1
 64 1536 l 1
 320 1536 l 1
 320 1440 l 1xf0
EndSplineSet
EndChar

StartChar: f
Encoding: 102 102 77
Width: 384
GlyphClass: 2
Flags: W
HStem: 0 21G<64 192> 768 96<192 320> 1440 96<192 352>
VStem: 64 128<0 768 864 1440>
LayerCount: 2
Fore
SplineSet
352 1440 m 1
 192 1440 l 1
 192 864 l 1
 320 864 l 1
 320 768 l 1
 192 768 l 1
 192 0 l 1
 64 0 l 1
 64 1536 l 1
 352 1536 l 1
 352 1440 l 1
EndSplineSet
EndChar

StartChar: g
Encoding: 103 103 78
Width: 480
GlyphClass: 2
Flags: W
HStem: -16 96<200.403 279.597> 672 96<256 288> 1472 96<200.403 279.597>
VStem: 64 128<94.4429 1458.07> 256 160<672 768> 288 128<94.4429 672 896 1458.07>
LayerCount: 2
Fore
SplineSet
192 144 m 2xf4
 192 120 197 103.333333333 207 94 c 0
 217 84.6666666667 228 80 240 80 c 256
 252 80 263 84.6666666667 273 94 c 0
 283 103.333333333 288 120 288 144 c 2
 288 672 l 1xf4
 256 672 l 1
 256 768 l 1
 416 768 l 1xf8
 416 144 l 2
 416 116 411 91.8333333333 401 71.5 c 0
 391 51.1666666667 377.666666667 34.5 361 21.5 c 0
 344.333333333 8.5 325.5 -1 304.5 -7 c 0
 283.5 -13 262 -16 240 -16 c 256
 218 -16 196.5 -13 175.5 -7 c 0
 154.5 -1 135.666666667 8.5 119 21.5 c 0
 102.333333333 34.5 89 51.1666666667 79 71.5 c 0
 69 91.8333333333 64 116 64 144 c 2
 64 1408 l 2
 64 1436 69 1460.16666667 79 1480.5 c 0
 89 1500.83333333 102.333333333 1517.5 119 1530.5 c 0
 135.666666667 1543.5 154.5 1553 175.5 1559 c 0
 196.5 1565 218 1568 240 1568 c 256
 262 1568 283.5 1565 304.5 1559 c 0
 325.5 1553 344.333333333 1543.5 361 1530.5 c 0
 377.666666667 1517.5 391 1501 401 1481 c 0
 411 1461 416 1437 416 1409 c 2
 416 896 l 1
 288 896 l 1
 288 1409 l 2
 288 1433 283 1449.5 273 1458.5 c 0
 263 1467.5 252 1472 240 1472 c 256
 228 1472 217 1467.5 207 1458.5 c 0
 197 1449.5 192 1433 192 1409 c 2
 192 144 l 2xf4
EndSplineSet
EndChar

StartChar: h
Encoding: 104 104 79
Width: 512
GlyphClass: 2
Flags: W
HStem: 0 21G<64 192 320 448> 746 100<192 320> 1516 20G<64 192 320 448> 1516 20G<64 192 320 448>
VStem: 64 128<0 746 846 1536> 320 128<0 746 846 1536>
LayerCount: 2
Fore
SplineSet
320 1536 m 1xec
 448 1536 l 1
 448 0 l 1
 320 0 l 1
 320 746 l 1
 192 746 l 1
 192 0 l 1
 64 0 l 1
 64 1536 l 1
 192 1536 l 1
 192 846 l 1
 320 846 l 1
 320 1536 l 1xec
EndSplineSet
EndChar

StartChar: i
Encoding: 105 105 80
Width: 320
GlyphClass: 2
Flags: W
HStem: 0 21G<64 192> 1516 20G<64 192> 1516 20G<64 192>
VStem: 64 128<0 1536>
LayerCount: 2
Fore
SplineSet
192 1536 m 1xd0
 192 0 l 1
 64 0 l 1
 64 1536 l 1
 192 1536 l 1xd0
EndSplineSet
EndChar

StartChar: j
Encoding: 106 106 81
Width: 544
GlyphClass: 2
Flags: W
HStem: -16 96<264.403 343.597> 1516 20G<352 480> 1516 20G<352 480>
VStem: 128 128<94.4429 704> 352 128<94.4429 1536>
LayerCount: 2
Fore
SplineSet
480 144 m 2xd8
 480 116 475 91.8333333333 465 71.5 c 0
 455 51.1666666667 441.666666667 34.5 425 21.5 c 0
 408.333333333 8.5 389.5 -1 368.5 -7 c 0
 347.5 -13 326 -16 304 -16 c 256
 282 -16 260.5 -13 239.5 -7 c 0
 218.5 -1 199.666666667 8.5 183 21.5 c 0
 166.333333333 34.5 153 51.1666666667 143 71.5 c 0
 133 91.8333333333 128 116 128 144 c 2
 128 704 l 1
 256 704 l 1
 256 144 l 2
 256 120 261 103.333333333 271 94 c 0
 281 84.6666666667 292 80 304 80 c 256
 316 80 327 84.6666666667 337 94 c 0
 347 103.333333333 352 120 352 144 c 2
 352 1536 l 1
 480 1536 l 1
 480 144 l 2xd8
EndSplineSet
EndChar

StartChar: k
Encoding: 107 107 82
Width: 512
GlyphClass: 2
Flags: W
HStem: 0 21G<64 192 285.273 416> 1516 20G<64 192 285.273 416> 1516 20G<64 192 285.273 416>
VStem: 64 128<0 704 832 1536> 288 128<0 128 1408 1536>
DStem2: 305 768 192 704 0.143045 -0.989716<47.1778 757.67>
LayerCount: 2
Fore
SplineSet
416 0 m 1xd8
 288 0 l 1
 192 704 l 1
 192 0 l 1
 64 0 l 1
 64 1536 l 1
 192 1536 l 1
 192 832 l 1
 288 1536 l 1
 416 1536 l 1
 305 768 l 1
 416 0 l 1xd8
EndSplineSet
EndChar

StartChar: l
Encoding: 108 108 83
Width: 320
GlyphClass: 2
Flags: W
HStem: 0 96<192 320> 1516 20G<64 192> 1516 20G<64 192>
VStem: 64 128<96 1536>
LayerCount: 2
Fore
SplineSet
192 1536 m 1xd0
 192 96 l 1
 320 96 l 1
 320 0 l 1
 64 0 l 1
 64 1536 l 1
 192 1536 l 1xd0
EndSplineSet
EndChar

StartChar: m
Encoding: 109 109 84
Width: 576
GlyphClass: 2
Flags: W
HStem: 0 21G<64 176 400 512> 64 544<-9 585> 1516 20G<64 179.392 396.608 512> 1516 20G<64 179.392 396.608 512>
VStem: 64 112<0 928 1417.22 1536> 400 112<0 928 1417.22 1536>
DStem2: 288 608 176 928 0.118765 -0.992922<-331.037 0> 288 608 400 928 0.118765 0.992922<0 331.037>
LayerCount: 2
Fore
SplineSet
399 1536 m 1xec
 512 1536 l 1
 512 0 l 1
 400 0 l 1
 400 928 l 1
 313 64 l 1
 263 64 l 1
 176 928 l 1
 176 0 l 1
 64 0 l 1
 64 1536 l 1
 177 1536 l 1
 288 608 l 1
 399 1536 l 1xec
EndSplineSet
EndChar

StartChar: n
Encoding: 110 110 85
Width: 512
GlyphClass: 2
Flags: W
HStem: 0 21G<64 176 348.071 448> 1516 20G<64 163.815 337 448> 1516 20G<64 163.815 337 448>
VStem: 64 112<0 896> 64 96<1460.84 1536> 337 111<608 1536> 352 96<0 72.9833>
DStem2: 337 608 176 896 0.187355 -0.982292<-313.064 0>
LayerCount: 2
Fore
SplineSet
448 0 m 1xc2
 352 0 l 1
 176 896 l 1
 176 0 l 1
 64 0 l 1xd2
 64 1536 l 1
 160 1536 l 1
 337 608 l 1
 337 1536 l 1
 448 1536 l 1xcc
 448 0 l 1xc2
EndSplineSet
EndChar

StartChar: o
Encoding: 111 111 86
Width: 512
GlyphClass: 2
Flags: W
HStem: -18 99<195.072 302.468> 1455 95<195.072 302.983>
VStem: 64 128<86.2363 1449.11> 320 128<95.9579 1440.04>
LayerCount: 2
Fore
SplineSet
448 144 m 2
 448 116 442.833333333 91.8333333333 432.5 71.5 c 0
 422.166666667 51.1666666667 408.333333333 34.3333333333 391 21 c 0
 373.666666667 7.66666666667 354 -2.16666666667 332 -8.5 c 0
 310 -14.8333333333 287.333333333 -18 264 -18 c 0
 239.333333333 -18 215 -14.5 191 -7.5 c 0
 167 -0.5 145.666666667 9.83333333333 127 23.5 c 0
 108.333333333 37.1666666667 93.1666666667 54.1666666667 81.5 74.5 c 0
 69.8333333333 94.8333333333 64 118 64 144 c 2
 64 1392 l 2
 64 1417.33333333 69.8333333333 1439.83333333 81.5 1459.5 c 0
 93.1666666667 1479.16666667 108.5 1495.66666667 127.5 1509 c 0
 146.5 1522.33333333 168 1532.5 192 1539.5 c 0
 216 1546.5 240.333333333 1550 265 1550 c 0
 288.333333333 1550 311 1546.83333333 333 1540.5 c 0
 355 1534.16666667 374.5 1524.5 391.5 1511.5 c 0
 408.5 1498.5 422.166666667 1482 432.5 1462 c 0
 442.833333333 1442 448 1418.66666667 448 1392 c 2
 448 144 l 2
320 1392 m 2
 320 1414.66666667 314.5 1430.83333333 303.5 1440.5 c 0
 292.5 1450.16666667 279.666666667 1455 265 1455 c 0
 256.333333333 1455 247.666666667 1453.5 239 1450.5 c 0
 230.333333333 1447.5 222.5 1443.16666667 215.5 1437.5 c 0
 208.5 1431.83333333 202.833333333 1425.16666667 198.5 1417.5 c 0
 194.166666667 1409.83333333 192 1401.33333333 192 1392 c 2
 192 144 l 2
 192 134.666666667 194.166666667 126 198.5 118 c 0
 202.833333333 110 208.5 103.333333333 215.5 98 c 0
 222.5 92.6666666667 230.166666667 88.5 238.5 85.5 c 0
 246.833333333 82.5 255.333333333 81 264 81 c 0
 278.666666667 81 291.666666667 85.8333333333 303 95.5 c 0
 314.333333333 105.166666667 320 121.333333333 320 144 c 2
 320 1392 l 2
EndSplineSet
EndChar

StartChar: p
Encoding: 112 112 87
Width: 576
GlyphClass: 2
Flags: W
HStem: 0 21G<64 192> 704 96<192 311.084> 1440 96<192 318.551>
VStem: 64 128<0 704 800 1440> 320 128<810.875 1436.64>
LayerCount: 2
Fore
SplineSet
448 864 m 2
 448 824 440.666666667 793.166666667 426 771.5 c 0
 411.333333333 749.833333333 392 734 368 724 c 0
 344 714 316.666666667 708.166666667 286 706.5 c 0
 255.333333333 704.833333333 224 704 192 704 c 1
 192 0 l 1
 64 0 l 1
 64 1536 l 1
 224 1536 l 2
 280.666666667 1536 324.166666667 1530.66666667 354.5 1520 c 0
 384.833333333 1509.33333333 407 1496 421 1480 c 0
 435 1464 443 1446.66666667 445 1428 c 0
 447 1409.33333333 448 1392 448 1376 c 2
 448 864 l 2
320 1376 m 2
 320 1392 317.833333333 1404.33333333 313.5 1413 c 0
 309.166666667 1421.66666667 302 1428 292 1432 c 0
 282 1436 268.833333333 1438.33333333 252.5 1439 c 0
 236.166666667 1439.66666667 216 1440 192 1440 c 1
 192 800 l 1
 208 800 223.666666667 800.5 239 801.5 c 0
 254.333333333 802.5 268 806 280 812 c 0
 292 818 301.666666667 827.5 309 840.5 c 0
 316.333333333 853.5 320 872 320 896 c 2
 320 1376 l 2
EndSplineSet
EndChar

StartChar: q
Encoding: 113 113 88
Width: 512
GlyphClass: 2
Flags: W
HStem: -18 82<239.333 287.333> 1455 95<195.072 302.983>
VStem: 64 128<86.2363 1449.11> 256 128<-192 -64> 320 128<95.9579 1440.04>
LayerCount: 2
Fore
SplineSet
192 64 m 1xf0
 320 64 l 1xe8
 384 -192 l 1
 256 -192 l 1
 192 64 l 1xf0
448 144 m 2
 448 116 442.833333333 91.8333333333 432.5 71.5 c 0
 422.166666667 51.1666666667 408.333333333 34.3333333333 391 21 c 0
 373.666666667 7.66666666667 354 -2.16666666667 332 -8.5 c 0
 310 -14.8333333333 287.333333333 -18 264 -18 c 0
 239.333333333 -18 215 -14.5 191 -7.5 c 0
 167 -0.5 145.666666667 9.83333333333 127 23.5 c 0
 108.333333333 37.1666666667 93.1666666667 54.1666666667 81.5 74.5 c 0
 69.8333333333 94.8333333333 64 118 64 144 c 2
 64 1392 l 2
 64 1417.33333333 69.8333333333 1439.83333333 81.5 1459.5 c 0
 93.1666666667 1479.16666667 108.5 1495.66666667 127.5 1509 c 0
 146.5 1522.33333333 168 1532.5 192 1539.5 c 0
 216 1546.5 240.333333333 1550 265 1550 c 0
 288.333333333 1550 311 1546.83333333 333 1540.5 c 0
 355 1534.16666667 374.5 1524.5 391.5 1511.5 c 0
 408.5 1498.5 422.166666667 1482 432.5 1462 c 0
 442.833333333 1442 448 1418.66666667 448 1392 c 2
 448 144 l 2
320 1392 m 2
 320 1414.66666667 314.5 1430.83333333 303.5 1440.5 c 0
 292.5 1450.16666667 279.666666667 1455 265 1455 c 0
 256.333333333 1455 247.666666667 1453.5 239 1450.5 c 0
 230.333333333 1447.5 222.5 1443.16666667 215.5 1437.5 c 0
 208.5 1431.83333333 202.833333333 1425.16666667 198.5 1417.5 c 0
 194.166666667 1409.83333333 192 1401.33333333 192 1392 c 2
 192 144 l 2
 192 134.666666667 194.166666667 126 198.5 118 c 0
 202.833333333 110 208.5 103.333333333 215.5 98 c 0
 222.5 92.6666666667 230.166666667 88.5 238.5 85.5 c 0
 246.833333333 82.5 255.333333333 81 264 81 c 0
 278.666666667 81 291.666666667 85.8333333333 303 95.5 c 0
 314.333333333 105.166666667 320 121.333333333 320 144 c 2
 320 1392 l 2
EndSplineSet
EndChar

StartChar: r
Encoding: 114 114 89
Width: 480
GlyphClass: 2
Flags: W
HStem: 0 21G<64 192 288 416> 736 96<192 286.768> 1440 96<192 286.768>
VStem: 64 128<0 736 832 1440> 288 128<0 733.572 834.428 1437.64>
LayerCount: 2
Fore
SplineSet
416 896 m 2
 416 864 408 839.333333333 392 822 c 0
 376 804.666666667 352 792.333333333 320 785 c 1
 352 776.333333333 376 763.333333333 392 746 c 0
 408 728.666666667 416 704 416 672 c 2
 416 0 l 1
 288 0 l 1
 288 672 l 2
 288 688 286 700.333333333 282 709 c 0
 278 717.666666667 272 724 264 728 c 0
 256 732 246 734.333333333 234 735 c 0
 222 735.666666667 208 736 192 736 c 1
 192 0 l 1
 64 0 l 1
 64 1536 l 1
 143 1536 143 1536 208 1536 c 0
 251.333333333 1536 288.5 1532.5 319.5 1525.5 c 0
 350.5 1518.5 374.333333333 1506.16666667 391 1488.5 c 0
 407.666666667 1470.83333333 416 1444 416 1408 c 2
 416 896 l 2
288 1376 m 2
 288 1392 286 1404.33333333 282 1413 c 0
 278 1421.66666667 272 1428 264 1432 c 0
 256 1436 246 1438.33333333 234 1439 c 0
 222 1439.66666667 208 1440 192 1440 c 1
 192 832 l 1
 208 832 222 832.333333333 234 833 c 0
 246 833.666666667 256 836 264 840 c 0
 272 844 278 850.333333333 282 859 c 0
 286 867.666666667 288 880 288 896 c 2
 288 1376 l 2
EndSplineSet
EndChar

StartChar: s
Encoding: 115 115 90
Width: 480
GlyphClass: 2
Flags: W
HStem: -16 96<200.403 279.597> 1456 96<200.403 279.597>
VStem: 64 128<94.4429 544 989.691 1441.56> 288 128<94.4429 544.824 992 1441.56>
DStem2: 264 890.5 124.5 881 0.339037 -0.940773<-307.285 542.67>
LayerCount: 2
Fore
SplineSet
416 992 m 1
 288 992 l 1
 288 1392 l 2
 288 1416 283 1432.66666667 273 1442 c 0
 263 1451.33333333 252 1456 240 1456 c 256
 228 1456 217 1451.33333333 207 1442 c 0
 197 1432.66666667 192 1416 192 1392 c 0
 192 1320.66666667 195.333333333 1255 202 1195 c 0
 208.666666667 1135 217.333333333 1079.66666667 228 1029 c 0
 238.666666667 978.333333333 250.666666667 932.166666667 264 890.5 c 0
 277.333333333 848.833333333 290.666666667 810.666666667 304 776 c 0
 314.666666667 748.666666667 326.5 717 339.5 681 c 0
 352.5 645 364.666666667 602 376 552 c 0
 387.333333333 502 396.833333333 443.666666667 404.5 377 c 0
 412.166666667 310.333333333 416 232.666666667 416 144 c 0
 416 116 411 91.8333333333 401 71.5 c 0
 391 51.1666666667 377.666666667 34.5 361 21.5 c 0
 344.333333333 8.5 325.5 -1 304.5 -7 c 0
 283.5 -13 262 -16 240 -16 c 256
 218 -16 196.5 -13 175.5 -7 c 0
 154.5 -1 135.666666667 8.5 119 21.5 c 0
 102.333333333 34.5 89 51.1666666667 79 71.5 c 0
 69 91.8333333333 64 116 64 144 c 2
 64 544 l 1
 192 544 l 1
 192 144 l 2
 192 120 197 103.333333333 207 94 c 0
 217 84.6666666667 228 80 240 80 c 256
 252 80 263 84.6666666667 273 94 c 0
 283 103.333333333 288 120 288 144 c 0
 288 230 283.833333333 305.5 275.5 370.5 c 0
 267.166666667 435.5 256.666666667 492.833333333 244 542.5 c 0
 231.333333333 592.166666667 217.5 635.666666667 202.5 673 c 0
 187.5 710.333333333 173.666666667 744.666666667 161 776 c 0
 148.333333333 806.666666667 136.166666667 841.666666667 124.5 881 c 0
 112.833333333 920.333333333 102.5 965 93.5 1015 c 0
 84.5 1065 77.3333333333 1121.16666667 72 1183.5 c 0
 66.6666666667 1245.83333333 64 1315.33333333 64 1392 c 0
 64 1420 69 1444 79 1464 c 0
 89 1484 102.333333333 1500.5 119 1513.5 c 0
 135.666666667 1526.5 154.5 1536.16666667 175.5 1542.5 c 0
 196.5 1548.83333333 218 1552 240 1552 c 256
 262 1552 283.5 1548.83333333 304.5 1542.5 c 0
 325.5 1536.16666667 344.333333333 1526.5 361 1513.5 c 0
 377.666666667 1500.5 391 1484 401 1464 c 0
 411 1444 416 1420 416 1392 c 2
 416 992 l 1
EndSplineSet
EndChar

StartChar: t
Encoding: 116 116 91
Width: 448
GlyphClass: 2
Flags: W
HStem: 0 21G<160 288> 1440 96<32 160 288 416>
VStem: 160 128<0 1440>
LayerCount: 2
Fore
SplineSet
416 1536 m 1
 416 1440 l 1
 288 1440 l 1
 288 0 l 1
 160 0 l 1
 160 1440 l 1
 32 1440 l 1
 32 1536 l 1
 416 1536 l 1
EndSplineSet
EndChar

StartChar: u
Encoding: 117 117 92
Width: 480
GlyphClass: 2
Flags: W
HStem: -16 96<200.403 279.597> 1516 20G<64 192 288 416> 1516 20G<64 192 288 416>
VStem: 64 128<94.4429 1536> 288 128<94.4429 1536>
LayerCount: 2
Fore
SplineSet
288 1536 m 1xd8
 416 1536 l 1
 416 144 l 2
 416 116 411 91.8333333333 401 71.5 c 0
 391 51.1666666667 377.666666667 34.5 361 21.5 c 0
 344.333333333 8.5 325.5 -1 304.5 -7 c 0
 283.5 -13 262 -16 240 -16 c 256
 218 -16 196.5 -13 175.5 -7 c 0
 154.5 -1 135.666666667 8.5 119 21.5 c 0
 102.333333333 34.5 89 51.1666666667 79 71.5 c 0
 69 91.8333333333 64 116 64 144 c 2
 64 1536 l 1
 192 1536 l 1
 192 144 l 2
 192 120 197 103.333333333 207 94 c 0
 217 84.6666666667 228 80 240 80 c 256
 252 80 263 84.6666666667 273 94 c 0
 283 103.333333333 288 120 288 144 c 2
 288 1536 l 1xd8
EndSplineSet
EndChar

StartChar: v
Encoding: 118 118 93
Width: 416
GlyphClass: 2
Flags: W
HStem: 0 160<128 288> 1516 20G<32 160.909 255.091 384> 1516 20G<32 160.909 255.091 384>
VStem: 32 352
LayerCount: 2
Fore
SplineSet
192 832 m 1xd0
 209 160 l 1
 224 832 l 1
 256 1536 l 1
 384 1536 l 1
 288 0 l 1
 128 0 l 1
 32 1536 l 1
 160 1536 l 1
 192 832 l 1xd0
EndSplineSet
EndChar

StartChar: w
Encoding: 119 119 94
Width: 640
GlyphClass: 2
Flags: W
HStem: 0 191<32.5 351.5> 1516 20G<32 160.909 255.091 384.909 479.091 608> 1516 20G<32 160.909 255.091 384.909 479.091 608>
VStem: 224 64<544.832 909.056> 256 64<1472 1536> 352 64<544.832 909.056> 384 128<0 229.376> 480 128<1306.62 1536>
LayerCount: 2
Fore
SplineSet
448 191 m 1xc4
 448 832 l 1
 480 1536 l 1
 608 1536 l 1xc5
 512 0 l 1
 384 0 l 1xc2
 352 608 l 1
 320 1280 l 1xcc
 288 608 l 1xd0
 256 0 l 1xc8
 128 0 l 1
 32 1536 l 1
 160 1536 l 1
 192 832 l 1
 192 191 l 1
 224 832 l 1xd0
 256 1536 l 1
 384 1536 l 1xca
 416 832 l 1
 448 191 l 1xc4
EndSplineSet
EndChar

StartChar: x
Encoding: 120 120 95
Width: 608
GlyphClass: 2
Flags: W
HStem: 0 21G<128 257.667 350.333 480> 640 192<208 400> 1516 20G<128 257.429 350.571 480> 1516 20G<128 257.429 350.571 480>
VStem: 128 128<0 128 1408 1536> 352 128<0 128 1408 1536>
LayerCount: 2
Fore
SplineSet
320 1088 m 1xec
 352 1536 l 1
 480 1536 l 1
 384 736 l 1
 480 0 l 1
 352 0 l 1
 320 384 l 1
 304 640 l 1
 288 384 l 1
 256 0 l 1
 128 0 l 1
 224 736 l 1
 128 1536 l 1
 256 1536 l 1
 288 1088 l 1
 304 832 l 1
 320 1088 l 1xec
EndSplineSet
EndChar

StartChar: y
Encoding: 121 121 96
Width: 448
GlyphClass: 2
Flags: W
HStem: 0 21G<160 288> 1516 20G<32 161.667 286.333 416> 1516 20G<32 161.667 286.333 416>
VStem: 32 128<1408 1536> 160 128<0 626.688> 288 128<1408 1536>
DStem2: 224 736 288 512 0.124035 0.992278<0 703.704> 256 1152 416 1536 0.124035 0.992278<-225.699 385.004>
LayerCount: 2
Fore
SplineSet
256 1152 m 1xd0
 288 1536 l 1
 416 1536 l 1xd4
 288 512 l 1
 288 0 l 1
 160 0 l 1
 160 512 l 1xc8
 32 1536 l 1
 160 1536 l 1
 192 1152 l 1
 224 736 l 1
 256 1152 l 1xd0
EndSplineSet
EndChar

StartChar: z
Encoding: 122 122 97
Width: 320
GlyphClass: 2
Flags: W
HStem: 0 96<168 288> 1440 96<32 160>
VStem: 32 256<0 96 1440 1536>
DStem2: 32 0 168 96 0.0885398 0.996073<107.664 1445.68>
LayerCount: 2
Fore
SplineSet
288 1536 m 1
 168 96 l 1
 288 96 l 1
 288 0 l 1
 32 0 l 1
 160 1440 l 1
 32 1440 l 1
 32 1536 l 1
 288 1536 l 1
EndSplineSet
EndChar

StartChar: braceleft
Encoding: 123 123 98
Width: 348
GlyphClass: 2
Flags: W
HStem: -109 115<189 338> 1758 118<189 338>
VStem: 55 283<-109 6 1758 1876> 55 134<6 1758>
LayerCount: 2
Fore
SplineSet
338 1876 m 1xe0
 338 1758 l 1xe0
 189 1758 l 1
 189 6 l 1xd0
 338 6 l 1
 338 -109 l 1
 55 -109 l 1
 55 1876 l 1
 338 1876 l 1xe0
EndSplineSet
EndChar

StartChar: bar
Encoding: 124 124 99
Width: 247
GlyphClass: 2
Flags: W
VStem: 58 134<-120 1882>
LayerCount: 2
Fore
SplineSet
192 1882 m 1
 192 -120 l 1
 58 -120 l 1
 58 1882 l 1
 192 1882 l 1
EndSplineSet
EndChar

StartChar: braceright
Encoding: 125 125 100
Width: 392
GlyphClass: 2
Flags: W
HStem: -109 115<-1 145> 1758 118<-1 145>
VStem: -1 283<-109 6 1758 1876> 145 137<6 1758>
LayerCount: 2
Fore
SplineSet
282 1876 m 1xe0
 282 -109 l 1
 -1 -109 l 1
 -1 6 l 1xe0
 145 6 l 1
 145 1758 l 1xd0
 -1 1758 l 1
 -1 1876 l 1
 282 1876 l 1xe0
EndSplineSet
EndChar

StartChar: cent
Encoding: 162 162 104
Width: 430
GlyphClass: 2
Flags: W
VStem: 52 134<84.1428 1434.72> 193 57<-155 -12.875 1536.12 1686> 258 131<84.1428 713 888 1443.32>
LayerCount: 2
Fore
SplineSet
250 1686 m 1
 250 1542 l 1
 268.666666667 1539.33333333 286.166666667 1534.16666667 302.5 1526.5 c 0
 318.833333333 1518.83333333 333.333333333 1509.5 346 1498.5 c 0
 358.666666667 1487.5 368.833333333 1474.83333333 376.5 1460.5 c 0
 384.166666667 1446.16666667 388.333333333 1431 389 1415 c 1
 389 888 l 1
 258 888 l 1
 258 1412 l 1
 256 1421.33333333 251.5 1429 244.5 1435 c 0
 237.5 1441 230.666666667 1444 224 1444 c 0
 212.666666667 1444 203.5 1441 196.5 1435 c 0
 189.5 1429 186 1421.33333333 186 1412 c 2
 186 109 l 2
 186 103.666666667 189.5 98.1666666667 196.5 92.5 c 0
 203.5 86.8333333333 212.666666667 84 224 84 c 0
 230.666666667 84 237.5 86.8333333333 244.5 92.5 c 0
 251.5 98.1666666667 256 103.666666667 258 109 c 1
 258 713 l 1
 389 713 l 1
 389 109 l 1
 388.333333333 93.6666666667 384.166666667 78.6666666667 376.5 64 c 0
 368.833333333 49.3333333333 358.666666667 36.3333333333 346 25 c 0
 333.333333333 13.6666666667 318.833333333 4.16666666667 302.5 -3.5 c 0
 286.166666667 -11.1666666667 268.666666667 -16 250 -18 c 1
 250 -155 l 1
 193 -155 l 1
 193 -18 l 1
 173.666666667 -16 155.5 -11.1666666667 138.5 -3.5 c 0
 121.5 4.16666666667 106.666666667 13.6666666667 94 25 c 0
 81.3333333333 36.3333333333 71.1666666667 49.3333333333 63.5 64 c 0
 55.8333333333 78.6666666667 52 93.6666666667 52 109 c 2
 52 1412 l 2
 52 1428 55.8333333333 1443.33333333 63.5 1458 c 0
 71.1666666667 1472.66666667 81.3333333333 1485.83333333 94 1497.5 c 0
 106.666666667 1509.16666667 121.5 1518.83333333 138.5 1526.5 c 0
 155.5 1534.16666667 173.666666667 1539.33333333 193 1542 c 1
 193 1686 l 1
 250 1686 l 1
EndSplineSet
EndChar

StartChar: sterling
Encoding: 163 163 105
Width: 548
GlyphClass: 2
Flags: W
HStem: 0 106<175 507> 862 106<36 145 279 507> 1679 105<285.575 372.969>
VStem: 145 134<192.576 862 968 1666.62> 373 136<1319 1678.31>
LayerCount: 2
Fore
SplineSet
36 968 m 1
 145 968 l 1
 145 1637 l 2
 145 1657 150 1676 160 1694 c 0
 170 1712 183.166666667 1727.66666667 199.5 1741 c 0
 215.833333333 1754.33333333 234.833333333 1764.83333333 256.5 1772.5 c 0
 278.166666667 1780.16666667 301 1784 325 1784 c 0
 350.333333333 1784 374.166666667 1780 396.5 1772 c 0
 418.833333333 1764 438.333333333 1753.16666667 455 1739.5 c 0
 471.666666667 1725.83333333 484.833333333 1710 494.5 1692 c 0
 504.166666667 1674 509 1655 509 1635 c 2
 509 1319 l 1
 373 1319 l 1
 373 1638 l 2
 373 1649.33333333 368.166666667 1659 358.5 1667 c 0
 348.833333333 1675 337.666666667 1679 325 1679 c 0
 311 1679 299.833333333 1675 291.5 1667 c 0
 283.166666667 1659 279 1649.33333333 279 1638 c 2
 279 968 l 1
 507 968 l 1
 507 862 l 1
 279 862 l 1
 279 383 l 2
 279 329 273.666666667 284.333333333 263 249 c 0
 252.333333333 213.666666667 240.666666667 185.666666667 228 165 c 0
 212.666666667 139 195 119.333333333 175 106 c 1
 507 106 l 1
 507 0 l 1
 18 0 l 1
 18 106 l 1
 29.3333333333 113.333333333 40.5 121.833333333 51.5 131.5 c 0
 62.5 141.166666667 72.6666666667 152.333333333 82 165 c 0
 98 185.666666667 112.5 213.5 125.5 248.5 c 0
 138.5 283.5 145 328 145 382 c 2
 145 862 l 1
 36 862 l 1
 36 968 l 1
EndSplineSet
EndChar

StartChar: currency
Encoding: 164 164 106
Width: 524
GlyphClass: 2
Flags: W
HStem: 845 99<220.118 292.413> 1601 96<220.308 292.548> 1741 20G<78.0656 118.471>
VStem: 97 123<952.375 1598.56> 298 124<954.687 1591.2>
DStem2: 172 1676 69 1655 0.635707 -0.77193<-109.432 15.9038>
LayerCount: 2
Fore
SplineSet
419 801 m 1
 355 869 l 1
 325.666666667 853 294.333333333 845 261 845 c 0
 226.333333333 845 194.666666667 853 166 869 c 1
 102 800 l 1
 29 862 l 1
 107 952 l 1
 104.333333333 960 102 968 100 976 c 0
 98 984 97 992 97 1000 c 2
 97 1542 l 2
 97 1552 98.1666666667 1561.66666667 100.5 1571 c 0
 102.833333333 1580.33333333 106.333333333 1589.66666667 111 1599 c 1
 109.666666667 1602.33333333 104.666666667 1609.5 96 1620.5 c 0
 87.3333333333 1631.5 78.3333333333 1643 69 1655 c 1
 29 1700 l 1
 102 1761 l 1
 172 1676 l 1
 186 1682.66666667 200.166666667 1687.83333333 214.5 1691.5 c 0
 228.833333333 1695.16666667 244.333333333 1697 261 1697 c 256
 277.666666667 1697 293.166666667 1695.16666667 307.5 1691.5 c 0
 321.833333333 1687.83333333 336 1682.66666667 350 1676 c 1
 421 1764 l 1
 494 1700 l 1
 409 1598 l 1
 417.666666667 1583.33333333 422 1565.66666667 422 1545 c 2
 422 996 l 2
 422 982.666666667 419 968.666666667 413 954 c 1
 494 862 l 1
 419 801 l 1
298 1566 m 2
 298 1576.66666667 294.5 1585.16666667 287.5 1591.5 c 0
 280.5 1597.83333333 271.666666667 1601 261 1601 c 0
 251 1601 241.666666667 1597.83333333 233 1591.5 c 0
 224.333333333 1585.16666667 220 1576.66666667 220 1566 c 2
 220 975 l 2
 220 969.666666667 223.5 963.166666667 230.5 955.5 c 0
 237.5 947.833333333 247.666666667 944 261 944 c 0
 271.666666667 944 280.5 946.833333333 287.5 952.5 c 0
 294.5 958.166666667 298 965.666666667 298 975 c 2
 298 1566 l 2
EndSplineSet
EndChar

StartChar: yen
Encoding: 165 165 107
Width: 445
GlyphClass: 2
Flags: W
HStem: 0 21G<154 288> 449 111<7 154 288 436> 636 110<7 145 295 436> 1741 20G<15 157.789 286.211 422>
VStem: 15 141<1620 1761> 154 134<0 449 560 636> 288 134<1627 1761>
DStem2: 222 1023 295 746 0.124155 0.992263<0 740.484>
LayerCount: 2
Fore
SplineSet
436 636 m 1xfa
 288 636 l 1
 288 560 l 1
 436 560 l 1
 436 449 l 1
 288 449 l 1
 288 0 l 1
 154 0 l 1
 154 449 l 1
 7 449 l 1
 7 560 l 1
 154 560 l 1
 154 636 l 1xf4
 7 636 l 1
 7 746 l 1
 145 746 l 1
 15 1761 l 1
 156 1761 l 1
 222 1023 l 1
 288 1761 l 1
 422 1761 l 1
 295 746 l 1
 436 746 l 1
 436 636 l 1xfa
EndSplineSet
EndChar

StartChar: brokenbar
Encoding: 166 166 108
Width: 254
GlyphClass: 2
Flags: W
HStem: 0 21G<60 193> 1741 20G<60 193>
VStem: 60 133<0 806 888 1761>
LayerCount: 2
Fore
SplineSet
193 806 m 1
 193 0 l 1
 60 0 l 1
 60 806 l 1
 193 806 l 1
193 1761 m 1
 193 888 l 1
 60 888 l 1
 60 1761 l 1
 193 1761 l 1
EndSplineSet
EndChar

StartChar: section
Encoding: 167 167 109
Width: 412
GlyphClass: 2
Flags: W
HStem: -11 101<175.494 247.673> 1707 102<163.327 234.64>
VStem: 24 121<737.436 1095.91 1443.19 1701.89> 41 128<99.2834 421 718.563 929.473> 241 130<129.026 429.889 892.527 1107.41 1390 1697.72> 254 132<94.7334 394.964 721.695 1107.41>
DStem2: 199 717 83.5 665 0.463546 -0.886073<-199.403 -7.11721 103.346 424.622> 216.5 1369 113 1286.5 0.412271 -0.911061<-237.238 134.865 259.157 463.541>
LayerCount: 2
Fore
SplineSet
24 932 m 0xe0
 24 980.666666667 28.6666666667 1021.16666667 38 1053.5 c 0
 47.3333333333 1085.83333333 58.8333333333 1111.66666667 72.5 1131 c 0
 86.1666666667 1150.33333333 101.166666667 1164.83333333 117.5 1174.5 c 0
 133.833333333 1184.16666667 149 1191 163 1195 c 1
 146.333333333 1225 129.666666667 1255.5 113 1286.5 c 0
 96.3333333333 1317.5 81.5 1351.5 68.5 1388.5 c 0
 55.5 1425.5 45 1467 37 1513 c 0
 29 1559 25 1612.33333333 25 1673 c 0
 25 1694.33333333 30.3333333333 1713.5 41 1730.5 c 0
 51.6666666667 1747.5 65.3333333333 1761.83333333 82 1773.5 c 0
 98.6666666667 1785.16666667 117.333333333 1794 138 1800 c 0
 158.666666667 1806 179 1809 199 1809 c 0
 219.666666667 1809 240.333333333 1806 261 1800 c 0
 281.666666667 1794 300.166666667 1785.33333333 316.5 1774 c 0
 332.833333333 1762.66666667 346 1748.66666667 356 1732 c 0
 366 1715.33333333 371 1696 371 1674 c 2
 371 1390 l 1
 241 1390 l 1
 241 1673 l 2xd8
 241 1683.66666667 237 1692 229 1698 c 0
 221 1704 211 1707 199 1707 c 256
 187 1707 177 1704 169 1698 c 0
 161 1692 157 1683.66666667 157 1673 c 0
 157 1608.33333333 162.666666667 1551.5 174 1502.5 c 0
 185.333333333 1453.5 199.5 1409 216.5 1369 c 0
 233.5 1329 251.833333333 1291.66666667 271.5 1257 c 0
 291.166666667 1222.33333333 309.5 1186.83333333 326.5 1150.5 c 0
 343.5 1114.16666667 357.666666667 1075.16666667 369 1033.5 c 0
 380.333333333 991.833333333 386 944 386 890 c 0
 386 842 381.5 802 372.5 770 c 0
 363.5 738 352.333333333 712 339 692 c 0
 325.666666667 672 310.833333333 657 294.5 647 c 0
 278.166666667 637 262.666666667 630 248 626 c 1
 264 596 280.166666667 564.333333333 296.5 531 c 0
 312.833333333 497.666666667 327.666666667 460.833333333 341 420.5 c 0
 354.333333333 380.166666667 365.166666667 335.833333333 373.5 287.5 c 0
 381.833333333 239.166666667 386 185.333333333 386 126 c 0
 386 104 380.666666667 84.3333333333 370 67 c 0
 359.333333333 49.6666666667 345.666666667 35.3333333333 329 24 c 0
 312.333333333 12.6666666667 293.666666667 4 273 -2 c 0
 252.333333333 -8 232 -11 212 -11 c 0
 191.333333333 -11 170.833333333 -8.16666666667 150.5 -2.5 c 0
 130.166666667 3.16666666667 111.833333333 11.6666666667 95.5 23 c 0
 79.1666666667 34.3333333333 66 48.3333333333 56 65 c 0
 46 81.6666666667 41 101 41 123 c 2
 41 421 l 1
 169 421 l 1
 169 126 l 2
 169 114 173 105 181 99 c 0
 189 93 199.333333333 90 212 90 c 0
 224 90 234 93 242 99 c 0
 250 105 254 114 254 126 c 0
 254 190.666666667 248.333333333 247.833333333 237 297.5 c 0
 225.666666667 347.166666667 211.5 393 194.5 435 c 0
 177.5 477 159 516.333333333 139 553 c 0
 119 589.666666667 100.5 627 83.5 665 c 0
 66.5 703 52.3333333333 743.5 41 786.5 c 0xd4
 29.6666666667 829.5 24 878 24 932 c 0xe0
145 942 m 0xe0
 145 896 150 855.333333333 160 820 c 0
 170 784.666666667 183 750.333333333 199 717 c 1
 204.333333333 718.333333333 210.833333333 721.5 218.5 726.5 c 0
 226.166666667 731.5 233.5 740 240.5 752 c 0
 247.5 764 253.333333333 780.166666667 258 800.5 c 0
 262.666666667 820.833333333 265 847.333333333 265 880 c 0
 265 926 260.166666667 967.166666667 250.5 1003.5 c 0
 240.833333333 1039.83333333 228 1075 212 1109 c 1
 206.666666667 1107.66666667 200.166666667 1104.16666667 192.5 1098.5 c 0
 184.833333333 1092.83333333 177.5 1083.83333333 170.5 1071.5 c 0
 163.5 1059.16666667 157.5 1042.5 152.5 1021.5 c 0
 147.5 1000.5 145 974 145 942 c 0xe0
EndSplineSet
EndChar

StartChar: dieresis
Encoding: 168 168 110
Width: 587
GlyphClass: 2
Flags: W
HStem: 76 159<115 260 318 461>
VStem: 115 145<76 235> 318 143<76 235>
LayerCount: 2
Fore
SplineSet
461 235 m 1
 461 76 l 1
 318 76 l 1
 318 235 l 1
 461 235 l 1
260 235 m 1
 260 76 l 1
 115 76 l 1
 115 235 l 1
 260 235 l 1
EndSplineSet
EndChar

StartChar: copyright
Encoding: 169 169 111
Width: 1474
GlyphClass: 2
Flags: W
HStem: 355 123<514.96 959.925> 581 103<686.049 775.92> 1444 101<686.049 775.92> 1658 123<513.566 959.925>
VStem: 24 132<839.142 1295.4> 553 133<684.081 1443.84> 776 130<684.081 975 1150 1443.48> 1318 132<840.167 1295.4>
LayerCount: 2
Fore
SplineSet
906 1150 m 1
 776 1150 l 1
 776 1412 l 2
 776 1416.66666667 774.333333333 1420.83333333 771 1424.5 c 0
 767.666666667 1428.16666667 763.666666667 1431.5 759 1434.5 c 0
 754.333333333 1437.5 749.5 1439.83333333 744.5 1441.5 c 0
 739.5 1443.16666667 735.333333333 1444 732 1444 c 0
 721.333333333 1444 711 1441 701 1435 c 0
 691 1429 686 1421.33333333 686 1412 c 2
 686 711 l 2
 686 705 690.666666667 699 700 693 c 0
 709.333333333 687 720 684 732 684 c 0
 741.333333333 684 751 687 761 693 c 0
 771 699 776 705 776 711 c 2
 776 975 l 1
 906 975 l 1
 906 711 l 2
 906 693.666666667 900.833333333 677.166666667 890.5 661.5 c 0
 880.166666667 645.833333333 866.833333333 632 850.5 620 c 0
 834.166666667 608 815.5 598.5 794.5 591.5 c 0
 773.5 584.5 752.666666667 581 732 581 c 0
 708.666666667 581 686.166666667 584.5 664.5 591.5 c 0
 642.833333333 598.5 623.833333333 608 607.5 620 c 0
 591.166666667 632 578 645.833333333 568 661.5 c 0
 558 677.166666667 553 693.666666667 553 711 c 2
 553 1412 l 2
 553 1430.66666667 558 1448 568 1464 c 0
 578 1480 591.166666667 1494 607.5 1506 c 0
 623.833333333 1518 642.833333333 1527.5 664.5 1534.5 c 0
 686.166666667 1541.5 708.666666667 1545 732 1545 c 0
 752.666666667 1545 773.5 1541.66666667 794.5 1535 c 0
 815.5 1528.33333333 834.166666667 1519 850.5 1507 c 0
 866.833333333 1495 880.166666667 1481.16666667 890.5 1465.5 c 0
 900.833333333 1449.83333333 906 1433 906 1415 c 2
 906 1150 l 1
24 1068 m 256
 24 1133.33333333 32.5 1196.33333333 49.5 1257 c 0
 66.5 1317.66666667 90.5 1374.5 121.5 1427.5 c 0
 152.5 1480.5 189.666666667 1528.66666667 233 1572 c 0
 276.333333333 1615.33333333 324.5 1652.5 377.5 1683.5 c 0
 430.5 1714.5 487.333333333 1738.5 548 1755.5 c 0
 608.666666667 1772.5 671.666666667 1781 737 1781 c 256
 802.333333333 1781 865.333333333 1772.5 926 1755.5 c 0
 986.666666667 1738.5 1043.33333333 1714.5 1096 1683.5 c 0
 1148.66666667 1652.5 1196.83333333 1615.33333333 1240.5 1572 c 0
 1284.16666667 1528.66666667 1321.5 1480.5 1352.5 1427.5 c 0
 1383.5 1374.5 1407.5 1317.66666667 1424.5 1257 c 0
 1441.5 1196.33333333 1450 1133.33333333 1450 1068 c 256
 1450 1002.66666667 1441.5 939.666666667 1424.5 879 c 0
 1407.5 818.333333333 1383.5 761.666666667 1352.5 709 c 0
 1321.5 656.333333333 1284.16666667 608.166666667 1240.5 564.5 c 0
 1196.83333333 520.833333333 1148.66666667 483.5 1096 452.5 c 0
 1043.33333333 421.5 986.666666667 397.5 926 380.5 c 0
 865.333333333 363.5 802.333333333 355 737 355 c 256
 671.666666667 355 608.666666667 363.5 548 380.5 c 0
 487.333333333 397.5 430.5 421.5 377.5 452.5 c 0
 324.5 483.5 276.333333333 520.833333333 233 564.5 c 0
 189.666666667 608.166666667 152.5 656.333333333 121.5 709 c 0
 90.5 761.666666667 66.5 818.333333333 49.5 879 c 0
 32.5 939.666666667 24 1002.66666667 24 1068 c 256
156 1068 m 0
 156 986.666666667 171 910.166666667 201 838.5 c 0
 231 766.833333333 272.166666667 704.333333333 324.5 651 c 0
 376.833333333 597.666666667 438.333333333 555.5 509 524.5 c 0
 579.666666667 493.5 655.666666667 478 737 478 c 0
 791 478 842.833333333 485 892.5 499 c 0
 942.166666667 513 988.5 532.833333333 1031.5 558.5 c 0
 1074.5 584.166666667 1113.66666667 615 1149 651 c 0
 1184.33333333 687 1214.5 726.833333333 1239.5 770.5 c 0
 1264.5 814.166666667 1283.83333333 861 1297.5 911 c 0
 1311.16666667 961 1318 1013.33333333 1318 1068 c 0
 1318 1122 1311.16666667 1174 1297.5 1224 c 0
 1283.83333333 1274 1264.5 1321 1239.5 1365 c 0
 1214.5 1409 1184.33333333 1448.83333333 1149 1484.5 c 0
 1113.66666667 1520.16666667 1074.5 1551 1031.5 1577 c 0
 988.5 1603 942.166666667 1623 892.5 1637 c 0
 842.833333333 1651 791 1658 737 1658 c 0
 682.333333333 1658 630.166666667 1651 580.5 1637 c 0
 530.833333333 1623 484.5 1603 441.5 1577 c 0
 398.5 1551 359.5 1520.16666667 324.5 1484.5 c 0
 289.5 1448.83333333 259.5 1409 234.5 1365 c 0
 209.5 1321 190.166666667 1274 176.5 1224 c 0
 162.833333333 1174 156 1122 156 1068 c 0
EndSplineSet
EndChar

StartChar: guillemotleft
Encoding: 171 171 113
Width: 574
GlyphClass: 2
Flags: W
VStem: 41 515
DStem2: 177 881 41 881 0.438515 -0.898724<0 309.813> 41 881 177 881 0.439127 0.898425<59.7212 389.308> 409 881 273 881 0.438515 -0.898724<0 309.813> 273 881 409 881 0.439127 0.898425<59.7212 389.308>
LayerCount: 2
Fore
SplineSet
556 1460 m 1
 556 1176 l 1
 409 881 l 1
 556 608 l 1
 556 301 l 1
 273 881 l 1
 556 1460 l 1
324 1460 m 1
 324 1176 l 1
 177 881 l 1
 324 608 l 1
 324 301 l 1
 41 881 l 1
 324 1460 l 1
EndSplineSet
EndChar

StartChar: logicalnot
Encoding: 172 172 114
Width: 1006
GlyphClass: 2
Flags: W
HStem: 1060 101<150 982>
VStem: 24 126<722 1060>
LayerCount: 2
Fore
SplineSet
982 1159 m 1
 982 1060 l 1
 150 1060 l 1
 150 722 l 1
 24 722 l 1
 24 1161 l 1
 982 1159 l 1
EndSplineSet
EndChar

StartChar: registered
Encoding: 174 174 116
Width: 1474
GlyphClass: 2
Flags: W
HStem: 355 123<514.96 959.925> 1035 74<690 745.917> 1462 96.5<689 745.917> 1658 123<513.566 959.925>
VStem: 24 132<839.142 1295.4> 567 123<597 1035 1109 1462> 777 120<597 1032.77 1113.13 1457.36> 1318 132<840.167 1295.4>
LayerCount: 2
Fore
SplineSet
897 1204 m 2
 897 1178 892.833333333 1156.83333333 884.5 1140.5 c 0
 876.166666667 1124.16666667 867 1111.33333333 857 1102 c 0
 845 1090 832.333333333 1081 819 1075 c 1
 826.333333333 1072.33333333 833.166666667 1069.16666667 839.5 1065.5 c 0
 845.833333333 1061.83333333 851.666666667 1057.66666667 857 1053 c 0
 867 1043.66666667 876.166666667 1032 884.5 1018 c 0
 892.833333333 1004 897 985.333333333 897 962 c 2
 897 597 l 1
 777 597 l 1
 777 999 l 2
 777 1005.66666667 776 1011.33333333 774 1016 c 0
 772 1020.66666667 767.833333333 1024.33333333 761.5 1027 c 0
 755.166666667 1029.66666667 746.333333333 1031.66666667 735 1033 c 0
 723.666666667 1034.33333333 708.666666667 1035 690 1035 c 1
 690 597 l 1
 567 597 l 1
 567 1560 l 1
 619 1560 665.5 1559.5 706.5 1558.5 c 0
 747.5 1557.5 782 1553 810 1545 c 0
 838 1537 859.5 1524.33333333 874.5 1507 c 0
 889.5 1489.66666667 897 1465 897 1433 c 2
 897 1204 l 2
765 1433 m 2
 765 1446.33333333 758.833333333 1454.5 746.5 1457.5 c 0
 734.166666667 1460.5 715 1462 689 1462 c 1
 689 1109 l 1
 715 1109 734.166666667 1110.33333333 746.5 1113 c 0
 758.833333333 1115.66666667 765 1124.33333333 765 1139 c 2
 765 1433 l 2
24 1068 m 256
 24 1133.33333333 32.5 1196.33333333 49.5 1257 c 0
 66.5 1317.66666667 90.5 1374.5 121.5 1427.5 c 0
 152.5 1480.5 189.666666667 1528.66666667 233 1572 c 0
 276.333333333 1615.33333333 324.5 1652.5 377.5 1683.5 c 0
 430.5 1714.5 487.333333333 1738.5 548 1755.5 c 0
 608.666666667 1772.5 671.666666667 1781 737 1781 c 256
 802.333333333 1781 865.333333333 1772.5 926 1755.5 c 0
 986.666666667 1738.5 1043.33333333 1714.5 1096 1683.5 c 0
 1148.66666667 1652.5 1196.83333333 1615.33333333 1240.5 1572 c 0
 1284.16666667 1528.66666667 1321.5 1480.5 1352.5 1427.5 c 0
 1383.5 1374.5 1407.5 1317.66666667 1424.5 1257 c 0
 1441.5 1196.33333333 1450 1133.33333333 1450 1068 c 256
 1450 1002.66666667 1441.5 939.666666667 1424.5 879 c 0
 1407.5 818.333333333 1383.5 761.666666667 1352.5 709 c 0
 1321.5 656.333333333 1284.16666667 608.166666667 1240.5 564.5 c 0
 1196.83333333 520.833333333 1148.66666667 483.5 1096 452.5 c 0
 1043.33333333 421.5 986.666666667 397.5 926 380.5 c 0
 865.333333333 363.5 802.333333333 355 737 355 c 256
 671.666666667 355 608.666666667 363.5 548 380.5 c 0
 487.333333333 397.5 430.5 421.5 377.5 452.5 c 0
 324.5 483.5 276.333333333 520.833333333 233 564.5 c 0
 189.666666667 608.166666667 152.5 656.333333333 121.5 709 c 0
 90.5 761.666666667 66.5 818.333333333 49.5 879 c 0
 32.5 939.666666667 24 1002.66666667 24 1068 c 256
156 1068 m 0
 156 986.666666667 171 910.166666667 201 838.5 c 0
 231 766.833333333 272.166666667 704.333333333 324.5 651 c 0
 376.833333333 597.666666667 438.333333333 555.5 509 524.5 c 0
 579.666666667 493.5 655.666666667 478 737 478 c 0
 791 478 842.833333333 485 892.5 499 c 0
 942.166666667 513 988.5 532.833333333 1031.5 558.5 c 0
 1074.5 584.166666667 1113.66666667 615 1149 651 c 0
 1184.33333333 687 1214.5 726.833333333 1239.5 770.5 c 0
 1264.5 814.166666667 1283.83333333 861 1297.5 911 c 0
 1311.16666667 961 1318 1013.33333333 1318 1068 c 0
 1318 1122 1311.16666667 1174 1297.5 1224 c 0
 1283.83333333 1274 1264.5 1321 1239.5 1365 c 0
 1214.5 1409 1184.33333333 1448.83333333 1149 1484.5 c 0
 1113.66666667 1520.16666667 1074.5 1551 1031.5 1577 c 0
 988.5 1603 942.166666667 1623 892.5 1637 c 0
 842.833333333 1651 791 1658 737 1658 c 0
 682.333333333 1658 630.166666667 1651 580.5 1637 c 0
 530.833333333 1623 484.5 1603 441.5 1577 c 0
 398.5 1551 359.5 1520.16666667 324.5 1484.5 c 0
 289.5 1448.83333333 259.5 1409 234.5 1365 c 0
 209.5 1321 190.166666667 1274 176.5 1224 c 0
 162.833333333 1174 156 1122 156 1068 c 0
EndSplineSet
EndChar

StartChar: macron
Encoding: 175 175 117
Width: 326
GlyphClass: 2
Flags: W
HStem: 87 105<0 327>
VStem: 0 327<87 192>
LayerCount: 2
Fore
SplineSet
327 87 m 1
 0 87 l 1
 0 192 l 1
 327 192 l 1
 327 87 l 1
EndSplineSet
EndChar

StartChar: uni00B2
Encoding: 178 178 120
Width: 464
GlyphClass: 2
Flags: W
HStem: 0 121<200 418> 1305 118<193.37 279.319>
VStem: 52 134<927 1293.66>
DStem2: 83.5 149 200 121 0.183569 0.983007<-6.13843 1157.05>
LayerCount: 2
Fore
SplineSet
52 1277 m 2
 52 1297 56.3333333333 1316 65 1334 c 0
 73.6666666667 1352 86 1367.5 102 1380.5 c 0
 118 1393.5 137.166666667 1403.83333333 159.5 1411.5 c 0
 181.833333333 1419.16666667 206.666666667 1423 234 1423 c 0
 260.666666667 1423 286.166666667 1418.5 310.5 1409.5 c 0
 334.833333333 1400.5 355.833333333 1388 373.5 1372 c 0
 391.166666667 1356 404.166666667 1337 412.5 1315 c 0
 420.833333333 1293 422.666666667 1269 418 1243 c 0
 380 1041 347.166666667 869.166666667 319.5 727.5 c 0
 291.833333333 585.833333333 269.333333333 470 252 380 c 1
 200 121 l 1
 418 121 l 1
 418 0 l 1
 53 0 l 1
 62.3333333333 46 72.5 95.6666666667 83.5 149 c 0
 94.5 202.333333333 106 260 118 322 c 0
 139.333333333 428.666666667 164 557.833333333 192 709.5 c 0
 220 861.166666667 250.666666667 1037 284 1237 c 1
 289.333333333 1263.66666667 285.666666667 1281.66666667 273 1291 c 1
 261.666666667 1300.33333333 248.666666667 1305 234 1305 c 0
 220 1305 208.5 1301.33333333 199.5 1294 c 0
 190.5 1286.66666667 186 1277.66666667 186 1267 c 2
 186 927 l 1
 52 927 l 1
 52 1277 l 2
EndSplineSet
EndChar

StartChar: uni00B3
Encoding: 179 179 121
Width: 439
GlyphClass: 2
Flags: W
HStem: -31 101<185.007 247.524> 728 104<150 248.324> 1324 100<185.007 248.024>
VStem: 52 129<85.47 505 1009 1308.01> 254 134<77.2197 728 832 1315.75>
LayerCount: 2
Fore
SplineSet
52 1295 m 2
 52 1313 56.6666666667 1329.83333333 66 1345.5 c 0
 75.3333333333 1361.16666667 87.6666666667 1374.83333333 103 1386.5 c 0
 118.333333333 1398.16666667 135.833333333 1407.33333333 155.5 1414 c 0
 175.166666667 1420.66666667 195.666666667 1424 217 1424 c 0
 239.666666667 1424 261.333333333 1420.66666667 282 1414 c 0
 302.666666667 1407.33333333 320.833333333 1398.16666667 336.5 1386.5 c 0
 352.166666667 1374.83333333 364.666666667 1361 374 1345 c 0
 383.333333333 1329 388 1311.66666667 388 1293 c 2
 388 860 l 2
 388 844.666666667 386 832.166666667 382 822.5 c 0
 378 812.833333333 374 804.666666667 370 798 c 1
 352 780 l 1
 358.666666667 776.666666667 364.666666667 771.666666667 370 765 c 0
 374 759 378 750.833333333 382 740.5 c 0
 386 730.166666667 388 717 388 701 c 2
 388 100 l 2
 388 81.3333333333 383.333333333 64 374 48 c 0
 364.666666667 32 352.166666667 18.1666666667 336.5 6.5 c 0
 320.833333333 -5.16666666667 302.666666667 -14.3333333333 282 -21 c 0
 261.333333333 -27.6666666667 239.666666667 -31 217 -31 c 0
 195.666666667 -31 175.166666667 -27.6666666667 155.5 -21 c 0
 135.833333333 -14.3333333333 118.333333333 -5.33333333333 103 6 c 0
 87.6666666667 17.3333333333 75.3333333333 30.8333333333 66 46.5 c 0
 56.6666666667 62.1666666667 52 79 52 97 c 2
 52 505 l 1
 181 505 l 1
 181 120 l 2
 181 106.666666667 183.333333333 95 188 85 c 0
 192.666666667 75 202.333333333 70 217 70 c 0
 227.666666667 70 235.666666667 72.3333333333 241 77 c 0
 246.333333333 81.6666666667 250 87.6666666667 252 95 c 0
 254 102.333333333 254.833333333 110.166666667 254.5 118.5 c 0
 254.166666667 126.833333333 254 134.666666667 254 142 c 2
 254 681 l 2
 254 694.333333333 252.166666667 705.5 248.5 714.5 c 0
 244.833333333 723.5 235 728 219 728 c 2
 150 728 l 1
 150 832 l 1
 219 832 l 2
 235 832 244.833333333 835.666666667 248.5 843 c 0
 252.166666667 850.333333333 254 860.333333333 254 873 c 2
 254 1249 l 2
 254 1255.66666667 254.166666667 1263.33333333 254.5 1272 c 0
 254.833333333 1280.66666667 254.166666667 1288.83333333 252.5 1296.5 c 0
 250.833333333 1304.16666667 247.333333333 1310.66666667 242 1316 c 0
 236.666666667 1321.33333333 228.333333333 1324 217 1324 c 0
 202.333333333 1324 192.666666667 1318.83333333 188 1308.5 c 0
 183.333333333 1298.16666667 181 1286.66666667 181 1274 c 2
 181 1009 l 1
 52 1009 l 1
 52 1295 l 2
EndSplineSet
EndChar

StartChar: acute
Encoding: 180 180 122
Width: 326
GlyphClass: 2
Flags: W
HStem: 96 416
VStem: 0 288
LayerCount: 2
Fore
SplineSet
288 512 m 1
 96 96 l 1
 0 96 l 1
 128 512 l 1
 288 512 l 1
EndSplineSet
EndChar

StartChar: uni00B5
Encoding: 181 181 123
AltUni2: 0003bc.ffffffff.0
Width: 442
GlyphClass: 2
Flags: W
HStem: -21 103<192.297 249.56>
VStem: 53 134<-112 13 90.7667 1520> 255 134<90.7667 1520>
LayerCount: 2
Fore
SplineSet
53 1520 m 1
 187 1520 l 1
 187 112 l 2
 187 103.333333333 190.333333333 96.1666666667 197 90.5 c 0
 203.666666667 84.8333333333 211.333333333 82 220 82 c 0
 229.333333333 82 237.5 84.8333333333 244.5 90.5 c 0
 251.5 96.1666666667 255 103.333333333 255 112 c 2
 255 1520 l 1
 389 1520 l 1
 389 107 l 2
 389 89 384.833333333 72.3333333333 376.5 57 c 0
 368.166666667 41.6666666667 357.333333333 28.1666666667 344 16.5 c 0
 330.666666667 4.83333333333 315.166666667 -4.33333333333 297.5 -11 c 0
 279.833333333 -17.6666666667 262 -21 244 -21 c 0
 238 -21 231.5 -19 224.5 -15 c 0
 217.5 -11 211.333333333 -7 206 -3 c 1
 199.333333333 1 193 6.33333333333 187 13 c 1
 187 -112 l 1
 53 -112 l 1
 53 1520 l 1
EndSplineSet
EndChar

StartChar: paragraph
Encoding: 182 182 124
Width: 649
GlyphClass: 2
Flags: W
HStem: 0 21G<279 419 457 593> 1741 20G<225.667 593>
VStem: 55 538<865.841 1709.08> 279 140<0 825> 457 136<0 826>
LayerCount: 2
Fore
SplineSet
55 1600 m 2xe0
 55 1625.33333333 60 1648 70 1668 c 0
 80 1688 93.3333333333 1704.83333333 110 1718.5 c 0
 126.666666667 1732.16666667 146 1742.66666667 168 1750 c 0
 190 1757.33333333 213.333333333 1761 238 1761 c 2
 593 1761 l 1
 593 0 l 1
 457 0 l 1
 457 826 l 1
 419 826 l 1
 419 0 l 1
 279 0 l 1
 279 825 l 1xd8
 204.333333333 825 148.333333333 836 111 858 c 0
 73.6666666667 880 55 919.333333333 55 976 c 2
 55 1600 l 2xe0
EndSplineSet
EndChar

StartChar: periodcentered
Encoding: 183 183 125
Width: 238
GlyphClass: 2
Flags: W
HStem: 777 184<21 204>
VStem: 21 183<777 961>
LayerCount: 2
Fore
SplineSet
204 961 m 1
 204 777 l 1
 21 777 l 1
 21 961 l 1
 204 961 l 1
EndSplineSet
EndChar

StartChar: cedilla
Encoding: 184 184 126
Width: 326
GlyphClass: 2
Flags: W
HStem: -409 409<129 235>
VStem: 71 164<-409 -307.906> 129 106<-101.094 0>
LayerCount: 2
Fore
SplineSet
71 -409 m 1xc0
 129 0 l 1
 235 0 l 1xa0
 235 -409 l 1
 71 -409 l 1xc0
EndSplineSet
EndChar

StartChar: uni00B9
Encoding: 185 185 127
Width: 402
GlyphClass: 2
Flags: W
HStem: 0 115<13 141 277 389> 1280 117<13 141>
VStem: 13 264<1280 1397> 141 136<115 1280>
LayerCount: 2
Fore
SplineSet
13 115 m 1xe0
 141 115 l 1
 141 1280 l 1xd0
 13 1280 l 1
 13 1397 l 1
 277 1397 l 1xe0
 277 115 l 1xd0
 389 115 l 1
 389 0 l 1
 13 0 l 1
 13 115 l 1xe0
EndSplineSet
EndChar

StartChar: onequarter
Encoding: 188 188 130
Width: 1122
GlyphClass: 2
Flags: W
HStem: 0 21G<416 552.158 946 1080> 364 115<33 160 296 408 827 946> 1643 117<33 160>
VStem: 33 263<1643 1760> 160 136<479 1643> 416 134<0 134> 605 135<1626 1761> 834 133<1264 1397> 946 134<0 359 470 795>
DStem2: 416 0 550 0 0.107271 0.99423<14.3743 1771.11> 690 359 827 470 0.137412 0.990514<128.773 1047.94>
LayerCount: 2
Fore
SplineSet
1080 795 m 1xe680
 1080 0 l 1
 946 0 l 1
 946 359 l 1xe680
 690 359 l 1
 834 1397 l 1
 967 1397 l 1xe7
 827 470 l 1
 946 470 l 1
 946 795 l 1
 1080 795 l 1xe680
740 1761 m 1
 550 0 l 1
 416 0 l 1
 605 1761 l 1
 740 1761 l 1
33 479 m 1xf6
 160 479 l 1
 160 1643 l 1xee
 33 1643 l 1
 33 1760 l 1
 296 1760 l 1xf6
 296 479 l 1xee
 408 479 l 1
 408 364 l 1
 33 364 l 1
 33 479 l 1xf6
EndSplineSet
EndChar

StartChar: threequarters
Encoding: 190 190 132
Width: 1087
GlyphClass: 2
Flags: W
HStem: 0 21G<397 533.147 909 1042> 306 101<172.816 234.524> 359 111<789 909> 1066 103<136 235.324> 1661 100<172.816 235.024>
VStem: 39 130<422.47 842 1346 1645.53> 241 133<414.22 1066 1169 1652.75> 397 134<0 134> 587 133<1628 1761> 797 133<1264 1397> 909 133<0 359 470 795>
DStem2: 397 0 531 0 0.107271 0.99423<14.3743 1771.22> 653 359 789 470 0.137412 0.990514<128.635 1047.94>
LayerCount: 2
Fore
SplineSet
39 1632 m 2xdf80
 39 1650 43.5 1666.83333333 52.5 1682.5 c 0
 61.5 1698.16666667 73.6666666667 1711.83333333 89 1723.5 c 0
 104.333333333 1735.16666667 121.833333333 1744.33333333 141.5 1751 c 0
 161.166666667 1757.66666667 182 1761 204 1761 c 0
 226.666666667 1761 248.333333333 1757.66666667 269 1751 c 0
 289.666666667 1744.33333333 307.833333333 1735.16666667 323.5 1723.5 c 0
 339.166666667 1711.83333333 351.5 1698 360.5 1682 c 0
 369.5 1666 374 1649 374 1631 c 2
 374 1197 l 2
 374 1181.66666667 372 1169.16666667 368 1159.5 c 0
 364 1149.83333333 360 1141.66666667 356 1135 c 1
 350.666666667 1127.66666667 344.666666667 1121.66666667 338 1117 c 1
 346 1113.66666667 352 1109 356 1103 c 0
 360 1096.33333333 364 1087.83333333 368 1077.5 c 0
 372 1067.16666667 374 1054 374 1038 c 2
 374 437 l 2
 374 418.333333333 369.5 401 360.5 385 c 0
 351.5 369 339.166666667 355.166666667 323.5 343.5 c 0
 307.833333333 331.833333333 289.666666667 322.666666667 269 316 c 0
 248.333333333 309.333333333 226.666666667 306 204 306 c 0
 182 306 161.166666667 309.333333333 141.5 316 c 0
 121.833333333 322.666666667 104.333333333 331.666666667 89 343 c 0
 73.6666666667 354.333333333 61.5 367.833333333 52.5 383.5 c 0
 43.5 399.166666667 39 416 39 434 c 2
 39 842 l 1
 169 842 l 1
 169 457 l 2
 169 443.666666667 171.166666667 432 175.5 422 c 0
 179.833333333 412 189.333333333 407 204 407 c 0
 214.666666667 407 222.666666667 409.333333333 228 414 c 0
 233.333333333 418.666666667 237 424.666666667 239 432 c 0
 241 439.333333333 241.833333333 447.166666667 241.5 455.5 c 0
 241.166666667 463.833333333 241 471.666666667 241 479 c 2
 241 1018 l 2
 241 1031.33333333 239.166666667 1042.66666667 235.5 1052 c 0
 231.833333333 1061.33333333 222 1066 206 1066 c 2
 136 1066 l 1
 136 1169 l 1
 206 1169 l 2
 222 1169 231.833333333 1172.66666667 235.5 1180 c 0
 239.166666667 1187.33333333 241 1197.33333333 241 1210 c 2
 241 1586 l 2
 241 1592.66666667 241.166666667 1600.33333333 241.5 1609 c 0
 241.833333333 1617.66666667 241.166666667 1625.83333333 239.5 1633.5 c 0
 237.833333333 1641.16666667 234.333333333 1647.66666667 229 1653 c 0
 223.666666667 1658.33333333 215.333333333 1661 204 1661 c 0
 189.333333333 1661 179.833333333 1656 175.5 1646 c 0
 171.166666667 1636 169 1624.33333333 169 1611 c 2
 169 1346 l 1
 39 1346 l 1
 39 1632 l 2xdf80
1042 795 m 1xbfa0
 1042 0 l 1
 909 0 l 1
 909 359 l 1xbfa0
 653 359 l 1
 797 1397 l 1
 930 1397 l 1xbfc0
 789 470 l 1
 909 470 l 1
 909 795 l 1
 1042 795 l 1xbfa0
720 1761 m 1
 531 0 l 1
 397 0 l 1
 587 1761 l 1
 720 1761 l 1
EndSplineSet
EndChar

StartChar: AE
Encoding: 198 198 140
Width: 590
GlyphClass: 2
Flags: W
HStem: 0 112<406 581> 383 119<202 267> 876 120<406 537> 1644 117<408 581>
VStem: 6 138<0 138> 274 132<112 383 502 840.853> 295 111<996 1472>
DStem2: 6 0 144 0 0.116743 0.993162<16.1105 401.862 521.449 1495.67>
LayerCount: 2
Fore
SplineSet
581 1644 m 1xfc
 408 1644 l 1
 406 996 l 1
 537 996 l 1
 537 876 l 1
 406 876 l 1xfa
 406 112 l 1
 581 112 l 1
 581 0 l 1
 274 0 l 1
 268 383 l 1
 190 383 l 1
 144 0 l 1
 6 0 l 1
 213 1761 l 1
 581 1761 l 1
 581 1644 l 1xfc
267 502 m 1
 295 1472 l 1
 202 502 l 1
 267 502 l 1
EndSplineSet
EndChar

StartChar: Eth
Encoding: 208 208 150
Width: 487
GlyphClass: 2
Flags: W
HStem: 0 120<198 293.993> 815 122<12 59 198 248> 1644 117<198 292.898>
VStem: 12 236<815 937> 59 139<120 815 937 1644> 294 134<122.197 1641.05>
LayerCount: 2
Fore
SplineSet
428 165 m 2xec
 428 137.666666667 422.5 113.833333333 411.5 93.5 c 0
 400.5 73.1666666667 385.833333333 56 367.5 42 c 0
 349.166666667 28 328.333333333 17.5 305 10.5 c 0
 281.666666667 3.5 258 0 234 0 c 2
 59 0 l 1
 59 815 l 1xec
 12 815 l 1
 12 937 l 1xf4
 59 937 l 1
 59 1761 l 1
 234 1761 l 2
 256 1761 278.5 1757.83333333 301.5 1751.5 c 0
 324.5 1745.16666667 345.333333333 1735.16666667 364 1721.5 c 0
 382.666666667 1707.83333333 398 1690.16666667 410 1668.5 c 0
 422 1646.83333333 428 1620.66666667 428 1590 c 2
 428 165 l 2xec
248 815 m 1xf4
 198 815 l 1
 198 120 l 1
 212 120 225 120.166666667 237 120.5 c 0
 249 120.833333333 259.166666667 122.5 267.5 125.5 c 0
 275.833333333 128.5 282.333333333 133.166666667 287 139.5 c 0
 291.666666667 145.833333333 294 154.666666667 294 166 c 2
 294 1592 l 2
 294 1604.66666667 291.666666667 1614.5 287 1621.5 c 0
 282.333333333 1628.5 275.833333333 1633.66666667 267.5 1637 c 0
 259.166666667 1640.33333333 249 1642.33333333 237 1643 c 0
 225 1643.66666667 212 1644 198 1644 c 1
 198 937 l 1xec
 248 937 l 1
 248 815 l 1xf4
EndSplineSet
EndChar

StartChar: multiply
Encoding: 215 215 157
Width: 398
GlyphClass: 2
Flags: W
VStem: 21 133<196 329> 249 129<196 325 1118 1247>
DStem2: 21 196 154 196 0.212005 0.977269<28.1967 293.993 794.355 1075.45> 266 716 200 458 0.208449 -0.978033<-542.682 -262.178 238.575 505.034>
LayerCount: 2
Fore
SplineSet
378 196 m 1
 249 196 l 1
 200 458 l 1
 154 196 l 1
 21 196 l 1
 138 716 l 1
 21 1247 l 1
 154 1247 l 1
 200 970 l 1
 249 1247 l 1
 378 1247 l 1
 266 716 l 1
 378 196 l 1
EndSplineSet
EndChar

StartChar: Oslash
Encoding: 216 216 158
Width: 467
GlyphClass: 2
Flags: W
HStem: -21 109<192.602 272.007> 1679 105<192.602 278.967>
VStem: 52 134<100.376 296.257 539 1666.62> 279 136<100.376 1225 1468.59 1678.31>
LayerCount: 2
Fore
SplineSet
52 1637 m 2
 52 1657 56.8333333333 1676 66.5 1694 c 0
 76.1666666667 1712 89.1666666667 1727.66666667 105.5 1741 c 0
 121.833333333 1754.33333333 140.833333333 1764.83333333 162.5 1772.5 c 0
 184.166666667 1780.16666667 207 1784 231 1784 c 0
 256.333333333 1784 280.166666667 1780 302.5 1772 c 0
 324.833333333 1764 344.333333333 1753.16666667 361 1739.5 c 0
 377.666666667 1725.83333333 390.833333333 1710 400.5 1692 c 0
 410.166666667 1674 415 1655 415 1635 c 2
 415 130 l 2
 415 108.666666667 410.166666667 88.8333333333 400.5 70.5 c 0
 390.833333333 52.1666666667 377.666666667 36.3333333333 361 23 c 0
 344.333333333 9.66666666667 324.833333333 -1 302.5 -9 c 0
 280.166666667 -17 256.333333333 -21 231 -21 c 0
 207 -21 184.166666667 -17.1666666667 162.5 -9.5 c 0
 140.833333333 -1.83333333333 121.833333333 8.66666666667 105.5 22 c 0
 89.1666666667 35.3333333333 76.1666666667 50.8333333333 66.5 68.5 c 0
 56.8333333333 86.1666666667 52 104.666666667 52 124 c 2
 52 1637 l 2
186 127 m 1
 186 117 190.166666667 108 198.5 100 c 0
 206.833333333 92 217.666666667 88 231 88 c 0
 245 88 256.5 92 265.5 100 c 0
 274.5 108 279 117 279 127 c 2
 279 1225 l 1
 186 127 l 1
279 1638 m 1
 279 1649.33333333 274.166666667 1659 264.5 1667 c 0
 254.833333333 1675 243.666666667 1679 231 1679 c 0
 217.666666667 1679 206.833333333 1675 198.5 1667 c 0
 190.166666667 1659 186 1649.33333333 186 1638 c 2
 186 539 l 1
 279 1638 l 1
EndSplineSet
EndChar

StartChar: Thorn
Encoding: 222 222 164
Width: 449
GlyphClass: 2
Flags: W
HStem: 0 21G<55 189> 458 115<189 255.368> 1415 105<189 276> 1741 20G<55 189>
VStem: 55 134<0 458 573 1415 1520 1761> 276 137<580.224 1405.71>
LayerCount: 2
Fore
SplineSet
413 609 m 2
 413 553 393.833333333 513.833333333 355.5 491.5 c 0
 317.166666667 469.166666667 261.666666667 458 189 458 c 1
 189 0 l 1
 55 0 l 1
 55 1761 l 1
 189 1761 l 1
 189 1520 l 1
 230 1520 l 2
 254.666666667 1520 278.166666667 1516.33333333 300.5 1509 c 0
 322.833333333 1501.66666667 342.333333333 1491.16666667 359 1477.5 c 0
 375.666666667 1463.83333333 388.833333333 1447 398.5 1427 c 0
 408.166666667 1407 413 1384.66666667 413 1360 c 2
 413 609 l 2
276 1372 m 2
 276 1388.66666667 268 1400 252 1406 c 0
 236 1412 215 1415 189 1415 c 1
 189 573 l 1
 220.333333333 573 242.666666667 575.333333333 256 580 c 0
 269.333333333 584.666666667 276 597 276 617 c 2
 276 1372 l 2
EndSplineSet
EndChar

StartChar: germandbls
Encoding: 223 223 165
Width: 467
GlyphClass: 2
Flags: W
HStem: 0 114<186 273.842> 970 119<186 272.808> 1679 105<186.087 271.74>
VStem: 52 134<-204 0 114 970 1089 1678.04> 279 136<128.736 969.498 1106.02 1666.62>
LayerCount: 2
Fore
SplineSet
52 1611 m 2
 52 1641 57.5 1666.83333333 68.5 1688.5 c 0
 79.5 1710.16666667 93.8333333333 1728.16666667 111.5 1742.5 c 0
 129.166666667 1756.83333333 148.5 1767.33333333 169.5 1774 c 0
 190.5 1780.66666667 211 1784 231 1784 c 256
 251 1784 271.833333333 1780.83333333 293.5 1774.5 c 0
 315.166666667 1768.16666667 335 1758 353 1744 c 0
 371 1730 385.833333333 1712.16666667 397.5 1690.5 c 0
 409.166666667 1668.83333333 415 1643 415 1613 c 2
 415 1159 l 2
 415 1134.33333333 407.333333333 1108.66666667 392 1082 c 0
 376.666666667 1056.66666667 353.333333333 1039 322 1029 c 1
 338 1025 351.833333333 1018.66666667 363.5 1010 c 0
 375.166666667 1001.33333333 384.833333333 991.166666667 392.5 979.5 c 0
 400.166666667 967.833333333 405.833333333 955.5 409.5 942.5 c 0
 413.166666667 929.5 415 916.666666667 415 904 c 2
 415 150 l 2
 415 130 410.166666667 110.833333333 400.5 92.5 c 0
 390.833333333 74.1666666667 377.833333333 58.1666666667 361.5 44.5 c 0
 345.166666667 30.8333333333 326 20 304 12 c 0
 282 4 258.666666667 0 234 0 c 2
 186 0 l 1
 186 -204 l 1
 52 -204 l 1
 52 1611 l 2
279 921 m 2
 279 924.333333333 278.5 928.833333333 277.5 934.5 c 0
 276.5 940.166666667 274.5 945.666666667 271.5 951 c 0
 268.5 956.333333333 264.166666667 960.833333333 258.5 964.5 c 0
 252.833333333 968.166666667 245.333333333 970 236 970 c 2
 186 970 l 1
 186 114 l 1
 202.666666667 114 216.833333333 114.166666667 228.5 114.5 c 0
 240.166666667 114.833333333 249.833333333 116 257.5 118 c 0
 265.166666667 120 270.666666667 123.5 274 128.5 c 0
 277.333333333 133.5 279 140.666666667 279 150 c 2
 279 921 l 2
186 1089 m 1
 242 1089 l 2
 258.666666667 1089 269 1094.5 273 1105.5 c 0
 277 1116.5 279 1130.33333333 279 1147 c 2
 279 1631 l 2
 279 1647 274.5 1659 265.5 1667 c 0
 256.5 1675 245.333333333 1679 232 1679 c 0
 201.333333333 1679 186 1663 186 1631 c 2
 186 1089 l 1
EndSplineSet
EndChar

StartChar: ae
Encoding: 230 230 172
Width: 589
GlyphClass: 2
Flags: W
HStem: 0 101<402 568> 332 104<198 282> 752 106<402 526> 1422 98<402 568>
VStem: 11 128<0 128> 282 244<752 858> 283 119<101 332 436 752 858 1259>
DStem2: 11 0 139 0 0.136218 0.990679<17.4359 352.471 457.409 457.409>
LayerCount: 2
Fore
SplineSet
568 1422 m 1xfa
 402 1422 l 1
 402 858 l 1xfa
 526 858 l 1
 526 752 l 1xfc
 402 752 l 1
 402 101 l 1
 568 101 l 1
 568 0 l 1
 280 0 l 1
 283 332 l 1
 184 332 l 1
 139 0 l 1
 11 0 l 1
 220 1520 l 1
 568 1520 l 1
 568 1422 l 1xfa
282 436 m 1xfc
 289 1259 l 1
 198 436 l 1
 282 436 l 1xfc
EndSplineSet
EndChar

StartChar: eth
Encoding: 240 240 182
Width: 469
GlyphClass: 2
Flags: W
HStem: -12 118<190.388 259.285> 900 117<187.568 264> 1201 103<49 152> 1649 116<49 173.516>
VStem: 51 133<116.314 882.983> 264 134<122.501 888 1005 1259 1397 1532.75>
DStem2: 49 1304 49 1201 0.963518 0.267644<0 192.222 348.633 420.79>
LayerCount: 2
Fore
SplineSet
481 1321 m 1
 394 1295 l 1
 396 1250.33333333 397.166666667 1204.16666667 397.5 1156.5 c 0
 397.833333333 1108.83333333 398 1058 398 1004 c 2
 398 141 l 2
 398 119 393.333333333 98.6666666667 384 80 c 0
 374.666666667 61.3333333333 362 45.1666666667 346 31.5 c 0
 330 17.8333333333 311.333333333 7.16666666667 290 -0.5 c 0
 268.666666667 -8.16666666667 246 -12 222 -12 c 0
 198.666666667 -12 176.666666667 -8.5 156 -1.5 c 0
 135.333333333 5.5 117.333333333 15.5 102 28.5 c 0
 86.6666666667 41.5 74.3333333333 57.1666666667 65 75.5 c 0
 55.6666666667 93.8333333333 51 114 51 136 c 2
 51 867 l 1
 51.6666666667 887 56.1666666667 906 64.5 924 c 0
 72.8333333333 942 84.1666666667 957.833333333 98.5 971.5 c 0
 112.833333333 985.166666667 129.833333333 996.166666667 149.5 1004.5 c 0
 169.166666667 1012.83333333 190.666666667 1017 214 1017 c 0
 225.333333333 1017 236 1015 246 1011 c 0
 256 1007 262 1005 264 1005 c 1
 264 1138 l 2
 264 1179.33333333 263 1219.66666667 261 1259 c 1
 49 1201 l 1
 49 1304 l 1
 254 1361 l 1
 250 1407 243.666666667 1447.83333333 235 1483.5 c 0
 226.333333333 1519.16666667 214.166666667 1549.16666667 198.5 1573.5 c 0
 182.833333333 1597.83333333 162.833333333 1616.5 138.5 1629.5 c 0
 114.166666667 1642.5 84.3333333333 1649 49 1649 c 1
 49 1765 l 1
 107.666666667 1765 157 1756.5 197 1739.5 c 0
 237 1722.5 270 1698.16666667 296 1666.5 c 0
 322 1634.83333333 341.833333333 1596.16666667 355.5 1550.5 c 0
 369.166666667 1504.83333333 379 1453.66666667 385 1397 c 1
 481 1424 l 1
 481 1321 l 1
222 900 m 0
 205.333333333 900 194.833333333 894.5 190.5 883.5 c 0
 186.166666667 872.5 184 859.666666667 184 845 c 2
 184 141 l 2
 184 131 187.833333333 122.666666667 195.5 116 c 0
 203.166666667 109.333333333 212 106 222 106 c 0
 238.666666667 106 249.833333333 111.333333333 255.5 122 c 0
 261.166666667 132.666666667 264 144.333333333 264 157 c 2
 264 888 l 1
 262 888 257.166666667 890 249.5 894 c 0
 241.833333333 898 232.666666667 900 222 900 c 0
EndSplineSet
EndChar

StartChar: divide
Encoding: 247 247 189
Width: 561
GlyphClass: 2
Flags: W
HStem: 415 184<196 379> 665 135<24 537> 858 186<196 379>
VStem: 196 183<415 599 858 1044>
LayerCount: 2
Fore
SplineSet
537 665 m 1
 24 665 l 1
 24 800 l 1
 537 800 l 1
 537 665 l 1
379 1044 m 1
 379 858 l 1
 196 858 l 1
 196 1044 l 1
 379 1044 l 1
379 599 m 1
 379 415 l 1
 196 415 l 1
 196 599 l 1
 379 599 l 1
EndSplineSet
EndChar

StartChar: oslash
Encoding: 248 248 190
Width: 458
GlyphClass: 2
Flags: W
HStem: -21 99<190.272 262.256> 1450 95<190.272 262.256>
VStem: 53 137<78.8833 479.767 728 1449.99> 268 139<87.2822 834 1095.29 1439.69>
LayerCount: 2
Fore
SplineSet
407 130 m 2
 407 109.333333333 402.166666667 89.8333333333 392.5 71.5 c 0
 382.833333333 53.1666666667 370 37.1666666667 354 23.5 c 0
 338 9.83333333333 319.333333333 -1 298 -9 c 0
 276.666666667 -17 254.333333333 -21 231 -21 c 0
 207 -21 184.166666667 -17 162.5 -9 c 0
 140.833333333 -1 121.833333333 10 105.5 24 c 0
 89.1666666667 38 76.3333333333 54.5 67 73.5 c 0
 57.6666666667 92.5 53 113 53 135 c 2
 53 1391 l 2
 53 1411.66666667 57.6666666667 1431.33333333 67 1450 c 0
 76.3333333333 1468.66666667 89.1666666667 1485 105.5 1499 c 0
 121.833333333 1513 140.833333333 1524.16666667 162.5 1532.5 c 0
 184.166666667 1540.83333333 207 1545 231 1545 c 0
 254.333333333 1545 276.666666667 1541.16666667 298 1533.5 c 0
 319.333333333 1525.83333333 338 1515.33333333 354 1502 c 0
 370 1488.66666667 382.833333333 1472.66666667 392.5 1454 c 0
 402.166666667 1435.33333333 407 1415 407 1393 c 2
 407 130 l 2
268 834 m 1
 190 400 l 1
 190 109 l 2
 190 103.666666667 193.5 97.1666666667 200.5 89.5 c 0
 207.5 81.8333333333 217.666666667 78 231 78 c 0
 241.666666667 78 250.5 81 257.5 87 c 0
 264.5 93 268 100.333333333 268 109 c 2
 268 834 l 1
268 1178 m 1
 268 1415 l 2
 268 1425 264.5 1433.33333333 257.5 1440 c 0
 250.5 1446.66666667 241.666666667 1450 231 1450 c 0
 221 1450 211.666666667 1446.66666667 203 1440 c 0
 194.333333333 1433.33333333 190 1425 190 1415 c 2
 190 728 l 1
 268 1178 l 1
EndSplineSet
EndChar

StartChar: thorn
Encoding: 254 254 196
Width: 437
GlyphClass: 2
Flags: W
HStem: 224 106<189 249.008> 1181 99<189 249.008> 1540 20G<54 189>
VStem: 55 134<-241 224 330 1181 1280 1560> 265 129<339.8 1170.68>
LayerCount: 2
Fore
SplineSet
189 1560 m 1
 189 1280 l 1
 223 1280 l 2
 245.666666667 1280 267.333333333 1276.83333333 288 1270.5 c 0
 308.666666667 1264.16666667 327 1255 343 1243 c 0
 359 1231 371.666666667 1216.33333333 381 1199 c 0
 390.333333333 1181.66666667 395 1161.66666667 395 1139 c 2
 395 602 l 2
 395 558 394.833333333 519.333333333 394.5 486 c 0
 394.166666667 452.666666667 394 425.333333333 394 404 c 2
 394 374 l 2
 394 346 388.166666667 322.5 376.5 303.5 c 0
 364.833333333 284.5 349.333333333 269.333333333 330 258 c 0
 310.666666667 246.666666667 288.5 238.333333333 263.5 233 c 0
 238.5 227.666666667 212.666666667 224.666666667 186 224 c 1
 186 -241 l 1
 55 -241 l 1
 54 1560 l 1
 189 1560 l 1
265 1139 m 2
 265 1153.66666667 259.833333333 1164.33333333 249.5 1171 c 0
 239.166666667 1177.66666667 219 1181 189 1181 c 1
 189 330 l 1
 219 330 239.166666667 333.166666667 249.5 339.5 c 0
 259.833333333 345.833333333 265 356.333333333 265 371 c 2
 265 1139 l 2
EndSplineSet
EndChar

StartChar: Dcroat
Encoding: 272 272 214
Width: 473
GlyphClass: 2
Flags: W
HStem: 0 114<189 279.811> 886 105<-1 250> 1644 117<189 262.274>
VStem: 55 134<114 1644> 286 135<128.736 1639.35>
LayerCount: 2
Fore
SplineSet
250 886 m 1
 -1 886 l 1
 -1 991 l 1
 250 991 l 1
 250 886 l 1
286 1605 m 2
 286 1625 278.333333333 1636.5 263 1639.5 c 0
 247.666666667 1642.5 223 1644 189 1644 c 1
 189 114 l 1
 205 114 219 114.166666667 231 114.5 c 0
 243 114.833333333 253.166666667 116 261.5 118 c 0
 269.833333333 120 276 123.5 280 128.5 c 0
 284 133.5 286 140.666666667 286 150 c 2
 286 1605 l 2
421 150 m 2
 421 130 416.333333333 110.833333333 407 92.5 c 0
 397.666666667 74.1666666667 385 58.1666666667 369 44.5 c 0
 353 30.8333333333 334 20 312 12 c 0
 290 4 266.666666667 0 242 0 c 2
 55 0 l 1
 55 1761 l 1
 242 1761 l 2
 266 1761 288.833333333 1757.16666667 310.5 1749.5 c 0
 332.166666667 1741.83333333 351.166666667 1731.33333333 367.5 1718 c 0
 383.833333333 1704.66666667 396.833333333 1689 406.5 1671 c 0
 416.166666667 1653 421 1633.66666667 421 1613 c 2
 421 150 l 2
EndSplineSet
EndChar

StartChar: dcroat
Encoding: 273 273 215
Width: 443
GlyphClass: 2
Flags: W
HStem: 0 21G<55 82> 2 100<189 239.949> 750 109<0 227> 1429 89.5<189 239.949>
VStem: 0 227<750 859> 55 134<102 1429> 258 133<108.191 1423.32>
LayerCount: 2
Fore
SplineSet
227 750 m 1x3a
 0 750 l 1
 0 859 l 1
 227 859 l 1
 227 750 l 1x3a
258 1399 m 2
 258 1411.66666667 252.166666667 1419.83333333 240.5 1423.5 c 0
 228.833333333 1427.16666667 211.666666667 1429 189 1429 c 1
 189 102 l 1x76
 211.666666667 102 228.833333333 104 240.5 108 c 0
 252.166666667 112 258 120.333333333 258 133 c 2
 258 1399 l 2
391 135 m 2
 391 101 383.666666667 74.8333333333 369 56.5 c 0
 354.333333333 38.1666666667 332.666666667 24.8333333333 304 16.5 c 0
 275.333333333 8.16666666667 240.166666667 3.33333333333 198.5 2 c 0x76
 156.833333333 0.666666666667 109 0 55 0 c 1xb6
 55 1520 l 1
 109 1520 156.833333333 1519.5 198.5 1518.5 c 0
 240.166666667 1517.5 275.333333333 1513 304 1505 c 0
 332.666666667 1497 354.333333333 1484.16666667 369 1466.5 c 0
 383.666666667 1448.83333333 391 1423.66666667 391 1391 c 2
 391 135 l 2
EndSplineSet
EndChar

StartChar: dotlessi
Encoding: 305 305 246
Width: 292
GlyphClass: 2
Flags: W
HStem: 0 21G<79 213>
VStem: 79 134<0 1520>
LayerCount: 2
Fore
SplineSet
213 1520 m 1
 213 0 l 1
 79 0 l 1
 79 1520 l 1
 213 1520 l 1
EndSplineSet
EndChar

StartChar: Lslash
Encoding: 321 321 258
Width: 347
GlyphClass: 2
Flags: W
HStem: 0 111<206 350> 822 117<233 350> 1741 20G<72 206>
VStem: 72 278<0 111 884 910> 72 134<111 767 910 1761>
DStem2: -15 867 -15 750 0.981094 0.193531<0 66.0021 225.144 349.39>
LayerCount: 2
Fore
SplineSet
206 1761 m 1xe8
 206 910 l 1xe8
 350 939 l 1
 350 822 l 1xf0
 206 794 l 1
 206 111 l 1xe8
 350 111 l 1
 350 0 l 1
 72 0 l 1xf0
 72 767 l 1xe8
 -15 750 l 1
 -15 867 l 1
 72 884 l 1xf0
 72 1761 l 1
 206 1761 l 1xe8
EndSplineSet
EndChar

StartChar: lslash
Encoding: 322 322 259
Width: 313
GlyphClass: 2
Flags: W
HStem: 0 101<186 312> 744 117<195 312>
VStem: 55 257<0 101 803 832> 55 131<101 686 832 1520>
LayerCount: 2
Fore
SplineSet
186 1520 m 1xd0
 186 832 l 1xd0
 312 861 l 1
 312 744 l 1xe0
 186 716 l 1
 186 101 l 1xd0
 312 101 l 1
 312 0 l 1
 55 0 l 1xe0
 55 686 l 1xd0
 -9 672 l 1
 -9 789 l 1
 55 803 l 1xe0
 55 1520 l 1
 186 1520 l 1xd0
EndSplineSet
EndChar

StartChar: Eng
Encoding: 330 330 266
Width: 479
GlyphClass: 2
Flags: W
HStem: -478 108<202.174 282.265> 0 21G<55 189 286.963 424> 1741 20G<55 189.17 298 424>
VStem: 55 134<-360.716 -69 0 982 1645.22 1761> 289 135<-358.139 382 738 1761>
DStem2: 298 738 189 982 0.107871 -0.994165<-254.334 0>
LayerCount: 2
Fore
SplineSet
424 -328 m 2
 424 -349.333333333 419.333333333 -369.166666667 410 -387.5 c 0
 400.666666667 -405.833333333 387.833333333 -421.666666667 371.5 -435 c 0
 355.166666667 -448.333333333 336.166666667 -458.833333333 314.5 -466.5 c 0
 292.833333333 -474.166666667 269.666666667 -478 245 -478 c 0
 219.666666667 -478 195.833333333 -474.166666667 173.5 -466.5 c 0
 151.166666667 -458.833333333 131.5 -448.333333333 114.5 -435 c 0
 97.5 -421.666666667 84.1666666667 -406 74.5 -388 c 0
 64.8333333333 -370 60 -350.666666667 60 -330 c 2
 60 -69 l 1
 194 -69 l 1
 194 -330 l 2
 194 -344.666666667 199 -355 209 -361 c 0
 219 -367 231 -370 245 -370 c 0
 257.666666667 -370 268.166666667 -366.166666667 276.5 -358.5 c 0
 284.833333333 -350.833333333 289 -341.333333333 289 -330 c 2
 289 382 l 1
 424 382 l 1
 424 -328 l 2
424 0 m 1
 289 0 l 1
 189 982 l 1
 189 0 l 1
 55 0 l 1
 55 1761 l 1
 187 1761 l 1
 298 738 l 1
 298 1761 l 1
 424 1761 l 1
 424 0 l 1
EndSplineSet
EndChar

StartChar: eng
Encoding: 331 331 267
Width: 451
GlyphClass: 2
Flags: W
HStem: -483 102<189.271 254.406> 0 21G<55 186 271.661 395>
VStem: 55 131<-295.011 -91 0 855 1498.51 1520> 58 131<-380.7 -91 0 817.152> 260 135<-373.264 364> 274 121<0 54.1728 637 1520>
LayerCount: 2
Fore
SplineSet
395 0 m 1xc8
 274 0 l 1
 174 855 l 1
 186 0 l 1
 55 0 l 1
 55 1520 l 1
 175 1520 l 1
 282 637 l 1
 274 1520 l 1
 395 1520 l 1xe4
 395 0 l 1xc8
395 -353 m 2xd8
 395 -371 390.333333333 -387.833333333 381 -403.5 c 0
 371.666666667 -419.166666667 359.333333333 -433 344 -445 c 0
 328.666666667 -457 310.833333333 -466.333333333 290.5 -473 c 0
 270.166666667 -479.666666667 248.666666667 -483 226 -483 c 0
 204 -483 182.833333333 -479.666666667 162.5 -473 c 0
 142.166666667 -466.333333333 124.166666667 -457 108.5 -445 c 0
 92.8333333333 -433 80.5 -419.166666667 71.5 -403.5 c 0
 62.5 -387.833333333 58 -371 58 -353 c 2
 58 -91 l 1
 187 -91 l 1
 189 -353 l 2
 189 -361.666666667 192.833333333 -368.5 200.5 -373.5 c 0
 208.166666667 -378.5 216.666666667 -381 226 -381 c 256
 235.333333333 -381 243.333333333 -378.5 250 -373.5 c 0
 256.666666667 -368.5 260 -361.666666667 260 -353 c 2
 260 364 l 1
 395 364 l 1
 395 -353 l 2xd8
EndSplineSet
EndChar

StartChar: OE
Encoding: 338 338 274
Width: 603
GlyphClass: 2
Flags: W
HStem: -21 109<192.602 272.036> 0 112<415 595> 876 120<415 548> 1644 117<415 595> 1679 105<192.602 278.855>
VStem: 52 134<100.376 1666.62> 279 269<876 996> 279 136<112.329 876 996 1643.7>
LayerCount: 2
Fore
SplineSet
52 1637 m 2xa5
 52 1657 56.8333333333 1676 66.5 1694 c 0
 76.1666666667 1712 89.1666666667 1727.66666667 105.5 1741 c 0
 121.833333333 1754.33333333 140.833333333 1764.83333333 162.5 1772.5 c 0
 184.166666667 1780.16666667 207 1784 231 1784 c 0xad
 266.333333333 1784 298.666666667 1776.33333333 328 1761 c 1
 595 1761 l 1
 595 1644 l 1
 415 1644 l 1
 415 996 l 1x35
 548 996 l 1
 548 876 l 1x36
 415 876 l 1
 415 112 l 1
 595 112 l 1
 595 0 l 1
 324 0 l 1x75
 308.666666667 -7.33333333333 293.666666667 -12.3333333333 279 -15 c 1
 263.666666667 -19 247.666666667 -21 231 -21 c 0
 207 -21 184.166666667 -17.1666666667 162.5 -9.5 c 0
 140.833333333 -1.83333333333 121.833333333 8.66666666667 105.5 22 c 0
 89.1666666667 35.3333333333 76.1666666667 50.8333333333 66.5 68.5 c 0
 56.8333333333 86.1666666667 52 104.666666667 52 124 c 2
 52 1637 l 2xa5
186 127 m 2
 186 117 190.166666667 108 198.5 100 c 0
 206.833333333 92 217.666666667 88 231 88 c 0
 245 88 256.5 92 265.5 100 c 0
 274.5 108 279 117 279 127 c 2
 279 1638 l 2
 279 1649.33333333 274.166666667 1659 264.5 1667 c 0
 254.833333333 1675 243.666666667 1679 231 1679 c 0
 217.666666667 1679 206.833333333 1675 198.5 1667 c 0
 190.166666667 1659 186 1649.33333333 186 1638 c 2
 186 127 l 2
EndSplineSet
EndChar

StartChar: oe
Encoding: 339 339 275
Width: 589
GlyphClass: 2
Flags: W
HStem: -21 99<197.783 261.265> 0 101<406 573> 752 106<406 531> 1429 91<406 573> 1450 95<194.091 265.749>
VStem: 52 137<85.2197 1425.76> 267 139<101.266 752 858 1428.75>
LayerCount: 2
Fore
SplineSet
573 1429 m 1x36
 406 1429 l 1
 406 858 l 1
 531 858 l 1
 531 752 l 1
 406 752 l 1
 406 101 l 1
 573 101 l 1
 573 0 l 1
 316 0 l 1x76
 304 -7.33333333333 290 -12.3333333333 274 -15 c 1
 260.666666667 -19 246 -21 230 -21 c 0
 205.333333333 -21 182.166666667 -17 160.5 -9 c 0
 138.833333333 -1 120 10 104 24 c 0
 88 38 75.3333333333 54.5 66 73.5 c 0
 56.6666666667 92.5 52 113 52 135 c 2
 52 1391 l 2
 52 1411.66666667 56.6666666667 1431.33333333 66 1450 c 0
 75.3333333333 1468.66666667 88 1485 104 1499 c 0
 120 1513 138.833333333 1524.16666667 160.5 1532.5 c 0
 182.166666667 1540.83333333 205.333333333 1545 230 1545 c 0xae
 264 1545 295.666666667 1536.66666667 325 1520 c 1
 573 1520 l 1
 573 1429 l 1x36
267 1373 m 2
 267 1383 266.666666667 1392.66666667 266 1402 c 0
 265.333333333 1411.33333333 263.666666667 1419.5 261 1426.5 c 0
 258.333333333 1433.5 254.666666667 1439.16666667 250 1443.5 c 0
 245.333333333 1447.83333333 238.666666667 1450 230 1450 c 0
 212 1450 200.666666667 1442.16666667 196 1426.5 c 0
 191.333333333 1410.83333333 189 1393 189 1373 c 2
 189 151 l 2
 189 143.666666667 189.166666667 135.666666667 189.5 127 c 0
 189.833333333 118.333333333 191.166666667 110.333333333 193.5 103 c 0
 195.833333333 95.6666666667 199.833333333 89.6666666667 205.5 85 c 0
 211.166666667 80.3333333333 219.333333333 78 230 78 c 256xae
 240.666666667 78 249.5 81 256.5 87 c 0
 263.5 93 267 100.333333333 267 109 c 2
 267 1373 l 2
EndSplineSet
EndChar

StartChar: florin
Encoding: 402 402 318
Width: 439
GlyphClass: 2
Flags: W
HStem: 0 21G<24 154.739> 759 105<228 338> 1422 98<277 443>
VStem: 24 129<0 129>
DStem2: 24 0 153 0 0.087167 0.996194<11.2445 773.109 878.493 1438.64>
LayerCount: 2
Fore
SplineSet
443 1422 m 1
 277 1422 l 1
 228 864 l 1
 348 864 l 1
 338 759 l 1
 219 759 l 1
 153 0 l 1
 24 0 l 1
 157 1520 l 1
 451 1520 l 1
 443 1422 l 1
EndSplineSet
EndChar

StartChar: circumflex
Encoding: 710 710 327
Width: 326
GlyphClass: 2
Flags: W
HStem: 84 346<-56 -14 47 90>
VStem: 31 101<84 185> 193 102<84 186>
DStem2: 31 84 132 84 0.168094 0.985771<16.9775 256.802> 236 430 163 322 0.168094 -0.985771<94.1924 333.849>
LayerCount: 2
Fore
SplineSet
236 430 m 1
 295 84 l 1
 193 84 l 1
 163 322 l 1
 132 84 l 1
 31 84 l 1
 90 430 l 1
 236 430 l 1
EndSplineSet
EndChar

StartChar: caron
Encoding: 711 711 328
Width: 326
GlyphClass: 2
Flags: W
HStem: 84 346<91 133 195 236>
VStem: 33 100<330 430> 195 101<329 430>
DStem2: 133 430 33 430 0.165323 -0.986239<0 238.698> 163 193 236 84 0.17086 0.985295<0 238.983>
LayerCount: 2
Fore
SplineSet
91 84 m 1
 33 430 l 1
 133 430 l 1
 163 193 l 1
 195 430 l 1
 296 430 l 1
 236 84 l 1
 91 84 l 1
EndSplineSet
EndChar

StartChar: breve
Encoding: 728 728 329
Width: 326
GlyphClass: 2
Flags: W
HStem: 84 115<83.3859 245.833>
VStem: -28 101<205.625 308> 255 101<205.625 308>
LayerCount: 2
Fore
SplineSet
166 84 m 0
 97.3333333333 84 47.8333333333 101.5 17.5 136.5 c 0
 -12.8333333333 171.5 -28 228.666666667 -28 308 c 1
 73 308 l 1
 73 284 75.3333333333 264.833333333 80 250.5 c 0
 84.6666666667 236.166666667 91 225.166666667 99 217.5 c 0
 107 209.833333333 116.5 204.833333333 127.5 202.5 c 0
 138.5 200.166666667 150.333333333 199 163 199 c 0
 177 199 189.666666667 200.166666667 201 202.5 c 0
 212.333333333 204.833333333 222 209.833333333 230 217.5 c 0
 238 225.166666667 244.166666667 236.166666667 248.5 250.5 c 0
 252.833333333 264.833333333 255 284 255 308 c 1
 356 308 l 1
 356 228.666666667 341 171.5 311 136.5 c 0
 281 101.5 232.666666667 84 166 84 c 0
EndSplineSet
EndChar

StartChar: dotaccent
Encoding: 729 729 330
Width: 254
GlyphClass: 2
Flags: W
HStem: 99 185<55 237>
VStem: 55 182<99 284>
LayerCount: 2
Fore
SplineSet
237 284 m 1
 237 99 l 1
 55 99 l 1
 55 284 l 1
 237 284 l 1
EndSplineSet
EndChar

StartChar: ring
Encoding: 730 730 331
Width: 326
GlyphClass: 2
Flags: W
HStem: 66 78<123.571 228.329> 270 78<123.571 228.441>
VStem: 33 79<155.709 258.985> 240 78<156.102 258.808>
LayerCount: 2
Fore
SplineSet
33 206 m 0
 33 226 36.6666666667 244.666666667 44 262 c 0
 51.3333333333 279.333333333 61.3333333333 294.333333333 74 307 c 0
 86.6666666667 319.666666667 101.666666667 329.666666667 119 337 c 0
 136.333333333 344.333333333 155 348 175 348 c 0
 217 348 251.333333333 334.666666667 278 308 c 256
 304.666666667 281.333333333 318 247.333333333 318 206 c 0
 318 186.666666667 314.333333333 168.5 307 151.5 c 0
 299.666666667 134.5 289.666666667 119.666666667 277 107 c 0
 264.333333333 94.3333333333 249.333333333 84.3333333333 232 77 c 0
 214.666666667 69.6666666667 195.666666667 66 175 66 c 0
 155 66 136.333333333 69.6666666667 119 77 c 0
 101.666666667 84.3333333333 86.6666666667 94.3333333333 74 107 c 0
 61.3333333333 119.666666667 51.3333333333 134.5 44 151.5 c 0
 36.6666666667 168.5 33 186.666666667 33 206 c 0
112 207 m 0
 112 189.666666667 118 174.833333333 130 162.5 c 0
 142 150.166666667 157 144 175 144 c 0
 194.333333333 144 210 150.166666667 222 162.5 c 0
 234 174.833333333 240 189.666666667 240 207 c 0
 240 225.666666667 234 240.833333333 222 252.5 c 0
 210 264.166666667 194.333333333 270 175 270 c 0
 157 270 142 264.166666667 130 252.5 c 0
 118 240.833333333 112 225.666666667 112 207 c 0
EndSplineSet
EndChar

StartChar: ogonek
Encoding: 731 731 332
Width: 326
GlyphClass: 2
Flags: W
HStem: -283 84<168.115 336> -20 20G<111.667 186>
VStem: 63 85<-185.232 -34.625>
LayerCount: 2
Fore
SplineSet
223 -283 m 0
 197.666666667 -283 175.166666667 -279 155.5 -271 c 0
 135.833333333 -263 119.166666667 -252.166666667 105.5 -238.5 c 0
 91.8333333333 -224.833333333 81.3333333333 -208.666666667 74 -190 c 0
 66.6666666667 -171.333333333 63 -151.333333333 63 -130 c 0
 63 -92 87.3333333333 -48.6666666667 136 0 c 1
 186 0 l 1
 177.333333333 -13.3333333333 170.666666667 -26.6666666667 166 -40 c 0
 161.333333333 -51.3333333333 157.166666667 -64 153.5 -78 c 0
 149.833333333 -92 148 -106 148 -120 c 0
 148 -145.333333333 154.5 -164.833333333 167.5 -178.5 c 0
 180.5 -192.166666667 201.333333333 -199 230 -199 c 0
 246 -199 260.666666667 -197 274 -193 c 0
 287.333333333 -189 299.333333333 -184.666666667 310 -180 c 0
 316.666666667 -176.666666667 322.833333333 -173.5 328.5 -170.5 c 0
 334.166666667 -167.5 340 -164 346 -160 c 1
 346 -232 l 1
 335.333333333 -242.666666667 324.666666667 -251.333333333 314 -258 c 0
 303.333333333 -264 290.666666667 -269.666666667 276 -275 c 0
 261.333333333 -280.333333333 243.666666667 -283 223 -283 c 0
EndSplineSet
EndChar

StartChar: tilde
Encoding: 732 732 333
Width: 326
GlyphClass: 2
Flags: W
HStem: 101 116<90.2022 312.069> 145 115<36.4465 254.189>
VStem: -15 79<101 144.43> 286 77<217.002 260>
LayerCount: 2
Fore
SplineSet
-15 101 m 1xb0
 -15 123.666666667 -13.1666666667 144.666666667 -9.5 164 c 0
 -5.83333333333 183.333333333 0.166666666667 200.166666667 8.5 214.5 c 0
 16.8333333333 228.833333333 27.5 240 40.5 248 c 0
 53.5 256 69.6666666667 260 89 260 c 0x70
 105.666666667 260 120.166666667 257.833333333 132.5 253.5 c 0
 144.833333333 249.166666667 157 244.166666667 169 238.5 c 0
 181 232.833333333 193.833333333 227.833333333 207.5 223.5 c 0
 221.166666667 219.166666667 237 217 255 217 c 0xb0
 261.666666667 217 267 219.166666667 271 223.5 c 0
 275 227.833333333 278 232.666666667 280 238 c 1
 283.333333333 244 285.333333333 251.333333333 286 260 c 1
 365 260 l 1x70
 365 244.666666667 364.333333333 230.5 363 217.5 c 0
 361.666666667 204.5 359 192.333333333 355 181 c 0
 348.333333333 160.333333333 337.5 141.833333333 322.5 125.5 c 0
 307.5 109.166666667 285 101 255 101 c 0xb0
 238.333333333 101 222.833333333 103.333333333 208.5 108 c 0
 194.166666667 112.666666667 180.5 117.666666667 167.5 123 c 0
 154.5 128.333333333 141.666666667 133.333333333 129 138 c 0
 116.333333333 142.666666667 103.333333333 145 90 145 c 0x70
 84 145 79.1666666667 142.833333333 75.5 138.5 c 0
 71.8333333333 134.166666667 69 129 67 123 c 0
 65 117.666666667 64 110.333333333 64 101 c 1
 -15 101 l 1xb0
EndSplineSet
EndChar

StartChar: hungarumlaut
Encoding: 733 733 334
Width: 652
GlyphClass: 2
Flags: W
HStem: 84 410
VStem: 47 488
LayerCount: 2
Fore
SplineSet
338 494 m 1
 148 84 l 1
 47 84 l 1
 180 494 l 1
 338 494 l 1
535 494 m 1
 294 84 l 1
 193 84 l 1
 377 494 l 1
 535 494 l 1
EndSplineSet
EndChar

StartChar: Delta
Encoding: 916 916 335
AltUni2: 002206.ffffffff.0
Width: 436
GlyphClass: 2
Flags: W
HStem: 0 114<156 278> 1475 286<-20 456>
VStem: 24 388
LayerCount: 2
Fore
SplineSet
412 0 m 1
 24 0 l 1
 123 1761 l 1
 313 1761 l 1
 412 0 l 1
278 114 m 1
 217 1475 l 1
 156 114 l 1
 278 114 l 1
EndSplineSet
EndChar

StartChar: Omega
Encoding: 937 937 336
AltUni2: 002126.ffffffff.0
Width: 513
GlyphClass: 2
Flags: W
HStem: 0 107<30 130 388 484> 1680 102<218.274 299.136>
VStem: 30 206<0 107> 70 137<139.347 1670.72> 282 202<0 107> 310 138<138.848 1670.72>
LayerCount: 2
Fore
SplineSet
259 1680 m 0xc4
 244.333333333 1680 233.5 1677 226.5 1671 c 0
 219.5 1665 214.5 1656.83333333 211.5 1646.5 c 0
 208.5 1636.16666667 207 1623.83333333 207 1609.5 c 0
 207 1588 207 1588 207 1563 c 2
 207 422 l 2xd4
 207 365.333333333 208.5 317.5 211.5 278.5 c 0
 214.5 239.5 217.666666667 207 221 181 c 0
 225 151.666666667 230 127 236 107 c 1
 236 0 l 1
 30 0 l 1
 30 107 l 1xe0
 130 107 l 1
 119.333333333 126.333333333 109.333333333 151 100 181 c 0
 92 207 85 239.5 79 278.5 c 0
 73 317.5 70 365 70 421 c 2
 70 1563 l 2
 70 1587.66666667 71.8333333333 1613 75.5 1639 c 0
 79.1666666667 1665 87.5 1688.5 100.5 1709.5 c 0
 113.5 1730.5 132.5 1747.83333333 157.5 1761.5 c 0
 182.5 1775.16666667 216.333333333 1782 259 1782 c 0
 301 1782 334.5 1775.16666667 359.5 1761.5 c 0
 384.5 1747.83333333 403.5 1730.5 416.5 1709.5 c 0
 429.5 1688.5 438 1665 442 1639 c 0
 446 1613 448 1587.66666667 448 1563 c 2
 448 421 l 2xd4
 448 365 444.833333333 317.5 438.5 278.5 c 0
 432.166666667 239.5 425.333333333 207 418 181 c 1
 408.666666667 151 398.666666667 126.333333333 388 107 c 1
 484 107 l 1
 484 0 l 1
 282 0 l 1
 282 107 l 1xc8
 284.666666667 117 287.166666667 128.166666667 289.5 140.5 c 0
 291.833333333 152.833333333 294 166.333333333 296 181 c 0
 299.333333333 207 302.5 239.5 305.5 278.5 c 0
 308.5 317.5 310 365.333333333 310 422 c 2
 310 1563 l 2
 310 1588 310 1588 310 1609.5 c 0
 310 1623.83333333 308.666666667 1636.16666667 306 1646.5 c 0
 303.333333333 1656.83333333 298.333333333 1665 291 1671 c 0
 283.666666667 1677 273 1680 259 1680 c 0xc4
EndSplineSet
EndChar

StartChar: pi
Encoding: 960 960 337
Width: 292
GlyphClass: 2
Flags: W
HStem: 0 21G<79 213>
VStem: 79 134<0 1517>
LayerCount: 2
Fore
SplineSet
213 1517 m 1
 213 0 l 1
 79 0 l 1
 79 1517 l 1
 213 1517 l 1
EndSplineSet
EndChar

StartChar: endash
Encoding: 8211 8211 353
Width: 691
GlyphClass: 2
Flags: W
HStem: 750 135<23 668>
VStem: 23 645<750 885>
LayerCount: 2
Fore
SplineSet
668 750 m 1
 23 750 l 1
 23 885 l 1
 668 885 l 1
 668 750 l 1
EndSplineSet
EndChar

StartChar: emdash
Encoding: 8212 8212 354
Width: 691
GlyphClass: 2
Flags: W
HStem: 750 135<23 668>
VStem: 23 645<750 885>
LayerCount: 2
Fore
SplineSet
668 750 m 1
 23 750 l 1
 23 885 l 1
 668 885 l 1
 668 750 l 1
EndSplineSet
EndChar

StartChar: quoteleft
Encoding: 8216 8216 355
Width: 488
GlyphClass: 2
Flags: W
HStem: 1403 360<81 166>
VStem: 7 159<1403 1472.74> 81 85<1693.26 1763>
LayerCount: 2
Fore
SplineSet
7 1403 m 1xc0
 81 1763 l 1
 166 1763 l 1xa0
 166 1403 l 1
 7 1403 l 1xc0
EndSplineSet
EndChar

StartChar: quoteright
Encoding: 8217 8217 356
Width: 488
GlyphClass: 2
Flags: W
HStem: 1402 359<242 326>
VStem: 241 159<1691.45 1761> 242 84<1402 1471.55>
LayerCount: 2
Fore
SplineSet
400 1761 m 1xc0
 326 1402 l 1
 242 1402 l 1xa0
 241 1761 l 1
 400 1761 l 1xc0
EndSplineSet
EndChar

StartChar: quotesinglbase
Encoding: 8218 8218 357
Width: 488
GlyphClass: 2
Flags: W
HStem: 0 360<81 166>
VStem: 7 159<0 69.7427> 81 85<290.257 360>
LayerCount: 2
Fore
SplineSet
7 0 m 1xc0
 81 360 l 1
 166 360 l 1xa0
 166 0 l 1
 7 0 l 1xc0
EndSplineSet
EndChar

StartChar: quotedblleft
Encoding: 8220 8220 358
Width: 488
GlyphClass: 2
Flags: W
HStem: 1403 360<81 166 300 384>
VStem: 7 159<1403 1472.74> 81 85<1693.26 1763> 226 159<1403 1472.74> 300 84<1693.26 1763>
LayerCount: 2
Fore
SplineSet
226 1403 m 1x90
 300 1763 l 1
 384 1763 l 1x88
 385 1403 l 1
 226 1403 l 1x90
7 1403 m 1xc0
 81 1763 l 1
 166 1763 l 1xa0
 166 1403 l 1
 7 1403 l 1xc0
EndSplineSet
EndChar

StartChar: quotedblright
Encoding: 8221 8221 359
Width: 488
GlyphClass: 2
Flags: W
HStem: 1402 359<23 108 242 326>
VStem: 21 160<1690.5 1761> 23 85<1402 1472.5> 241 159<1691.45 1761> 242 84<1402 1471.55>
LayerCount: 2
Fore
SplineSet
181 1761 m 1xc0
 108 1402 l 1
 23 1402 l 1xa0
 21 1761 l 1
 181 1761 l 1xc0
400 1761 m 1x90
 326 1402 l 1
 242 1402 l 1x88
 241 1761 l 1
 400 1761 l 1x90
EndSplineSet
EndChar

StartChar: quotedblbase
Encoding: 8222 8222 360
Width: 488
GlyphClass: 2
Flags: W
HStem: 0 360<242 326>
VStem: 241 159<290.257 360> 242 84<0 69.7427>
LayerCount: 2
Fore
SplineSet
400 360 m 1xc0
 326 0 l 1
 242 0 l 1xa0
 241 360 l 1
 400 360 l 1xc0
EndSplineSet
EndChar

StartChar: dagger
Encoding: 8224 8224 361
Width: 350
GlyphClass: 2
Flags: W
HStem: 1005 99<0 112 240 348>
VStem: 112 126<136 1005 1104 1324>
LayerCount: 2
Fore
SplineSet
114 1104 m 1
 114 1324 l 1
 240 1324 l 1
 240 1104 l 1
 348 1104 l 1
 348 1005 l 1
 238 1005 l 1
 238 136 l 1
 112 136 l 1
 112 1005 l 1
 0 1005 l 1
 0 1104 l 1
 114 1104 l 1
EndSplineSet
EndChar

StartChar: daggerdbl
Encoding: 8225 8225 362
Width: 659
GlyphClass: 2
Flags: W
HStem: 0 21G<264 397> 525 130<24 264 397 635> 1252 130<24 264 397 635> 1741 20G<264 397>
VStem: 264 133<0 525 655 1252 1382 1761>
LayerCount: 2
Fore
SplineSet
24 655 m 1
 264 655 l 1
 264 1252 l 1
 24 1252 l 1
 24 1382 l 1
 264 1382 l 1
 264 1761 l 1
 397 1761 l 1
 397 1382 l 1
 635 1382 l 1
 635 1252 l 1
 397 1252 l 1
 397 655 l 1
 635 655 l 1
 635 525 l 1
 397 525 l 1
 397 0 l 1
 264 0 l 1
 264 525 l 1
 24 525 l 1
 24 655 l 1
EndSplineSet
EndChar

StartChar: bullet
Encoding: 8226 8226 363
Width: 458
GlyphClass: 2
Flags: W
HStem: 532 781<104.752 352.995>
VStem: 52 354<584.434 1261.2>
LayerCount: 2
Fore
SplineSet
406 683 m 2
 406 662.333333333 401.166666667 642.833333333 391.5 624.5 c 0
 381.833333333 606.166666667 369 590.166666667 353 576.5 c 0
 337 562.833333333 318.333333333 552 297 544 c 0
 275.666666667 536 253.333333333 532 230 532 c 0
 205.333333333 532 182.166666667 536 160.5 544 c 0
 138.833333333 552 120 563.166666667 104 577.5 c 0
 88 591.833333333 75.3333333333 608.5 66 627.5 c 0
 56.6666666667 646.5 52 667 52 689 c 2
 52 1159 l 2
 52 1180.33333333 56.6666666667 1200.33333333 66 1219 c 0
 75.3333333333 1237.66666667 88 1254 104 1268 c 0
 120 1282 138.833333333 1293 160.5 1301 c 0
 182.166666667 1309 205.333333333 1313 230 1313 c 0
 253.333333333 1313 275.666666667 1309.33333333 297 1302 c 0
 318.333333333 1294.66666667 337 1284.16666667 353 1270.5 c 0
 369 1256.83333333 381.833333333 1240.83333333 391.5 1222.5 c 0
 401.166666667 1204.16666667 406 1184 406 1162 c 2
 406 683 l 2
EndSplineSet
EndChar

StartChar: guilsinglleft
Encoding: 8249 8249 366
Width: 342
GlyphClass: 2
Flags: W
VStem: 20 283
DStem2: 156 881 20 881 0.438515 -0.898724<0 309.813> 20 881 156 881 0.439127 0.898425<59.7212 389.308>
LayerCount: 2
Fore
SplineSet
303 1460 m 1
 303 1176 l 1
 156 881 l 1
 303 608 l 1
 303 301 l 1
 20 881 l 1
 303 1460 l 1
EndSplineSet
EndChar

StartChar: fraction
Encoding: 8260 8260 368
Width: 324
GlyphClass: 2
Flags: W
HStem: 0 21G<1 137.147> 1741 20G<187.853 324>
VStem: 1 134<0 134> 190 134<1627 1761>
DStem2: 1 0 135 0 0.106713 0.99429<14.2995 1771.11>
LayerCount: 2
Fore
SplineSet
324 1761 m 1
 135 0 l 1
 1 0 l 1
 190 1761 l 1
 324 1761 l 1
EndSplineSet
EndChar

StartChar: Euro
Encoding: 8364 8364 369
Width: 538
GlyphClass: 2
Flags: W
HStem: -21 109<274.484 371.685> 870 106<-12 141 274 473> 1030 107<-9 141 274 500> 1667 117<281.429 371.668>
VStem: 141 133<89.0314 870 976 1030 1137 1655.14> 372 135<88.9531 621 1348 1666.36>
LayerCount: 2
Fore
SplineSet
500 1030 m 1
 274 1030 l 1
 274 976 l 1
 485 976 l 1
 473 870 l 1
 274 870 l 1
 274 127 l 2
 274 116.333333333 279 107.166666667 289 99.5 c 0
 299 91.8333333333 310.666666667 88 324 88 c 0
 336.666666667 88 347.833333333 91.8333333333 357.5 99.5 c 0
 367.166666667 107.166666667 372 116.333333333 372 127 c 2
 372 621 l 1
 507 621 l 1
 507 127 l 2
 507 105.666666667 502.666666667 86 494 68 c 0
 485.333333333 50 473 34.5 457 21.5 c 0
 441 8.5 421.666666667 -1.83333333333 399 -9.5 c 0
 376.333333333 -17.1666666667 351.333333333 -21 324 -21 c 0
 298.666666667 -21 274.833333333 -17 252.5 -9 c 0
 230.166666667 -1 210.666666667 9.66666666667 194 23 c 0
 177.333333333 36.3333333333 164.333333333 52.1666666667 155 70.5 c 0
 145.666666667 88.8333333333 141 108.666666667 141 130 c 2
 141 870 l 1
 -12 870 l 1
 -12 976 l 1
 141 976 l 1
 141 1030 l 1
 -9 1030 l 1
 -9 1137 l 1
 141 1137 l 1
 141 1634 l 2
 141 1655.33333333 145.5 1675.16666667 154.5 1693.5 c 0
 163.5 1711.83333333 176.166666667 1727.66666667 192.5 1741 c 0
 208.833333333 1754.33333333 228.166666667 1764.83333333 250.5 1772.5 c 0
 272.833333333 1780.16666667 297.666666667 1784 325 1784 c 0
 351.666666667 1784 376.166666667 1780.16666667 398.5 1772.5 c 0
 420.833333333 1764.83333333 440 1754.5 456 1741.5 c 0
 472 1728.5 484.5 1713 493.5 1695 c 0
 502.5 1677 507 1658 507 1638 c 2
 507 1348 l 1
 372 1348 l 1
 372 1628 l 2
 372 1638.66666667 367.333333333 1647.83333333 358 1655.5 c 0
 348.666666667 1663.16666667 337.666666667 1667 325 1667 c 0
 309.666666667 1667 297.333333333 1663.16666667 288 1655.5 c 0
 278.666666667 1647.83333333 274 1638.66666667 274 1628 c 2
 274 1137 l 1
 512 1137 l 1
 500 1030 l 1
EndSplineSet
EndChar

StartChar: afii61352
Encoding: 8470 8470 370
Width: 937
GlyphClass: 2
Flags: W
HStem: -21 99<669.272 740.366> 0 21G<55 189 286.963 424> 1450 95<675.461 740.366> 1741 20G<55 189.17 298 424>
VStem: 55 134<0 982 1645.22 1761> 298 126<0 129.156 738 1761> 531 138<78.8833 1439.69> 746 139<87.2822 1439.69>
DStem2: 298 738 189 982 0.107871 -0.994165<-254.334 0>
LayerCount: 2
Fore
SplineSet
424 0 m 1x7f
 289 0 l 1
 189 982 l 1
 189 0 l 1
 55 0 l 1
 55 1761 l 1
 187 1761 l 1
 298 738 l 1
 298 1761 l 1
 424 1761 l 1
 424 0 l 1x7f
885 130 m 2
 885 109.333333333 880.166666667 89.8333333333 870.5 71.5 c 0
 860.833333333 53.1666666667 848 37.1666666667 832 23.5 c 0
 816 9.83333333333 797.333333333 -1 776 -9 c 0
 754.666666667 -17 732.666666667 -21 710 -21 c 0xbf
 686 -21 663.166666667 -17 641.5 -9 c 0
 619.833333333 -1 600.833333333 10 584.5 24 c 0
 568.166666667 38 555.166666667 54.5 545.5 73.5 c 0
 535.833333333 92.5 531 113 531 135 c 2
 531 1391 l 2
 531 1411.66666667 535.833333333 1431.33333333 545.5 1450 c 0
 555.166666667 1468.66666667 568.166666667 1485 584.5 1499 c 0
 600.833333333 1513 619.833333333 1524.16666667 641.5 1532.5 c 0
 663.166666667 1540.83333333 686 1545 710 1545 c 0
 732.666666667 1545 754.666666667 1541.16666667 776 1533.5 c 0
 797.333333333 1525.83333333 816 1515.33333333 832 1502 c 0
 848 1488.66666667 860.833333333 1472.66666667 870.5 1454 c 0
 880.166666667 1435.33333333 885 1415 885 1393 c 2
 885 130 l 2
746 1415 m 2
 746 1425 742.5 1433.33333333 735.5 1440 c 0
 728.5 1446.66666667 720 1450 710 1450 c 0
 698.666666667 1450 689 1446.66666667 681 1440 c 0
 673 1433.33333333 669 1425 669 1415 c 2
 669 109 l 2
 669 103.666666667 672.5 97.1666666667 679.5 89.5 c 0
 686.5 81.8333333333 696.666666667 78 710 78 c 0
 720 78 728.5 81 735.5 87 c 0
 742.5 93 746 100.333333333 746 109 c 2
 746 1415 l 2
EndSplineSet
EndChar

StartChar: trademark
Encoding: 8482 8482 371
Width: 958
GlyphClass: 2
Flags: W
HStem: 1644 117<24 138 273 388>
VStem: 138 135<780 1644> 419 136<780 1306 1687.78 1761> 777 135<780 1306 1686.45 1761>
DStem2: 667 1189 555 1306 0.190502 -0.981687<-136.194 0> 667 1189 777 1306 0.187191 0.982324<0 135.523>
LayerCount: 2
Fore
SplineSet
776 1761 m 1
 912 1761 l 1
 912 780 l 1
 777 780 l 1
 777 1306 l 1
 697 780 l 1
 637 780 l 1
 555 1306 l 1
 555 780 l 1
 419 780 l 1
 419 1761 l 1
 556 1761 l 1
 667 1189 l 1
 776 1761 l 1
388 1761 m 1
 388 1644 l 1
 273 1644 l 1
 273 780 l 1
 138 780 l 1
 138 1644 l 1
 24 1644 l 1
 24 1761 l 1
 388 1761 l 1
EndSplineSet
EndChar

StartChar: partialdiff
Encoding: 8706 8706 372
Width: 448
GlyphClass: 2
Flags: W
HStem: -1 104<181.925 252.948> 826 116<195.116 260> 1740 20G<260 395>
VStem: 36 139<114.862 817.745> 260 135<114.862 826 942 1760>
LayerCount: 2
Fore
SplineSet
36 789 m 2
 36 845.666666667 54.8333333333 885.333333333 92.5 908 c 0
 130.166666667 930.666666667 186 942 260 942 c 1
 260 1760 l 1
 395 1760 l 1
 395 160 l 2
 395 134.666666667 390.333333333 112.166666667 381 92.5 c 0
 371.666666667 72.8333333333 359 56 343 42 c 0
 327 28 308 17.3333333333 286 10 c 0
 264 2.66666666667 240 -1 214 -1 c 0
 189.333333333 -1 166.166666667 2.66666666667 144.5 10 c 0
 122.833333333 17.3333333333 104 27.8333333333 88 41.5 c 0
 72 55.1666666667 59.3333333333 71.8333333333 50 91.5 c 0
 40.6666666667 111.166666667 36 133.666666667 36 159 c 2
 36 789 l 2
175 148 m 2
 175 133.333333333 179.166666667 122.166666667 187.5 114.5 c 0
 195.833333333 106.833333333 205.666666667 103 217 103 c 256
 228.333333333 103 238.333333333 106.833333333 247 114.5 c 0
 255.666666667 122.166666667 260 134 260 150 c 2
 260 826 l 1
 229.333333333 826 207.5 823.333333333 194.5 818 c 0
 181.5 812.666666667 175 801 175 783 c 2
 175 148 l 2
EndSplineSet
EndChar

StartChar: product
Encoding: 8719 8719 373
Width: 1474
GlyphClass: 2
Flags: W
HStem: 355 123<514.96 959.925> 1012 107<734 786.495> 1482 99<734 803> 1658 123<513.566 959.925>
VStem: 24 132<839.142 1295.4> 601 130<548 1012 1119 1482> 803 129<1125.19 1475.29> 1318 132<840.167 1295.4>
LayerCount: 2
Fore
SplineSet
932 1151 m 2
 932 1125.66666667 926.5 1104.5 915.5 1087.5 c 0
 904.5 1070.5 889.833333333 1056.5 871.5 1045.5 c 0
 853.166666667 1034.5 831.833333333 1026.5 807.5 1021.5 c 0
 783.166666667 1016.5 757.666666667 1013.33333333 731 1012 c 1
 731 548 l 1
 601 548 l 1
 601 1581 l 1
 768 1581 l 2
 790.666666667 1581 812 1577.66666667 832 1571 c 0
 852 1564.33333333 869.333333333 1555.16666667 884 1543.5 c 0
 898.666666667 1531.83333333 910.333333333 1518.16666667 919 1502.5 c 0
 927.666666667 1486.83333333 932 1470 932 1452 c 2
 932 1151 l 2
803 1452 m 2
 803 1463.33333333 797.166666667 1471.16666667 785.5 1475.5 c 0
 773.833333333 1479.83333333 756.666666667 1482 734 1482 c 1
 734 1119 l 1
 758.666666667 1119 776.333333333 1121 787 1125 c 0
 797.666666667 1129 803 1136.33333333 803 1147 c 2
 803 1452 l 2
24 1068 m 256
 24 1133.33333333 32.5 1196.33333333 49.5 1257 c 0
 66.5 1317.66666667 90.5 1374.5 121.5 1427.5 c 0
 152.5 1480.5 189.666666667 1528.66666667 233 1572 c 0
 276.333333333 1615.33333333 324.5 1652.5 377.5 1683.5 c 0
 430.5 1714.5 487.333333333 1738.5 548 1755.5 c 0
 608.666666667 1772.5 671.666666667 1781 737 1781 c 256
 802.333333333 1781 865.333333333 1772.5 926 1755.5 c 0
 986.666666667 1738.5 1043.33333333 1714.5 1096 1683.5 c 0
 1148.66666667 1652.5 1196.83333333 1615.33333333 1240.5 1572 c 0
 1284.16666667 1528.66666667 1321.5 1480.5 1352.5 1427.5 c 0
 1383.5 1374.5 1407.5 1317.66666667 1424.5 1257 c 0
 1441.5 1196.33333333 1450 1133.33333333 1450 1068 c 256
 1450 1002.66666667 1441.5 939.666666667 1424.5 879 c 0
 1407.5 818.333333333 1383.5 761.666666667 1352.5 709 c 0
 1321.5 656.333333333 1284.16666667 608.166666667 1240.5 564.5 c 0
 1196.83333333 520.833333333 1148.66666667 483.5 1096 452.5 c 0
 1043.33333333 421.5 986.666666667 397.5 926 380.5 c 0
 865.333333333 363.5 802.333333333 355 737 355 c 256
 671.666666667 355 608.666666667 363.5 548 380.5 c 0
 487.333333333 397.5 430.5 421.5 377.5 452.5 c 0
 324.5 483.5 276.333333333 520.833333333 233 564.5 c 0
 189.666666667 608.166666667 152.5 656.333333333 121.5 709 c 0
 90.5 761.666666667 66.5 818.333333333 49.5 879 c 0
 32.5 939.666666667 24 1002.66666667 24 1068 c 256
156 1068 m 0
 156 986.666666667 171 910.166666667 201 838.5 c 0
 231 766.833333333 272.166666667 704.333333333 324.5 651 c 0
 376.833333333 597.666666667 438.333333333 555.5 509 524.5 c 0
 579.666666667 493.5 655.666666667 478 737 478 c 0
 791 478 842.833333333 485 892.5 499 c 0
 942.166666667 513 988.5 532.833333333 1031.5 558.5 c 0
 1074.5 584.166666667 1113.66666667 615 1149 651 c 0
 1184.33333333 687 1214.5 726.833333333 1239.5 770.5 c 0
 1264.5 814.166666667 1283.83333333 861 1297.5 911 c 0
 1311.16666667 961 1318 1013.33333333 1318 1068 c 0
 1318 1122 1311.16666667 1174 1297.5 1224 c 0
 1283.83333333 1274 1264.5 1321 1239.5 1365 c 0
 1214.5 1409 1184.33333333 1448.83333333 1149 1484.5 c 0
 1113.66666667 1520.16666667 1074.5 1551 1031.5 1577 c 0
 988.5 1603 942.166666667 1623 892.5 1637 c 0
 842.833333333 1651 791 1658 737 1658 c 0
 682.333333333 1658 630.166666667 1651 580.5 1637 c 0
 530.833333333 1623 484.5 1603 441.5 1577 c 0
 398.5 1551 359.5 1520.16666667 324.5 1484.5 c 0
 289.5 1448.83333333 259.5 1409 234.5 1365 c 0
 209.5 1321 190.166666667 1274 176.5 1224 c 0
 162.833333333 1174 156 1122 156 1068 c 0
EndSplineSet
EndChar

StartChar: summation
Encoding: 8721 8721 374
Width: 362
GlyphClass: 2
Flags: W
HStem: 0 112<172 352> 876 120<225 353> 1644 117<172 352>
DStem2: 39 0 172 112 0.0663769 0.997795<120.581 886.414>
LayerCount: 2
Fore
SplineSet
352 1644 m 1
 172 1644 l 1
 225 996 l 1
 353 996 l 1
 353 876 l 1
 225 876 l 1
 172 112 l 1
 352 112 l 1
 352 0 l 1
 39 0 l 1
 101 932 l 1
 39 1761 l 1
 352 1761 l 1
 352 1644 l 1
EndSplineSet
EndChar

StartChar: minus
Encoding: 8722 8722 375
Width: 488
GlyphClass: 2
Flags: W
HStem: 750 135<41 445>
VStem: 41 404<750 885>
LayerCount: 2
Fore
SplineSet
445 750 m 1
 41 750 l 1
 41 885 l 1
 445 885 l 1
 445 750 l 1
EndSplineSet
EndChar

StartChar: radical
Encoding: 8730 8730 376
Width: 536
GlyphClass: 2
Flags: W
HStem: 0 21G<222.649 420.079> 808 80<0 130> 1741 20G<372.213 514>
VStem: 373 141<1495.26 1761>
DStem2: 256 888 130 808 0.11677 -0.993159<64.7397 578.073>
LayerCount: 2
Fore
SplineSet
256 888 m 1
 316 313 l 1
 373 1761 l 1
 514 1761 l 1
 419 0 l 1
 225 0 l 1
 130 808 l 1
 0 808 l 1
 0 888 l 1
 256 888 l 1
EndSplineSet
EndChar

StartChar: infinity
Encoding: 8734 8734 377
Width: 743
GlyphClass: 2
Flags: W
HStem: 619 121<117.658 276.696 460.318 618.074> 967 120<117.658 276.269 460.318 618.074>
VStem: 15 92<748.554 958.737> 629 99<748.554 958.737>
LayerCount: 2
Fore
SplineSet
728 854 m 0
 728 822.666666667 724.5 792.833333333 717.5 764.5 c 0
 710.5 736.166666667 700.166666667 711.333333333 686.5 690 c 0
 672.833333333 668.666666667 655.666666667 651.5 635 638.5 c 0
 614.333333333 625.5 590.333333333 619 563 619 c 0
 533 619 506.333333333 627.666666667 483 645 c 0
 459.666666667 662.333333333 438 683.666666667 418 709 c 0
 410 719 402.333333333 729.5 395 740.5 c 0
 387.666666667 751.5 380.333333333 762.666666667 373 774 c 1
 365.666666667 762.666666667 358.333333333 751.5 351 740.5 c 0
 343.666666667 729.5 336 719 328 709 c 0
 308 683.666666667 286 662.333333333 262 645 c 0
 238 627.666666667 210.666666667 619 180 619 c 0
 152 619 127.5 625.5 106.5 638.5 c 0
 85.5 651.5 68.3333333333 668.666666667 55 690 c 0
 41.6666666667 711.333333333 31.6666666667 736.166666667 25 764.5 c 0
 18.3333333333 792.833333333 15 822.666666667 15 854 c 0
 15 884.666666667 18.3333333333 914 25 942 c 0
 31.6666666667 970 41.6666666667 994.666666667 55 1016 c 0
 68.3333333333 1037.33333333 85.5 1054.5 106.5 1067.5 c 0
 127.5 1080.5 152 1087 180 1087 c 0
 210.666666667 1087 238 1078.33333333 262 1061 c 0
 286 1043.66666667 308 1022.33333333 328 997 c 0
 336 986.333333333 343.666666667 975.666666667 351 965 c 0
 358.333333333 954.333333333 365.666666667 943.333333333 373 932 c 1
 380.333333333 943.333333333 387.666666667 954.333333333 395 965 c 0
 402.333333333 975.666666667 410 986.333333333 418 997 c 0
 438 1022.33333333 459.666666667 1043.66666667 483 1061 c 0
 506.333333333 1078.33333333 533 1087 563 1087 c 0
 590.333333333 1087 614.333333333 1080.5 635 1067.5 c 0
 655.666666667 1054.5 672.833333333 1037.33333333 686.5 1016 c 0
 700.166666667 994.666666667 710.5 970 717.5 942 c 0
 724.5 914 728 884.666666667 728 854 c 0
312 876 m 2
 294.666666667 902 276.666666667 923.666666667 258 941 c 0
 239.333333333 958.333333333 217.666666667 967 193 967 c 0
 175.666666667 967 161.333333333 964 150 958 c 0
 138.666666667 952 129.833333333 943.833333333 123.5 933.5 c 0
 117.166666667 923.166666667 112.833333333 911.166666667 110.5 897.5 c 0
 108.166666667 883.833333333 107 869.333333333 107 854 c 256
 107 838.666666667 108.166666667 824 110.5 810 c 0
 112.833333333 796 117.166666667 783.833333333 123.5 773.5 c 0
 129.833333333 763.166666667 138.666666667 755 150 749 c 0
 161.333333333 743 175.666666667 740 193 740 c 0
 217.666666667 740 239.333333333 748.5 258 765.5 c 0
 276.666666667 782.5 294.666666667 804 312 830 c 1
 328 852 l 1
 312 876 l 2
408 852 m 1
 424 830 l 1
 441.333333333 804 459.5 782.5 478.5 765.5 c 0
 497.5 748.5 519 740 543 740 c 0
 560.333333333 740 574.666666667 743 586 749 c 0
 597.333333333 755 606.166666667 763.166666667 612.5 773.5 c 0
 618.833333333 783.833333333 623.166666667 796 625.5 810 c 0
 627.833333333 824 629 838.666666667 629 854 c 256
 629 869.333333333 627.833333333 883.833333333 625.5 897.5 c 0
 623.166666667 911.166666667 618.833333333 923.166666667 612.5 933.5 c 0
 606.166666667 943.833333333 597.333333333 952 586 958 c 0
 574.666666667 964 560.333333333 967 543 967 c 0
 519 967 497.5 958.333333333 478.5 941 c 0
 459.5 923.666666667 441.333333333 902 424 876 c 2
 408 852 l 1
EndSplineSet
EndChar

StartChar: integral
Encoding: 8747 8747 378
Width: 433
GlyphClass: 2
Flags: W
HStem: 0 21G<24 154.739> 759 105<228 338> 1422 98<277 443>
VStem: 24 129<0 129>
DStem2: 24 0 153 0 0.087167 0.996194<11.2445 773.109 878.493 1438.64>
LayerCount: 2
Fore
SplineSet
443 1422 m 1
 277 1422 l 1
 228 864 l 1
 348 864 l 1
 338 759 l 1
 219 759 l 1
 153 0 l 1
 24 0 l 1
 157 1520 l 1
 451 1520 l 1
 443 1422 l 1
EndSplineSet
EndChar

StartChar: approxequal
Encoding: 8776 8776 379
Width: 701
GlyphClass: 2
Flags: W
HStem: 599 117<121.958 628.162> 644 115<93.0007 566.464> 795 115<121.943 623.138> 839 115<93.0007 572.464>
VStem: 24 69<599 643.387 795 838.484> 608 67<716.753 759 910.5 954>
DStem2: 174 950.5 166 835.5 0.994567 -0.104099<-41.7212 406.452> 174 756 166.5 640.5 0.994474 -0.10498<-41.5348 406.397>
LayerCount: 2
Fore
SplineSet
24 795 m 1x2c
 24 817 25.6666666667 837.666666667 29 857 c 0
 32.3333333333 876.333333333 37.6666666667 893.166666667 45 907.5 c 0
 52.3333333333 921.833333333 62.3333333333 933.166666667 75 941.5 c 0
 87.6666666667 949.833333333 103.666666667 954 123 954 c 0x1c
 133.666666667 954 150.666666667 952.833333333 174 950.5 c 0
 197.333333333 948.166666667 223.833333333 945.5 253.5 942.5 c 0
 283.166666667 939.5 314.5 936 347.5 932 c 0
 380.5 928 412.166666667 924.5 442.5 921.5 c 0
 472.833333333 918.5 500.166666667 915.833333333 524.5 913.5 c 0
 548.833333333 911.166666667 567 910 579 910 c 0x2c
 585.666666667 910 591 912.333333333 595 917 c 0
 599 921.666666667 601.666666667 926.666666667 603 932 c 0
 605.666666667 939.333333333 607.333333333 946.666666667 608 954 c 1
 675 954 l 1x1c
 678.333333333 922.666666667 676.333333333 896 669 874 c 1
 663.666666667 852.666666667 653.666666667 834.166666667 639 818.5 c 0
 624.333333333 802.833333333 602.333333333 795 573 795 c 0x2c
 561.666666667 795 543.833333333 796.166666667 519.5 798.5 c 0
 495.166666667 800.833333333 467.666666667 803.5 437 806.5 c 0
 406.333333333 809.5 374 813 340 817 c 0
 306 821 274.166666667 824.5 244.5 827.5 c 0
 214.833333333 830.5 188.666666667 833.166666667 166 835.5 c 0
 143.333333333 837.833333333 128 839 120 839 c 0x1c
 112.666666667 839 107.333333333 836.666666667 104 832 c 0
 100.666666667 827.333333333 98 822 96 816 c 0
 94 810.666666667 93 803.666666667 93 795 c 1
 24 795 l 1x2c
24 599 m 1x8c
 24 621.666666667 25.6666666667 642.666666667 29 662 c 0
 32.3333333333 681.333333333 37.6666666667 698.166666667 45 712.5 c 0
 52.3333333333 726.833333333 62.3333333333 738.166666667 75 746.5 c 0
 87.6666666667 754.833333333 103.666666667 759 123 759 c 0x4c
 133.666666667 759 150.666666667 758 174 756 c 0
 197.333333333 754 223.833333333 751.333333333 253.5 748 c 0
 283.166666667 744.666666667 314.5 741.166666667 347.5 737.5 c 0
 380.5 733.833333333 412.166666667 730.333333333 442.5 727 c 0
 472.833333333 723.666666667 500.166666667 721 524.5 719 c 0
 548.833333333 717 567 716 579 716 c 0x8c
 585.666666667 716 591 718 595 722 c 0
 599 726 601.666666667 731 603 737 c 1
 605.666666667 744.333333333 607.333333333 751.666666667 608 759 c 1
 675 759 l 1x4c
 676.333333333 727.666666667 673.333333333 701 666 679 c 0
 662 669 657.333333333 659.333333333 652 650 c 0
 646.666666667 640.666666667 640.333333333 632.166666667 633 624.5 c 0
 625.666666667 616.833333333 616.5 610.666666667 605.5 606 c 0
 594.5 601.333333333 581.666666667 599 567 599 c 0x8c
 555.666666667 599 538 600.166666667 514 602.5 c 0
 490 604.833333333 462.833333333 607.666666667 432.5 611 c 0
 402.166666667 614.333333333 370.5 617.833333333 337.5 621.5 c 0
 304.5 625.166666667 273.333333333 628.666666667 244 632 c 0
 214.666666667 635.333333333 188.833333333 638.166666667 166.5 640.5 c 0
 144.166666667 642.833333333 128.666666667 644 120 644 c 0x4c
 112.666666667 644 107.333333333 641.666666667 104 637 c 0
 100.666666667 632.333333333 98 627 96 621 c 0
 94 615.666666667 93 608.333333333 93 599 c 1
 24 599 l 1x8c
EndSplineSet
EndChar

StartChar: lessequal
Encoding: 8804 8804 381
Width: 425
GlyphClass: 2
Flags: W
HStem: 243 146<23 400>
VStem: 15 386
LayerCount: 2
Fore
SplineSet
401 1340 m 1
 401 1080 l 1
 211 881 l 1
 401 704 l 1
 401 439 l 1
 15 881 l 1
 401 1340 l 1
23 389 m 1
 400 389 l 1
 400 243 l 1
 23 243 l 1
 23 389 l 1
EndSplineSet
EndChar

StartChar: greaterequal
Encoding: 8805 8805 382
Width: 425
GlyphClass: 2
Flags: W
HStem: 243 146<25 402>
VStem: 24 385
LayerCount: 2
Fore
SplineSet
409 881 m 1
 24 439 l 1
 24 704 l 1
 214 881 l 1
 24 1080 l 1
 24 1340 l 1
 409 881 l 1
402 243 m 1
 25 243 l 1
 25 389 l 1
 402 389 l 1
 402 243 l 1
EndSplineSet
EndChar

StartChar: lozenge
Encoding: 9674 9674 383
Width: 458
GlyphClass: 2
Flags: W
HStem: -21 79<155.107 303.34>
VStem: 52 86<85.3307 719.392> 52 65<413.608 985> 155.5 28.5<617.895 763.051> 206.5 61.5<629.06 1065> 224 19<624.716 689.568> 243 8.5<612.001 633> 289 12<657 705.934> 316 90<66.4053 696.149> 338 68<436.851 994>
LayerCount: 2
Fore
SplineSet
406 130 m 2x9180
 406 109.333333333 401.166666667 89.8333333333 391.5 71.5 c 0
 381.833333333 53.1666666667 369 37.1666666667 353 23.5 c 0
 337 9.83333333333 318.333333333 -1 297 -9 c 0
 275.666666667 -17 253.333333333 -21 230 -21 c 0
 205.333333333 -21 182.166666667 -17 160.5 -9 c 0
 138.833333333 -1 120 10 104 24 c 0
 88 38 75.3333333333 54.5 66 73.5 c 0
 56.6666666667 92.5 52 113 52 135 c 2xd180
 52 1631 l 2
 52 1652.33333333 56.6666666667 1672.16666667 66 1690.5 c 0
 75.3333333333 1708.83333333 88 1724.83333333 104 1738.5 c 0
 120 1752.16666667 138.833333333 1763 160.5 1771 c 0
 182.166666667 1779 205.333333333 1783 230 1783 c 0
 253.333333333 1783 275.666666667 1779.16666667 297 1771.5 c 0
 318.333333333 1763.83333333 337 1753.33333333 353 1740 c 0
 369 1726.66666667 381.833333333 1710.83333333 391.5 1692.5 c 0
 401.166666667 1674.16666667 406 1654 406 1632 c 2xb140
 406 130 l 2x9180
338 994 m 1x9140
 336.666666667 989.333333333 335.166666667 977.666666667 333.5 959 c 0
 331.833333333 940.333333333 329.833333333 918.5 327.5 893.5 c 0
 325.166666667 868.5 322.666666667 841.833333333 320 813.5 c 0
 317.333333333 785.166666667 314.5 759.333333333 311.5 736 c 0
 308.5 712.666666667 305 693.5 301 678.5 c 0
 297 663.5 293 656.333333333 289 657 c 1
 291 698.333333333 292 738.166666667 292 776.5 c 0
 292 814.833333333 291.166666667 850.166666667 289.5 882.5 c 0
 287.833333333 914.833333333 286 943.666666667 284 969 c 0
 282 994.333333333 280 1014.66666667 278 1030 c 2
 273 1065 l 1
 272 1018 l 2
 271.333333333 987.333333333 270 949.666666667 268 905 c 0x9940
 266 860.333333333 263 811 259 757 c 0
 256.333333333 729.666666667 253.833333333 703.833333333 251.5 679.5 c 0
 249.166666667 655.166666667 246.333333333 632.333333333 243 611 c 1x93
 235 633 228.666666667 657.5 224 684.5 c 0x95
 219.333333333 711.5 215.5 739 212.5 767 c 0
 209.5 795 207.5 823 206.5 851 c 0
 205.5 879 205.166666667 905.5 205.5 930.5 c 0
 205.833333333 955.5 206.333333333 977.833333333 207 997.5 c 0
 207.666666667 1017.16666667 208.666666667 1033 210 1045 c 1
 211 1068 l 1
 201 1048.66666667 193.666666667 1023.33333333 189 992 c 0
 184.333333333 960.666666667 181.166666667 924.166666667 179.5 882.5 c 0
 177.833333333 840.833333333 177.666666667 794.833333333 179 744.5 c 0
 180.333333333 694.166666667 182 641 184 585 c 1
 172 607 162.5 636 155.5 672 c 0
 148.5 708 143 745.666666667 139 785 c 0
 135 824.333333333 131.5 862 128.5 898 c 0
 125.5 934 121.666666667 963 117 985 c 1xb9
 138 148 l 2
 138 123.333333333 145 102.166666667 159 84.5 c 0
 173 66.8333333333 196.666666667 58 230 58 c 0
 246 58 259.333333333 60.5 270 65.5 c 0
 280.666666667 70.5 289.166666667 77 295.5 85 c 0
 301.833333333 93 306.5 101.666666667 309.5 111 c 0
 312.5 120.333333333 314.666666667 129.666666667 316 139 c 1xd180
 338 994 l 1x9140
EndSplineSet
EndChar

StartChar: apple
Encoding: 65550 -1 398
Width: 458
GlyphClass: 2
Flags: W
HStem: -21 79<155.107 303.34>
VStem: 52 86<85.3307 719.392> 52 65<413.608 985> 155.5 28.5<617.895 763.051> 206.5 61.5<629.06 1065> 224 19<624.716 689.568> 243 8.5<612.001 633> 289 12<657 705.934> 316 90<66.4053 696.149> 338 68<436.851 994>
LayerCount: 2
Fore
SplineSet
406 130 m 2x9180
 406 109.333333333 401.166666667 89.8333333333 391.5 71.5 c 0
 381.833333333 53.1666666667 369 37.1666666667 353 23.5 c 0
 337 9.83333333333 318.333333333 -1 297 -9 c 0
 275.666666667 -17 253.333333333 -21 230 -21 c 0
 205.333333333 -21 182.166666667 -17 160.5 -9 c 0
 138.833333333 -1 120 10 104 24 c 0
 88 38 75.3333333333 54.5 66 73.5 c 0
 56.6666666667 92.5 52 113 52 135 c 2xd180
 52 1631 l 2
 52 1652.33333333 56.6666666667 1672.16666667 66 1690.5 c 0
 75.3333333333 1708.83333333 88 1724.83333333 104 1738.5 c 0
 120 1752.16666667 138.833333333 1763 160.5 1771 c 0
 182.166666667 1779 205.333333333 1783 230 1783 c 0
 253.333333333 1783 275.666666667 1779.16666667 297 1771.5 c 0
 318.333333333 1763.83333333 337 1753.33333333 353 1740 c 0
 369 1726.66666667 381.833333333 1710.83333333 391.5 1692.5 c 0
 401.166666667 1674.16666667 406 1654 406 1632 c 2xb140
 406 130 l 2x9180
338 994 m 1x9140
 336.666666667 989.333333333 335.166666667 977.666666667 333.5 959 c 0
 331.833333333 940.333333333 329.833333333 918.5 327.5 893.5 c 0
 325.166666667 868.5 322.666666667 841.833333333 320 813.5 c 0
 317.333333333 785.166666667 314.5 759.333333333 311.5 736 c 0
 308.5 712.666666667 305 693.5 301 678.5 c 0
 297 663.5 293 656.333333333 289 657 c 1
 291 698.333333333 292 738.166666667 292 776.5 c 0
 292 814.833333333 291.166666667 850.166666667 289.5 882.5 c 0
 287.833333333 914.833333333 286 943.666666667 284 969 c 0
 282 994.333333333 280 1014.66666667 278 1030 c 2
 273 1065 l 1
 272 1018 l 2
 271.333333333 987.333333333 270 949.666666667 268 905 c 0x9940
 266 860.333333333 263 811 259 757 c 0
 256.333333333 729.666666667 253.833333333 703.833333333 251.5 679.5 c 0
 249.166666667 655.166666667 246.333333333 632.333333333 243 611 c 1x93
 235 633 228.666666667 657.5 224 684.5 c 0x95
 219.333333333 711.5 215.5 739 212.5 767 c 0
 209.5 795 207.5 823 206.5 851 c 0
 205.5 879 205.166666667 905.5 205.5 930.5 c 0
 205.833333333 955.5 206.333333333 977.833333333 207 997.5 c 0
 207.666666667 1017.16666667 208.666666667 1033 210 1045 c 1
 211 1068 l 1
 201 1048.66666667 193.666666667 1023.33333333 189 992 c 0
 184.333333333 960.666666667 181.166666667 924.166666667 179.5 882.5 c 0
 177.833333333 840.833333333 177.666666667 794.833333333 179 744.5 c 0
 180.333333333 694.166666667 182 641 184 585 c 1
 172 607 162.5 636 155.5 672 c 0
 148.5 708 143 745.666666667 139 785 c 0
 135 824.333333333 131.5 862 128.5 898 c 0
 125.5 934 121.666666667 963 117 985 c 1xb9
 138 148 l 2
 138 123.333333333 145 102.166666667 159 84.5 c 0
 173 66.8333333333 196.666666667 58 230 58 c 0
 246 58 259.333333333 60.5 270 65.5 c 0
 280.666666667 70.5 289.166666667 77 295.5 85 c 0
 301.833333333 93 306.5 101.666666667 309.5 111 c 0
 312.5 120.333333333 314.666666667 129.666666667 316 139 c 1xd180
 338 994 l 1x9140
EndSplineSet
EndChar

